STARTFONT 2.1
COMMENT
COMMENT Converted from OpenType font "BeVietnam-Regular.ttf" by "otf2bdf 3.0".
COMMENT
FONT -FreeType-Be Vietnam-Medium-R-Normal--44-320-100-100-P-208-ISO10646-1
SIZE 32 100 100
FONTBOUNDINGBOX 68 60 -17 -11
STARTPROPERTIES 19
FOUNDRY "FreeType"
FAMILY_NAME "Be Vietnam"
WEIGHT_NAME "Medium"
SLANT "R"
SETWIDTH_NAME "Normal"
ADD_STYLE_NAME ""
PIXEL_SIZE 44
POINT_SIZE 320
RESOLUTION_X 100
RESOLUTION_Y 100
SPACING "P"
AVERAGE_WIDTH 208
CHARSET_REGISTRY "ISO10646"
CHARSET_ENCODING "1"
FONT_ASCENT 52
FONT_DESCENT 11
COPYRIGHT "Copyright 2019 The Bevietnam Project Authors (https://github.com/bettergui/beVietnam)"
_OTF_FONTFILE "BeVietnam-Regular.ttf"
_OTF_PSNAME "BeVietnam-Regular"
ENDPROPERTIES
CHARS 445
STARTCHAR 000D
ENCODING 13
SWIDTH 585 0
DWIDTH 26 0
BBX 0 0 0 0
BITMAP
ENDCHAR
STARTCHAR 0020
ENCODING 32
SWIDTH 225 0
DWIDTH 10 0
BBX 0 0 0 0
BITMAP
ENDCHAR
STARTCHAR 0021
ENCODING 33
SWIDTH 225 0
DWIDTH 10 0
BBX 5 33 3 0
BITMAP
F8
F8
F8
F8
F8
F0
F0
F0
F0
70
70
70
70
70
70
70
70
70
70
70
70
70
70
70
70
00
00
00
20
F0
F8
F8
70
ENDCHAR
STARTCHAR 0022
ENCODING 34
SWIDTH 495 0
DWIDTH 22 0
BBX 15 11 4 23
BITMAP
1004
300C
6018
C030
C030
C030
C030
F83E
F83E
F83E
F83E
ENDCHAR
STARTCHAR 0023
ENCODING 35
SWIDTH 877 0
DWIDTH 39 0
BBX 31 31 4 0
BITMAP
001E01C0
001E01C0
001C01C0
001C03C0
001C0380
003C0380
00380380
00380780
00380780
3FFFFFFE
3FFFFFFE
7FFFFFFE
00700F00
00700F00
00F00E00
00F00E00
00E01E00
00E01E00
00E01C00
01E01C00
FFFFFFF8
FFFFFFF8
FFFFFFF8
03C03800
03C03800
03803800
03807800
03807000
07807000
07807000
0700F000
ENDCHAR
STARTCHAR 0024
ENCODING 36
SWIDTH 562 0
DWIDTH 25 0
BBX 22 37 2 -3
BITMAP
003000
003000
003000
00FC00
07FF00
0FFFC0
1FBFE0
3E31E0
7C30F0
7830F0
783078
783078
783078
783000
7C3000
3E3000
3FF000
1FFC00
07FF80
01FFE0
0037F0
0031F8
003078
003078
F0303C
F0303C
F03038
783078
7C3078
3E30F8
3F33F0
1FFFE0
07FFC0
03FF00
003000
003000
003000
ENDCHAR
STARTCHAR 0025
ENCODING 37
SWIDTH 810 0
DWIDTH 36 0
BBX 34 32 1 0
BITMAP
0200000000
1FC001E000
3FE001C000
707003C000
7070038000
E070078000
E030070000
E0700F0000
70700E0000
70701E0000
78E01C0000
3FE03C0000
1FC0380000
0000780000
0000700000
0000F00000
0000E00000
0001E00000
0001C00000
0003C00000
0003807F00
000700FF80
000701C380
000E01C1C0
000E01C1C0
001C0381C0
003C0381C0
00380181C0
007801C1C0
007001C380
00F000FF80
00E0007F00
ENDCHAR
STARTCHAR 0026
ENCODING 38
SWIDTH 630 0
DWIDTH 28 0
BBX 27 32 2 0
BITMAP
001E0000
00FFC000
01FFE000
03FFF000
07C0F800
07807800
07803C00
07803C00
07003C00
07803C00
07800000
07C00000
03C00000
01E00000
00F00000
00F80000
03FC0F00
0FFE0F00
1F1F1E00
3C0F1C00
7807BC00
7803F800
7001F800
F001F000
F000F800
7001FC00
7803FC00
7C079E00
3E0F8F00
3FFF0780
1FFE03C0
07F803E0
ENDCHAR
STARTCHAR 0027
ENCODING 39
SWIDTH 292 0
DWIDTH 13 0
BBX 5 11 4 24
BITMAP
F8
F8
F8
F8
38
18
18
18
30
60
40
ENDCHAR
STARTCHAR 0028
ENCODING 40
SWIDTH 450 0
DWIDTH 20 0
BBX 12 44 5 -9
BITMAP
0020
00E0
01C0
03C0
0380
0700
0F00
0E00
1E00
1C00
3C00
3C00
7800
7800
7800
7800
F000
F000
F000
F000
F000
F000
F000
F000
F000
F000
F000
F000
7000
7800
7800
7800
3800
3C00
3C00
1E00
1E00
0F00
0700
0780
0380
01C0
00E0
0070
ENDCHAR
STARTCHAR 0029
ENCODING 41
SWIDTH 472 0
DWIDTH 21 0
BBX 12 44 5 -9
BITMAP
C000
E000
7000
3800
1C00
1E00
0F00
0F00
0780
0780
03C0
03C0
03C0
01E0
01E0
01E0
01E0
00F0
00F0
00F0
00F0
00F0
00F0
00F0
00F0
00F0
00F0
01E0
01E0
01E0
01E0
01C0
03C0
03C0
0380
0780
0700
0F00
0E00
1C00
3C00
7800
6000
C000
ENDCHAR
STARTCHAR 002A
ENCODING 42
SWIDTH 495 0
DWIDTH 22 0
BBX 15 16 4 18
BITMAP
0380
0380
0380
430C
F31C
FB7C
3FF0
0FC0
0FE0
3FF8
FB3E
E31C
4304
0300
0380
0380
ENDCHAR
STARTCHAR 002B
ENCODING 43
SWIDTH 562 0
DWIDTH 25 0
BBX 18 18 4 5
BITMAP
01E000
01E000
01E000
01E000
01E000
01E000
01E000
FFFFC0
FFFFC0
FFFFC0
FFFFC0
01E000
01E000
01E000
01E000
01E000
01E000
01E000
ENDCHAR
STARTCHAR 002C
ENCODING 44
SWIDTH 270 0
DWIDTH 12 0
BBX 6 11 3 -6
BITMAP
7C
FC
FC
7C
1C
0C
0C
0C
18
70
60
ENDCHAR
STARTCHAR 002D
ENCODING 45
SWIDTH 585 0
DWIDTH 26 0
BBX 17 3 5 12
BITMAP
FFFF80
FFFF80
FFFF80
ENDCHAR
STARTCHAR 002E
ENCODING 46
SWIDTH 270 0
DWIDTH 12 0
BBX 5 5 4 0
BITMAP
60
F0
F8
F8
F0
ENDCHAR
STARTCHAR 002F
ENCODING 47
SWIDTH 495 0
DWIDTH 22 0
BBX 18 43 3 -7
BITMAP
0001C0
0003C0
0003C0
000380
000780
000780
000700
000F00
000F00
001E00
001E00
001C00
003C00
003C00
003800
007800
007800
007000
00F000
00F000
01E000
01E000
01E000
03C000
03C000
038000
078000
078000
070000
0F0000
0F0000
0E0000
1E0000
1E0000
3C0000
3C0000
380000
780000
780000
700000
F00000
F00000
E00000
ENDCHAR
STARTCHAR 0030
ENCODING 48
SWIDTH 585 0
DWIDTH 26 0
BBX 23 32 2 0
BITMAP
007C00
03FF80
07FFC0
1FFFE0
1F01F0
3E00F8
3C0078
7C007C
78003C
78003C
F8003C
F8003C
F0003C
F0003E
F0003E
F0003E
F0003E
F0003E
F0003E
F0003E
F0003C
F8003C
78003C
78003C
78003C
7C0078
3C0078
3E00F0
1F83F0
0FFFE0
07FFC0
01FF00
ENDCHAR
STARTCHAR 0031
ENCODING 49
SWIDTH 472 0
DWIDTH 21 0
BBX 16 31 4 0
BITMAP
03C0
07C0
0FC0
1FC0
7DC0
F9C0
F1C0
E1C0
C1C0
81C0
01C0
01C0
01C0
01C0
01C0
01C0
01C0
01C0
01C0
01C0
01C0
01C0
01C0
01C0
01C0
01C0
01C0
01C0
FFFF
FFFF
FFFF
ENDCHAR
STARTCHAR 0032
ENCODING 50
SWIDTH 585 0
DWIDTH 26 0
BBX 21 32 3 0
BITMAP
00F800
07FF00
0FFF80
1FFFC0
3E03E0
7C01F0
7800F0
7800F0
700070
F00070
F00070
0000F0
0000F0
0000F0
0001E0
0003E0
0003C0
000780
000F00
003E00
007C00
00F800
01F000
03E000
07C000
0F8000
1F0000
7C0000
F80000
FFFFF8
FFFFF8
FFFFF8
ENDCHAR
STARTCHAR 0033
ENCODING 51
SWIDTH 585 0
DWIDTH 26 0
BBX 21 32 3 0
BITMAP
01FC00
07FF00
1FFFC0
3FDFE0
3C03E0
7801F0
7800F0
F000F0
000070
000070
0000F0
0000F0
0001F0
0003E0
01FFC0
01FF00
01FF80
001FC0
0001E0
0000F0
0000F0
000078
000078
000078
F00078
F00078
F800F0
7C01F0
3F07E0
3FFFC0
0FFF80
07FE00
ENDCHAR
STARTCHAR 0034
ENCODING 52
SWIDTH 585 0
DWIDTH 26 0
BBX 23 31 2 0
BITMAP
0007C0
000FC0
000FC0
001FC0
003FC0
003FC0
007BC0
00F3C0
00F3C0
01E3C0
03C3C0
03C3C0
0783C0
0F03C0
0F03C0
1E03C0
3C03C0
3C03C0
7803C0
F003C0
FFFFFE
FFFFFE
FFFFFE
0003C0
0003C0
0003C0
0003C0
0003C0
0003C0
0003C0
0003C0
ENDCHAR
STARTCHAR 0035
ENCODING 53
SWIDTH 585 0
DWIDTH 26 0
BBX 21 31 3 0
BITMAP
3FFFE0
3FFFE0
7FFFE0
780000
780000
780000
780000
780000
780000
780000
70FE00
73FF80
77FFC0
7F03E0
7C01F0
7C00F8
780078
000078
000078
000038
000038
000038
000078
F00078
780078
7800F0
3E01F0
3F87E0
1FFFC0
07FF80
01FE00
ENDCHAR
STARTCHAR 0036
ENCODING 54
SWIDTH 585 0
DWIDTH 26 0
BBX 21 31 3 0
BITMAP
007800
007800
00F000
01E000
01E000
03C000
078000
0F8000
0F0000
1E0000
1C0000
3CFC00
7BFF00
77FFC0
7E07E0
FC03E0
F801F0
F000F0
F00070
E00078
E00078
E00078
E00078
F00070
F000F0
F800F0
7801E0
3E07E0
1FFFC0
0FFF80
03FE00
ENDCHAR
STARTCHAR 0037
ENCODING 55
SWIDTH 495 0
DWIDTH 22 0
BBX 20 31 1 0
BITMAP
FFFFF0
FFFFF0
FFFFF0
0000F0
0000F0
0001E0
0001E0
0003C0
0003C0
000380
000780
000780
000F00
000F00
001E00
001E00
003C00
003C00
003C00
007800
007800
00F000
00F000
01E000
01E000
03E000
03C000
03C000
078000
078000
0F0000
ENDCHAR
STARTCHAR 0038
ENCODING 56
SWIDTH 607 0
DWIDTH 27 0
BBX 22 32 3 0
BITMAP
00F800
07FF00
0FFFC0
1FFFE0
3E01E0
7C00F0
7800F0
780078
700078
700078
780070
7800F0
3C00F0
3E01E0
1FFFC0
07FF80
0FFFC0
3E03E0
7C00F0
780078
F00078
F0003C
E0003C
E0003C
F0003C
F0007C
F00078
7800F8
7E03F0
3FFFE0
1FFFC0
07FF00
ENDCHAR
STARTCHAR 0039
ENCODING 57
SWIDTH 585 0
DWIDTH 26 0
BBX 21 32 3 0
BITMAP
00F000
07FE00
1FFF80
3FFFC0
7C03E0
7801E0
F000F0
F000F0
E00070
E00078
E00078
E00078
E00078
F000F8
F000F0
7801F0
7C03F0
3F8FE0
1FFEE0
0FFDE0
00E3C0
000380
000780
000F00
001F00
001E00
003C00
007C00
007800
00F000
01F000
01E000
ENDCHAR
STARTCHAR 003A
ENCODING 58
SWIDTH 292 0
DWIDTH 13 0
BBX 5 23 3 0
BITMAP
78
F8
F8
F8
70
00
00
00
00
00
00
00
00
00
00
00
00
00
70
F8
F8
F8
78
ENDCHAR
STARTCHAR 003B
ENCODING 59
SWIDTH 315 0
DWIDTH 14 0
BBX 6 30 4 -7
BITMAP
70
F8
F8
F8
70
00
00
00
00
00
00
00
00
00
00
00
00
00
30
F8
FC
FC
FC
1C
0C
0C
18
38
70
40
ENDCHAR
STARTCHAR 003C
ENCODING 60
SWIDTH 562 0
DWIDTH 25 0
BBX 17 19 4 5
BITMAP
000180
000780
001F80
007F00
01FC00
07F000
1FC000
3F0000
FC0000
F00000
FC0000
3F0000
0FC000
03F000
01FC00
007F00
001F80
000780
000180
ENDCHAR
STARTCHAR 003D
ENCODING 61
SWIDTH 697 0
DWIDTH 31 0
BBX 21 13 5 7
BITMAP
FFFFF8
FFFFF8
FFFFF8
000000
000000
000000
000000
000000
000000
FFFFF8
FFFFF8
FFFFF8
FFFFF8
ENDCHAR
STARTCHAR 003E
ENCODING 62
SWIDTH 562 0
DWIDTH 25 0
BBX 17 19 4 5
BITMAP
E00000
F00000
FC0000
7F0000
1FC000
07F000
01FC00
007F00
001F80
000780
001F80
007E00
01F800
07F000
1FC000
7F0000
FC0000
F00000
C00000
ENDCHAR
STARTCHAR 003F
ENCODING 63
SWIDTH 562 0
DWIDTH 25 0
BBX 20 32 3 0
BITMAP
01F800
07FF00
1FFF80
3FFFC0
7E07E0
7801E0
F800F0
F000F0
F000F0
F000F0
0000F0
0000F0
0001E0
0001E0
0003C0
000780
000F00
001E00
003C00
007800
00F800
00F000
00F000
00E000
000000
000000
000000
004000
00F000
01F000
01F000
00E000
ENDCHAR
STARTCHAR 0040
ENCODING 64
SWIDTH 990 0
DWIDTH 44 0
BBX 39 39 3 -7
BITMAP
0000380000
0007FFE000
003FFFF800
00FF87FE00
01F8003F00
03E0000F80
07800003C0
0F000001E0
1E000000F0
1C00000078
3C00000038
3803F9C03C
7807FDC01C
700F9FC01C
701E07C01C
F01C03C00E
E03C01C00E
E03801C00E
E03801C00E
E03801C00E
E03801C00E
E03801C00E
E03C01C01C
F03C03E01C
701C03E038
701F06F078
700FFE7FF0
7807FC3FE0
3801F00F80
3C00000000
1E00000000
1E00000000
0F80000000
07C0000000
03F0000000
01FC000000
007FFFFF00
001FFFFF00
0007FFFF00
ENDCHAR
STARTCHAR 0041
ENCODING 65
SWIDTH 675 0
DWIDTH 30 0
BBX 27 31 2 0
BITMAP
001E0000
001F0000
003F0000
003F0000
003F8000
007F8000
00738000
00F3C000
00F1C000
00E1E000
01E1E000
01E0E000
01C0F000
03C0F000
03807000
07807800
07807800
07003C00
0F003C00
0FFFFC00
0FFFFE00
1FFFFE00
1E000E00
3C000F00
3C000F00
3C000780
78000780
78000380
700003C0
F00003C0
F00001E0
ENDCHAR
STARTCHAR 0042
ENCODING 66
SWIDTH 607 0
DWIDTH 27 0
BBX 23 31 3 0
BITMAP
FFFF80
FFFFC0
FFFFF0
F003F0
F000F8
F00078
F00038
F0003C
F0003C
F00038
F00078
F00078
F000F0
F00FE0
FFFF80
FFFFE0
FFFFF0
F00078
F0003C
F0001E
F0001E
F0001E
F0001E
F0001E
F0001E
F0003C
F0007C
F001F8
FFFFF0
FFFFE0
FFFF80
ENDCHAR
STARTCHAR 0043
ENCODING 67
SWIDTH 697 0
DWIDTH 31 0
BBX 28 32 2 0
BITMAP
000F8000
00FFF800
01FFFC00
07FFFE00
0FC03F00
0F800F80
1F0007C0
3E0003C0
3C0001E0
7C0001E0
780000F0
78000000
78000000
78000000
F8000000
F0000000
F0000000
F8000000
78000000
78000000
78000000
78000000
780001E0
3C0001E0
3C0001E0
1E0003C0
1F0007C0
0F801F80
07F07F00
03FFFE00
01FFF800
007FE000
ENDCHAR
STARTCHAR 0044
ENCODING 68
SWIDTH 675 0
DWIDTH 30 0
BBX 26 31 3 0
BITMAP
FFFF0000
FFFFE000
FFFFF000
F007F800
F000FC00
F0003E00
F0001F00
F0001F00
F0000F00
F0000780
F0000780
F0000780
F0000780
F0000780
F00003C0
F00003C0
F00007C0
F0000780
F0000780
F0000780
F0000780
F0000F80
F0000F00
F0001F00
F0001E00
F0007E00
F000FC00
FFFFF800
FFFFF000
FFFFC000
FFFF0000
ENDCHAR
STARTCHAR 0045
ENCODING 69
SWIDTH 562 0
DWIDTH 25 0
BBX 19 31 3 0
BITMAP
FFFFE0
FFFFE0
FFFFE0
F00000
F00000
F00000
F00000
F00000
F00000
F00000
F00000
F00000
F00000
F00000
FFFFC0
FFFFC0
FFFFC0
F00000
F00000
F00000
F00000
F00000
F00000
F00000
F00000
F00000
F00000
F00000
FFFFE0
FFFFE0
FFFFE0
ENDCHAR
STARTCHAR 0046
ENCODING 70
SWIDTH 495 0
DWIDTH 22 0
BBX 19 31 3 0
BITMAP
FFFFE0
FFFFE0
FFFFE0
F00000
F00000
F00000
F00000
F00000
F00000
F00000
F00000
F00000
F00000
F00000
FFFF80
FFFF80
FFFF80
F00000
F00000
F00000
F00000
F00000
F00000
F00000
F00000
F00000
F00000
F00000
F00000
F00000
F00000
ENDCHAR
STARTCHAR 0047
ENCODING 71
SWIDTH 697 0
DWIDTH 31 0
BBX 27 32 2 0
BITMAP
001F8000
00FFF000
03FFFC00
07FFFE00
0FC03F00
1F000F80
1E000780
3E0003C0
3C0003C0
780001E0
78000000
78000000
78000000
70000000
F0000000
F0000000
F001FFE0
F001FFE0
F001FFE0
700001E0
780001E0
780001E0
780001E0
3C0001E0
3C0003E0
3E0003E0
1F0007E0
0F800EE0
07E03EE0
03FFFCE0
01FFF0E0
007FE0E0
ENDCHAR
STARTCHAR 0048
ENCODING 72
SWIDTH 675 0
DWIDTH 30 0
BBX 24 31 3 0
BITMAP
F0000F
F0000F
F0000F
F0000F
F0000F
F0000F
F0000F
F0000F
F0000F
F0000F
F0000F
F0000F
F0000F
F0000F
FFFFFF
FFFFFF
FFFFFF
F0000F
F0000F
F0000F
F0000F
F0000F
F0000F
F0000F
F0000F
F0000F
F0000F
F0000F
F0000F
F0000F
F0000F
ENDCHAR
STARTCHAR 0049
ENCODING 73
SWIDTH 225 0
DWIDTH 10 0
BBX 4 31 3 0
BITMAP
F0
F0
F0
F0
F0
F0
F0
F0
F0
F0
F0
F0
F0
F0
F0
F0
F0
F0
F0
F0
F0
F0
F0
F0
F0
F0
F0
F0
F0
F0
F0
ENDCHAR
STARTCHAR 004A
ENCODING 74
SWIDTH 337 0
DWIDTH 15 0
BBX 10 31 2 0
BITMAP
03C0
03C0
03C0
03C0
03C0
03C0
03C0
03C0
03C0
03C0
03C0
03C0
03C0
03C0
03C0
03C0
03C0
03C0
03C0
03C0
03C0
03C0
03C0
03C0
03C0
03C0
0780
0780
FF80
FF00
FE00
ENDCHAR
STARTCHAR 004B
ENCODING 75
SWIDTH 607 0
DWIDTH 27 0
BBX 22 31 3 0
BITMAP
F000F8
F001F0
F003E0
F007C0
F00F80
F00F00
F01E00
F03C00
F07800
F0F800
F1F000
F3E000
F7C000
FF8000
FFC000
FFE000
FDE000
F8F000
F0F800
F07C00
F03C00
F01E00
F01F00
F00F80
F00780
F003C0
F003E0
F001F0
F000F0
F00078
F0007C
ENDCHAR
STARTCHAR 004C
ENCODING 76
SWIDTH 517 0
DWIDTH 23 0
BBX 19 31 3 0
BITMAP
F00000
F00000
F00000
F00000
F00000
F00000
F00000
F00000
F00000
F00000
F00000
F00000
F00000
F00000
F00000
F00000
F00000
F00000
F00000
F00000
F00000
F00000
F00000
F00000
F00000
F00000
F00000
F00000
FFFFE0
FFFFE0
FFFFE0
ENDCHAR
STARTCHAR 004D
ENCODING 77
SWIDTH 810 0
DWIDTH 36 0
BBX 30 31 3 0
BITMAP
FC0000FC
FE0000FC
FE0000FC
FE0001FC
FF0001FC
FF0003FC
F78003FC
F78003FC
F78007BC
F3C007BC
F3C00FBC
F3C00F3C
F1E00F3C
F1E01E3C
F0F01E3C
F0F01E3C
F0F03C3C
F0783C3C
F078783C
F03C783C
F03C783C
F03CF03C
F01EF03C
F01FF03C
F01FE03C
F00FE03C
F00FC03C
F007C03C
F007C03C
F007803C
F003803C
ENDCHAR
STARTCHAR 004E
ENCODING 78
SWIDTH 697 0
DWIDTH 31 0
BBX 25 31 3 0
BITMAP
F8000780
FC000780
FC000780
FE000780
FF000780
FF000780
FF800780
F7C00780
F3C00780
F3E00780
F1F00780
F0F00780
F0F80780
F07C0780
F03C0780
F03E0780
F01F0780
F00F0780
F00F8780
F007C780
F003C780
F003E780
F001F780
F000F780
F0007F80
F0007F80
F0003F80
F0001F80
F0001F80
F0000F80
F0000780
ENDCHAR
STARTCHAR 004F
ENCODING 79
SWIDTH 720 0
DWIDTH 32 0
BBX 28 32 2 0
BITMAP
001F8000
00FFF000
03FFFC00
07FFFE00
0FE03F00
1F800F80
1F0007C0
3E0003C0
3C0003E0
7C0001E0
780001F0
780000F0
780000F0
F80000F0
F00000F0
F00000F0
F00000F0
F00000F0
F00000F0
F80000F0
780000F0
780000F0
780001E0
7C0001E0
3C0003E0
3E0007C0
1F000FC0
0FC01F80
07F8FF00
03FFFE00
01FFFC00
007FE000
ENDCHAR
STARTCHAR 0050
ENCODING 80
SWIDTH 585 0
DWIDTH 26 0
BBX 22 31 3 0
BITMAP
FFFE00
FFFF80
FFFFE0
F01FF0
F001F0
F000F8
F00078
F00038
F0003C
F0003C
F0003C
F0003C
F00038
F00078
F00078
F000F0
F007F0
FFFFE0
FFFFC0
FFFF00
F00000
F00000
F00000
F00000
F00000
F00000
F00000
F00000
F00000
F00000
F00000
ENDCHAR
STARTCHAR 0051
ENCODING 81
SWIDTH 720 0
DWIDTH 32 0
BBX 28 34 2 -2
BITMAP
001F8000
00FFF000
03FFFC00
07FFFE00
0FE03F00
1F800F80
1F0007C0
3E0003C0
3C0003E0
7C0001E0
780001F0
780000F0
780000F0
F80000F0
F00000F0
F00000F0
F00000F0
F00000F0
F00000F0
F80000F0
780700F0
780380F0
7803C1E0
7C01E1E0
3C00F3E0
3E0077C0
1F007FC0
0FC03F80
07F87F00
03FFFF00
01FFFF00
007FE780
000003C0
000001E0
ENDCHAR
STARTCHAR 0052
ENCODING 82
SWIDTH 585 0
DWIDTH 26 0
BBX 22 31 3 0
BITMAP
FFFE00
FFFF80
FFFFE0
F00FF0
F001F0
F00078
F00078
F00038
F0003C
F0003C
F0003C
F00038
F00078
F000F8
F001F0
FFFFE0
FFFFC0
FFFF80
FFFC00
F03C00
F01E00
F00F00
F00F00
F00780
F007C0
F003C0
F001E0
F001F0
F000F0
F00078
F0007C
ENDCHAR
STARTCHAR 0053
ENCODING 83
SWIDTH 585 0
DWIDTH 26 0
BBX 22 32 2 0
BITMAP
007C00
03FF80
0FFFC0
1FFFF0
3F01F0
3C00F8
7C0078
78007C
78003C
78003C
780000
7C0000
3E0000
3F0000
1FF800
0FFF80
03FFE0
003FF0
0001F8
00007C
00003C
00003C
F8003C
F8003C
78003C
78003C
7C007C
3E00F8
1F83F8
0FFFF0
07FFE0
01FF80
ENDCHAR
STARTCHAR 0054
ENCODING 84
SWIDTH 585 0
DWIDTH 26 0
BBX 22 31 2 0
BITMAP
FFFFFC
FFFFFC
FFFFFC
007800
007800
007800
007800
007800
007800
007800
007800
007800
007800
007800
007800
007800
007800
007800
007800
007800
007800
007800
007800
007800
007800
007800
007800
007800
007800
007800
007800
ENDCHAR
STARTCHAR 0055
ENCODING 85
SWIDTH 675 0
DWIDTH 30 0
BBX 24 31 3 0
BITMAP
F00007
F00007
F00007
F00007
F00007
F00007
F00007
F00007
F00007
F00007
F00007
F00007
F00007
F00007
F00007
F00007
F00007
F00007
F00007
F00007
F0000F
F0000F
F8000F
78001F
78001E
3C003E
3E007C
1FC1F8
0FFFF8
07FFE0
01FF80
ENDCHAR
STARTCHAR 0056
ENCODING 86
SWIDTH 630 0
DWIDTH 28 0
BBX 26 31 1 0
BITMAP
F00003C0
F00003C0
700003C0
78000780
78000780
38000780
3C000F00
3C000F00
1E000F00
1E001E00
1E001E00
0F001E00
0F003C00
0F003C00
07803800
07807800
07807800
03C07000
03C0F000
03C0F000
01E1E000
01E1E000
01E1E000
00F3C000
00F3C000
0073C000
007F8000
007F8000
003F8000
003F0000
003F0000
ENDCHAR
STARTCHAR 0057
ENCODING 87
SWIDTH 990 0
DWIDTH 44 0
BBX 42 31 1 0
BITMAP
F0001E0003C0
F0001E0003C0
F0003F0003C0
70003F0003C0
78003F000780
78007F800780
78007F800780
38007F800700
3C00F3C00F00
3C00F3C00F00
3C00F3C00F00
1E00E1E00E00
1E01E1E01E00
1E01E1E01E00
0E01C0F01E00
0F03C0F01C00
0F03C0F03C00
0F0380783C00
070780783800
078780787800
078700387800
078F003C7800
038F003C7000
03CE001CF000
03DE001EF000
03DE001EF000
01FE000FE000
01FC000FE000
01FC000FE000
00FC0007E000
00F80007C000
ENDCHAR
STARTCHAR 0058
ENCODING 88
SWIDTH 652 0
DWIDTH 29 0
BBX 25 31 2 0
BITMAP
F8000780
78000F00
3C000F00
3C001E00
1E003E00
0F003C00
0F007800
0780F800
03C0F000
03C1E000
01E3E000
01F3C000
00F78000
007F8000
007F0000
003E0000
007F0000
007F8000
00F78000
01F3C000
01E3E000
03C1E000
07C0F000
0780F800
0F007800
1F003C00
1E003E00
3C001E00
7C000F00
78000F80
F0000780
ENDCHAR
STARTCHAR 0059
ENCODING 89
SWIDTH 607 0
DWIDTH 27 0
BBX 23 31 2 0
BITMAP
F0001E
F0001E
78003C
78003C
3C0078
3C0078
1E00F0
1E00F0
0F01E0
0F01E0
0783C0
0783C0
03C780
03C780
01EF00
01FF00
00FE00
00FE00
007C00
003C00
003C00
003C00
003C00
003C00
003C00
003C00
003C00
003C00
003C00
003C00
003C00
ENDCHAR
STARTCHAR 005A
ENCODING 90
SWIDTH 607 0
DWIDTH 27 0
BBX 22 31 2 0
BITMAP
FFFFFC
FFFFFC
FFFFFC
00003C
00007C
0000F8
0001F0
0001E0
0003E0
0007C0
000780
000F00
001F00
003E00
003C00
007C00
00F800
01F000
01E000
03E000
07C000
078000
0F8000
1F0000
3E0000
3C0000
7C0000
FFFFFC
FFFFFC
FFFFFC
FFFFFC
ENDCHAR
STARTCHAR 005B
ENCODING 91
SWIDTH 427 0
DWIDTH 19 0
BBX 12 44 4 -8
BITMAP
FFF0
FFF0
FFF0
E000
E000
E000
E000
E000
E000
E000
E000
E000
E000
E000
E000
E000
E000
E000
E000
E000
E000
E000
E000
E000
E000
E000
E000
E000
E000
E000
E000
E000
E000
E000
E000
E000
E000
E000
E000
E000
E000
FFF0
FFF0
FFF0
ENDCHAR
STARTCHAR 005C
ENCODING 92
SWIDTH 495 0
DWIDTH 22 0
BBX 19 43 1 -7
BITMAP
F00000
700000
780000
780000
380000
3C0000
3C0000
1C0000
1E0000
1E0000
0F0000
0F0000
070000
078000
078000
038000
03C000
03C000
01C000
01E000
01E000
00F000
00F000
007000
007800
007800
003800
003C00
003C00
001C00
001E00
001E00
000E00
000F00
000700
000780
000780
000380
0003C0
0003C0
0001C0
0001E0
0001E0
ENDCHAR
STARTCHAR 005D
ENCODING 93
SWIDTH 427 0
DWIDTH 19 0
BBX 13 44 3 -8
BITMAP
FFF8
FFF8
FFF8
0038
0038
0038
0038
0038
0038
0038
0038
0038
0038
0038
0038
0038
0038
0038
0038
0038
0038
0038
0038
0038
0038
0038
0038
0038
0038
0038
0038
0038
0038
0038
0038
0038
0038
0038
0038
0038
0038
FFF8
FFF8
FFF8
ENDCHAR
STARTCHAR 005E
ENCODING 94
SWIDTH 405 0
DWIDTH 18 0
BBX 16 9 1 25
BITMAP
03C0
07E0
07F0
0F78
1E38
3C3C
381E
780F
F00F
ENDCHAR
STARTCHAR 005F
ENCODING 95
SWIDTH 697 0
DWIDTH 31 0
BBX 21 3 5 0
BITMAP
FFFFF8
FFFFF8
FFFFF8
ENDCHAR
STARTCHAR 0060
ENCODING 96
SWIDTH 247 0
DWIDTH 11 0
BBX 8 8 1 28
BITMAP
F0
78
3C
3C
1E
0E
0F
07
ENDCHAR
STARTCHAR 0061
ENCODING 97
SWIDTH 607 0
DWIDTH 27 0
BBX 22 24 2 0
BITMAP
01F800
07FE3C
0FFF3C
1F87BC
3E01FC
7C00FC
78007C
78007C
F0003C
F0003C
F0003C
F0003C
F0003C
F0003C
F0003C
F0003C
78007C
78007C
7C00FC
3E01FC
3F03BC
1FFF3C
0FFE3C
03FC3C
ENDCHAR
STARTCHAR 0062
ENCODING 98
SWIDTH 607 0
DWIDTH 27 0
BBX 22 33 3 0
BITMAP
F00000
F00000
F00000
F00000
F00000
F00000
F00000
F00000
F00000
F07F00
F1FFC0
F3FFE0
F7C7F0
F601F0
FC00F8
FC0078
F8007C
F8003C
F0003C
F0003C
F0003C
F0003C
F0003C
F0003C
F8003C
F8003C
F80078
FC0078
F600F8
F783F0
F3FFE0
F1FFC0
F07F00
ENDCHAR
STARTCHAR 0063
ENCODING 99
SWIDTH 562 0
DWIDTH 25 0
BBX 22 24 2 0
BITMAP
00FE00
07FF80
0FFFC0
1F87E0
3E01F0
3C00F8
780078
780078
780038
F00000
F00000
F00000
F00000
F00000
F00000
78003C
780038
780078
3C0078
3E00F0
1F03F0
0FFFE0
07FF80
01FF00
ENDCHAR
STARTCHAR 0064
ENCODING 100
SWIDTH 607 0
DWIDTH 27 0
BBX 22 33 2 0
BITMAP
00003C
00003C
00003C
00003C
00003C
00003C
00003C
00003C
00003C
01F83C
07FE3C
0FFF3C
1F87BC
3E01FC
7C00FC
78007C
78007C
F8003C
F0003C
F0003C
F0003C
F0003C
F0003C
F0003C
F0003C
78007C
78007C
7C00FC
3E00FC
3F03BC
1FFF3C
0FFE3C
03FC3C
ENDCHAR
STARTCHAR 0065
ENCODING 101
SWIDTH 562 0
DWIDTH 25 0
BBX 22 24 2 0
BITMAP
00FE00
07FF80
0FFFC0
1F03E0
3E00F0
3C00F0
780078
780078
700038
F00038
F0003C
FFFFFC
FFFFFC
F00000
F00000
700000
780000
780078
3C0078
3E00F0
1F03E0
0FFFE0
07FF80
01FF00
ENDCHAR
STARTCHAR 0066
ENCODING 102
SWIDTH 360 0
DWIDTH 16 0
BBX 13 33 2 0
BITMAP
00F8
07F8
0FF8
0F00
1E00
1E00
1E00
1E00
1E00
1E00
FFF8
FFF8
FFF8
1E00
1E00
1E00
1E00
1E00
1E00
1E00
1E00
1E00
1E00
1E00
1E00
1E00
1E00
1E00
1E00
1E00
1E00
1E00
1E00
ENDCHAR
STARTCHAR 0067
ENCODING 103
SWIDTH 607 0
DWIDTH 27 0
BBX 22 33 2 -9
BITMAP
01FC00
07FE3C
0FFF3C
1F87BC
3E01FC
3C00FC
7C007C
78003C
78003C
F0003C
F0003C
F0003C
F0003C
F0003C
F8003C
78003C
78007C
7C007C
3E00FC
3F01FC
1FFFBC
0FFF3C
03FE3C
00603C
00003C
00003C
00003C
000078
0000F8
0001F0
00FFE0
00FFC0
00FF80
ENDCHAR
STARTCHAR 0068
ENCODING 104
SWIDTH 607 0
DWIDTH 27 0
BBX 21 33 3 0
BITMAP
F00000
F00000
F00000
F00000
F00000
F00000
F00000
F00000
F00000
F07F00
F1FF80
F3FFE0
F7DFE0
F601F0
FC00F0
F800F8
F80078
F00078
F00078
F00078
F00078
F00078
F00078
F00078
F00078
F00078
F00078
F00078
F00078
F00078
F00078
F00078
F00078
ENDCHAR
STARTCHAR 0069
ENCODING 105
SWIDTH 247 0
DWIDTH 11 0
BBX 5 33 3 0
BITMAP
70
F8
F8
F8
70
00
00
00
00
00
70
70
70
70
70
70
70
70
70
70
70
70
70
70
70
70
70
70
70
70
70
70
70
ENDCHAR
STARTCHAR 006A
ENCODING 106
SWIDTH 247 0
DWIDTH 11 0
BBX 10 43 -2 -10
BITMAP
0180
03C0
07C0
07C0
03C0
0000
0000
0000
0000
03C0
03C0
03C0
03C0
03C0
03C0
03C0
03C0
03C0
03C0
03C0
03C0
03C0
03C0
03C0
03C0
03C0
03C0
03C0
03C0
03C0
03C0
03C0
03C0
03C0
03C0
03C0
03C0
03C0
0780
0F80
FF80
FF00
7800
ENDCHAR
STARTCHAR 006B
ENCODING 107
SWIDTH 495 0
DWIDTH 22 0
BBX 18 33 3 0
BITMAP
F00000
F00000
F00000
F00000
F00000
F00000
F00000
F00000
F00000
F00000
F00F80
F01F00
F03E00
F07C00
F0F800
F1F000
F3E000
F7C000
FF8000
FF0000
FF0000
FF8000
F78000
F3C000
F1E000
F0F000
F0F800
F07C00
F03C00
F01E00
F00F00
F00780
F007C0
ENDCHAR
STARTCHAR 006C
ENCODING 108
SWIDTH 292 0
DWIDTH 13 0
BBX 9 33 3 0
BITMAP
F000
F000
F000
F000
F000
F000
F000
F000
F000
F000
F000
F000
F000
F000
F000
F000
F000
F000
F000
F000
F000
F000
F000
F000
F000
F000
F000
F000
7000
7800
7F80
7F80
1F80
ENDCHAR
STARTCHAR 006D
ENCODING 109
SWIDTH 945 0
DWIDTH 42 0
BBX 37 24 3 0
BITMAP
007E007E00
F1FF81FF80
F3FFC3FFC0
F7DFE7FFE0
F603EE03E0
FC01FC01F0
F800F800F0
F800F800F0
F000F00070
F000700078
F000700078
F000700078
F000700078
F000700078
F000700078
F000700078
F000700078
F000700078
F000700078
F000700078
F000700078
F000700078
F000700078
F000700078
ENDCHAR
STARTCHAR 006E
ENCODING 110
SWIDTH 607 0
DWIDTH 27 0
BBX 21 24 3 0
BITMAP
007F00
F1FF80
F3FFE0
F7CFE0
F601F0
FC00F0
F800F8
F80078
F00078
F00078
F00078
F00078
F00078
F00078
F00078
F00078
F00078
F00078
F00078
F00078
F00078
F00078
F00078
F00078
ENDCHAR
STARTCHAR 006F
ENCODING 111
SWIDTH 585 0
DWIDTH 26 0
BBX 22 24 2 0
BITMAP
00FE00
07FF80
0FFFC0
1F87E0
3E01F0
3C00F8
7C0078
780078
78003C
F0003C
F0003C
F0003C
F0003C
F0003C
F0003C
78003C
78003C
780078
3C00F8
3E01F0
1F83E0
0FFFE0
07FF80
01FF00
ENDCHAR
STARTCHAR 0070
ENCODING 112
SWIDTH 607 0
DWIDTH 27 0
BBX 22 33 3 -9
BITMAP
007F00
F1FFC0
F3FFE0
F7C7F0
F601F0
FC00F8
FC0078
F8007C
F8003C
F0003C
F0003C
F0003C
F0003C
F0003C
F0003C
F8003C
F8003C
F80078
FC0078
F600F8
F783F0
F3FFE0
F1FFC0
F07F00
F00000
F00000
F00000
F00000
F00000
F00000
F00000
F00000
F00000
ENDCHAR
STARTCHAR 0071
ENCODING 113
SWIDTH 607 0
DWIDTH 27 0
BBX 22 33 2 -9
BITMAP
01FC00
07FE3C
0FFF3C
1FC7BC
3E01FC
3C00FC
7C007C
78007C
78003C
F8003C
F0003C
F0003C
F0003C
F0003C
F0003C
78003C
78003C
78007C
3C007C
3E00FC
1F83BC
1FFFBC
07FF3C
03FC3C
00003C
00003C
00003C
00003C
00003C
00003C
00003C
00003C
00003C
ENDCHAR
STARTCHAR 0072
ENCODING 114
SWIDTH 337 0
DWIDTH 15 0
BBX 12 23 3 0
BITMAP
F1F0
F7F0
F7F0
FF00
FC00
F800
F000
F000
F000
F000
F000
F000
F000
F000
F000
F000
F000
F000
F000
F000
F000
F000
F000
ENDCHAR
STARTCHAR 0073
ENCODING 115
SWIDTH 495 0
DWIDTH 22 0
BBX 18 24 2 0
BITMAP
07F800
1FFE00
3FFF00
7C1F80
780780
700780
7003C0
700000
780000
7C0000
3FC000
1FFC00
07FF00
007F80
0007C0
0003C0
F003C0
F003C0
F803C0
7803C0
7E0F80
3FFF80
1FFE00
07FC00
ENDCHAR
STARTCHAR 0074
ENCODING 116
SWIDTH 382 0
DWIDTH 17 0
BBX 14 31 1 0
BITMAP
0780
0780
0780
0780
0780
0780
0780
0780
FFFC
FFFC
FFFC
0780
0780
0780
0780
0780
0780
0780
0780
0780
0780
0780
0780
0780
0780
0780
0780
0780
07FC
03FC
01FC
ENDCHAR
STARTCHAR 0075
ENCODING 117
SWIDTH 585 0
DWIDTH 26 0
BBX 21 23 3 0
BITMAP
F00078
F00078
F00078
F00078
F00078
F00078
F00078
F00078
F00078
F00078
F00078
F00078
F00078
F00078
F00078
F000F8
7800F8
7800F8
7C01F8
3F0778
1FFE78
1FFC78
07F878
ENDCHAR
STARTCHAR 0076
ENCODING 118
SWIDTH 540 0
DWIDTH 24 0
BBX 21 23 2 0
BITMAP
E00078
F00070
F000F0
7800F0
7800E0
3801E0
3C01E0
3C01C0
1C03C0
1E03C0
1E0780
0E0780
0F0700
0F0F00
078F00
078E00
039E00
03DE00
03DC00
01FC00
01FC00
01F800
00F800
ENDCHAR
STARTCHAR 0077
ENCODING 119
SWIDTH 810 0
DWIDTH 36 0
BBX 33 23 2 0
BITMAP
E003C00780
F003C00700
F003E00F00
7007E00F00
7007E00F00
7807F00E00
780F701E00
380F701E00
3C0E781C00
3C1E781C00
3C1E383C00
1C1C3C3C00
1E3C3C3800
1E3C1C3800
0E381E7800
0E381E7800
0F780E7000
0F780EF000
07700FF000
07F00FE000
07F007E000
03E007E000
03E007E000
ENDCHAR
STARTCHAR 0078
ENCODING 120
SWIDTH 540 0
DWIDTH 24 0
BBX 20 23 2 0
BITMAP
F001F0
7801E0
7C03C0
3C07C0
1E0780
1F0F00
0F0F00
079E00
07BC00
03FC00
01F800
01F800
03F800
03FC00
079E00
0F9E00
0F0F00
1E0F80
3E0780
3C03C0
7803E0
F801E0
F000F0
ENDCHAR
STARTCHAR 0079
ENCODING 121
SWIDTH 517 0
DWIDTH 23 0
BBX 21 32 2 -9
BITMAP
F00078
F000F0
F000F0
7801E0
7801E0
3801E0
3C03C0
3C03C0
1E0380
1E0780
0E0700
0F0F00
0F0F00
070E00
079E00
079C00
039C00
03FC00
01F800
01F800
01F000
00F000
00F000
01E000
01E000
03C000
03C000
078000
0F8000
FF0000
FE0000
FC0000
ENDCHAR
STARTCHAR 007A
ENCODING 122
SWIDTH 495 0
DWIDTH 22 0
BBX 18 23 2 0
BITMAP
7FFFC0
7FFFC0
7FFFC0
0007C0
000780
000F00
001E00
003C00
007C00
007800
00F000
01E000
03C000
07C000
078000
0F0000
1E0000
3C0000
7C0000
780000
FFFFC0
FFFFC0
FFFFC0
ENDCHAR
STARTCHAR 007B
ENCODING 123
SWIDTH 450 0
DWIDTH 20 0
BBX 14 47 4 -10
BITMAP
01FC
03FC
07FC
0700
0F00
0F00
0E00
0E00
0E00
0E00
0E00
0E00
0E00
0E00
0E00
0E00
0E00
0E00
0E00
0E00
0E00
0E00
FC00
F800
1E00
0E00
0E00
0E00
0E00
0E00
0E00
0E00
0E00
0E00
0E00
0E00
0E00
0E00
0E00
0E00
0E00
0F00
0F00
0780
07FC
03FC
003C
ENDCHAR
STARTCHAR 007C
ENCODING 124
SWIDTH 270 0
DWIDTH 12 0
BBX 3 53 5 -11
BITMAP
E0
E0
E0
E0
E0
E0
E0
E0
E0
E0
E0
E0
E0
E0
E0
E0
E0
E0
E0
E0
E0
E0
E0
E0
E0
E0
E0
E0
E0
E0
E0
E0
E0
E0
E0
E0
E0
E0
E0
E0
E0
E0
E0
E0
E0
E0
E0
E0
E0
E0
E0
E0
E0
ENDCHAR
STARTCHAR 007D
ENCODING 125
SWIDTH 450 0
DWIDTH 20 0
BBX 14 47 5 -10
BITMAP
FE00
FF80
FF80
03C0
03C0
01C0
01C0
01C0
01C0
01C0
01C0
01C0
01C0
01C0
01C0
01C0
01C0
01C0
01C0
01C0
01C0
01C0
00FC
007C
01F0
01C0
01C0
01C0
01C0
01C0
01C0
01C0
01C0
01C0
01C0
01C0
01C0
01C0
01C0
01C0
01C0
01C0
03C0
0780
FF80
FF00
F000
ENDCHAR
STARTCHAR 007E
ENCODING 126
SWIDTH 562 0
DWIDTH 25 0
BBX 17 4 4 15
BITMAP
3F8380
7FE700
73FF00
E07E00
ENDCHAR
STARTCHAR 00A0
ENCODING 160
SWIDTH 225 0
DWIDTH 10 0
BBX 0 0 0 0
BITMAP
ENDCHAR
STARTCHAR 00A1
ENCODING 161
SWIDTH 225 0
DWIDTH 10 0
BBX 5 34 3 -11
BITMAP
70
F8
F8
F8
70
00
00
00
00
70
70
70
70
70
70
70
70
70
70
70
70
70
70
70
F0
F0
F0
F0
F8
F8
F8
F8
F8
F8
ENDCHAR
STARTCHAR 00A2
ENCODING 162
SWIDTH 585 0
DWIDTH 26 0
BBX 22 30 2 -3
BITMAP
003000
003000
003000
00FE00
07FF80
0FFFC0
1FB7E0
3E31F0
3C30F8
783078
783078
783038
F03000
F03000
F03000
F03000
F03000
F03000
78303C
783038
783078
3C3078
3E30F0
1F33E0
0FFFE0
07FF80
01FF00
003000
003000
003000
ENDCHAR
STARTCHAR 00A3
ENCODING 163
SWIDTH 585 0
DWIDTH 26 0
BBX 22 32 2 0
BITMAP
007800
07FF80
0FFFC0
1FFFE0
3F01F0
3E00F8
3C00F8
7C0078
7C0078
7C0078
7C0000
3C0000
3E0000
1E0000
1F0000
0F8000
0F8000
07C000
FFFF80
FFFF80
03C000
01C000
01C000
01C000
03C000
038000
070000
0E0000
3C0000
FFFFFC
FFFFFC
FFFFFC
ENDCHAR
STARTCHAR 00A4
ENCODING 164
SWIDTH 585 0
DWIDTH 26 0
BBX 20 20 3 6
BITMAP
600060
F3FCF0
7FFFE0
3FFFC0
3E07C0
3801C0
7801E0
7000E0
7000E0
F00070
E00070
7000E0
7000E0
7000E0
3801E0
3C03C0
3F0FC0
7FFFE0
F7FEF0
60F060
ENDCHAR
STARTCHAR 00A5
ENCODING 165
SWIDTH 607 0
DWIDTH 27 0
BBX 23 31 2 0
BITMAP
F0001E
F0001E
78003C
78003C
3C0078
3C0078
1E00F0
1E00F0
0F01E0
0F01E0
0783C0
0783C0
03C780
03C780
01EF00
01FF00
00FE00
00FE00
1FFFF0
1FFFF0
003C00
003C00
003C00
1FFFF0
1FFFF0
003C00
003C00
003C00
003C00
003C00
003C00
ENDCHAR
STARTCHAR 00A6
ENCODING 166
SWIDTH 270 0
DWIDTH 12 0
BBX 3 53 5 -11
BITMAP
E0
E0
E0
E0
E0
E0
E0
E0
E0
E0
E0
E0
E0
E0
E0
E0
E0
E0
E0
E0
E0
E0
E0
00
00
00
00
00
00
00
00
E0
E0
E0
E0
E0
E0
E0
E0
E0
E0
E0
E0
E0
E0
E0
E0
E0
E0
E0
E0
E0
E0
ENDCHAR
STARTCHAR 00A7
ENCODING 167
SWIDTH 540 0
DWIDTH 24 0
BBX 20 32 2 0
BITMAP
01F000
07FE00
1FFF80
3F0FC0
3C03C0
3803E0
3801E0
380000
3C0000
3F0000
1FFC00
1FFF80
7EFFC0
7807E0
F001F0
F000F0
F000F0
7800F0
7E00F0
3FF1F0
1FFFE0
03FF80
003FC0
0003E0
0001E0
7801E0
7801E0
7C01E0
3E07E0
1FFFC0
0FFF80
03FE00
ENDCHAR
STARTCHAR 00A8
ENCODING 168
SWIDTH 360 0
DWIDTH 16 0
BBX 14 5 1 28
BITMAP
3018
787C
F87C
787C
7838
ENDCHAR
STARTCHAR 00A9
ENCODING 169
SWIDTH 810 0
DWIDTH 36 0
BBX 32 32 2 0
BITMAP
0007E000
007FFE00
01FFFF80
03F00FC0
078001E0
0F0000F0
1E000038
3C07F03C
381FF81C
703F7E0E
70700E0E
60E00706
E0E00387
E1C00387
E1C00007
E1C00007
E1C00007
E1C00007
E1C00007
E0C00387
E0E00307
70F0070E
70780E0E
783FFC0C
381FF81C
1C03C038
1E000078
0F0000F0
07C003E0
03F81FC0
00FFFF00
003FFC00
ENDCHAR
STARTCHAR 00AA
ENCODING 170
SWIDTH 135 0
DWIDTH 6 0
BBX 6 7 0 17
BITMAP
20
7C
CC
C4
CC
7C
7C
ENDCHAR
STARTCHAR 00AB
ENCODING 171
SWIDTH 630 0
DWIDTH 28 0
BBX 24 18 2 5
BITMAP
00F00F
01E01E
03C03C
078078
0F00F0
1E01E0
3C03C0
780780
F00F00
F00F00
780780
3C03C0
1E01E0
0F00F0
078078
03C03C
01E01E
00F00F
ENDCHAR
STARTCHAR 00AC
ENCODING 172
SWIDTH 652 0
DWIDTH 29 0
BBX 22 12 4 12
BITMAP
FFFFFC
FFFFFC
FFFFFC
FFFFFC
00003C
00003C
00003C
00003C
00003C
00003C
00003C
00003C
ENDCHAR
STARTCHAR 00AD
ENCODING 173
SWIDTH 585 0
DWIDTH 26 0
BBX 17 3 5 12
BITMAP
FFFF80
FFFF80
FFFF80
ENDCHAR
STARTCHAR 00AE
ENCODING 174
SWIDTH 337 0
DWIDTH 15 0
BBX 11 11 2 20
BITMAP
1F00
31C0
4040
CF60
8920
8F20
8A20
CB60
6040
39C0
1F00
ENDCHAR
STARTCHAR 00AF
ENCODING 175
SWIDTH 360 0
DWIDTH 16 0
BBX 14 2 1 28
BITMAP
FFFC
FFFC
ENDCHAR
STARTCHAR 00B0
ENCODING 176
SWIDTH 292 0
DWIDTH 13 0
BBX 9 8 2 30
BITMAP
3E00
7F00
6180
C180
E180
6380
7F00
1E00
ENDCHAR
STARTCHAR 00B1
ENCODING 177
SWIDTH 585 0
DWIDTH 26 0
BBX 17 24 5 0
BITMAP
01C000
01C000
01C000
01C000
01C000
01C000
01C000
FFFF80
FFFF80
FFFF80
01C000
01C000
01C000
01C000
01C000
01C000
01C000
000000
000000
000000
000000
FFFF80
FFFF80
FFFF80
ENDCHAR
STARTCHAR 00B2
ENCODING 178
SWIDTH 292 0
DWIDTH 13 0
BBX 11 17 1 17
BITMAP
0F00
3FC0
79C0
60E0
E060
E060
00E0
00E0
01C0
0380
0700
0E00
1C00
3800
7000
FFE0
FFE0
ENDCHAR
STARTCHAR 00B3
ENCODING 179
SWIDTH 315 0
DWIDTH 14 0
BBX 12 17 1 17
BITMAP
0F00
3FC0
79E0
6060
6070
0070
0060
03E0
0780
07C0
0060
0070
0070
E070
70E0
7FE0
3FC0
ENDCHAR
STARTCHAR 00B4
ENCODING 180
SWIDTH 247 0
DWIDTH 11 0
BBX 8 8 2 28
BITMAP
0F
1E
1C
3C
78
70
F0
E0
ENDCHAR
STARTCHAR 00B5
ENCODING 181
SWIDTH 630 0
DWIDTH 28 0
BBX 24 32 3 -9
BITMAP
F001E0
F001E0
F001E0
F001E0
F001E0
F001E0
F001E0
F001E0
F001E0
F001E0
F001E0
F001E0
F001E0
F001E0
F001E0
F001E0
F003E0
F803E0
F807E0
FC0EF0
FFFCFF
EFF8FF
F7F03F
F00000
F00000
F00000
F00000
F00000
F00000
F00000
F00000
F00000
ENDCHAR
STARTCHAR 00B6
ENCODING 182
SWIDTH 517 0
DWIDTH 23 0
BBX 20 31 1 0
BITMAP
07FFF0
1FFFF0
3FFFF0
7FFC70
7FFC70
FFFC70
FFFC70
FFFC70
FFFC70
FFFC70
FFFC70
7FFC70
7FFC70
3FFC70
1FFC70
03FC70
001C70
001C70
001C70
001C70
001C70
001C70
001C70
001C70
001C70
001C70
001C70
001C70
001C70
001C70
001C70
ENDCHAR
STARTCHAR 00B7
ENCODING 183
SWIDTH 270 0
DWIDTH 12 0
BBX 5 5 4 14
BITMAP
70
F8
F8
F8
F0
ENDCHAR
STARTCHAR 00B8
ENCODING 184
SWIDTH 225 0
DWIDTH 10 0
BBX 9 11 1 -11
BITMAP
3000
7000
6000
7E00
FF00
0380
0380
0300
0700
7E00
7C00
ENDCHAR
STARTCHAR 00B9
ENCODING 185
SWIDTH 247 0
DWIDTH 11 0
BBX 9 17 1 17
BITMAP
1C00
3C00
7C00
EC00
CC00
8C00
0C00
0C00
0C00
0C00
0C00
0C00
0C00
0C00
0C00
FF80
FF80
ENDCHAR
STARTCHAR 00BA
ENCODING 186
SWIDTH 157 0
DWIDTH 7 0
BBX 6 7 1 17
BITMAP
30
F8
88
8C
8C
F8
70
ENDCHAR
STARTCHAR 00BB
ENCODING 187
SWIDTH 630 0
DWIDTH 28 0
BBX 24 18 2 5
BITMAP
F80F80
3C03C0
3C03C0
1E01E0
0F00F0
078078
03C03C
01E01E
00F00F
00F00F
01E01E
03C03C
078078
0F00F0
1E01E0
3C03C0
780780
F00F00
ENDCHAR
STARTCHAR 00BC
ENCODING 188
SWIDTH 810 0
DWIDTH 36 0
BBX 32 31 2 0
BITMAP
3C0000E0
7C0001E0
FC0003C0
FC000380
DC000780
9C000700
1C000F00
1C001E00
1C001C00
1C003C00
1C003800
1C007800
1C00F000
FF80E000
FF81E000
0001C01C
0003C03C
0007807C
0007006C
000F00EC
000E00CC
001E018C
003C038C
0038030C
0078060C
007007FF
00F007FF
01E0000C
01C0000C
03C0000C
0380000C
ENDCHAR
STARTCHAR 00BD
ENCODING 189
SWIDTH 832 0
DWIDTH 37 0
BBX 34 31 2 0
BITMAP
3C0000F000
7C0000E000
FC0001E000
FC0001C000
DC0003C000
9C00078000
1C00078000
1C000F0000
1C000E0000
1C001E0000
1C003C0000
1C003C0000
1C00780000
FF80700000
FF80F00000
0001E03E00
0001E07F00
0003C0FF80
000381C380
000781C180
000F01C180
000F000380
001E000380
001C000700
003C000E00
0078003C00
0078007800
00F000F000
00E001E000
01E001FFC0
01C001FFC0
ENDCHAR
STARTCHAR 00BE
ENCODING 190
SWIDTH 832 0
DWIDTH 37 0
BBX 34 31 2 0
BITMAP
3F80007000
7FC000F000
F1C000E000
E0E001E000
00E003C000
00E003C000
03C0078000
0F80070000
0FC00F0000
00C01E0000
00E01E0000
E0E03C0000
E0E0380000
FFC0780000
7FC0F00000
1F00F00F00
0001E00F00
0001C01F00
0003C03F00
0007803700
0007806700
000F00E700
000E00C700
001E018700
003C038700
003C03FFC0
007803FFC0
0070000700
00F0000700
00E0000700
01E0000700
ENDCHAR
STARTCHAR 00BF
ENCODING 191
SWIDTH 562 0
DWIDTH 25 0
BBX 20 32 3 -11
BITMAP
007000
00F800
00F800
00F000
006000
000000
000000
000000
00F000
00F000
00F000
01F000
01E000
03C000
078000
0F0000
1E0000
3C0000
780000
F80000
F00000
F00000
F000F0
F000F0
F000F0
F001F0
F801E0
7C07E0
7FFFC0
3FFF80
0FFF00
03FC00
ENDCHAR
STARTCHAR 00C0
ENCODING 192
SWIDTH 675 0
DWIDTH 30 0
BBX 27 42 2 0
BITMAP
01E00000
01E00000
00F00000
00700000
00780000
00380000
001C0000
001C0000
00000000
00000000
00000000
001E0000
001F0000
003F0000
003F0000
003F8000
007F8000
00738000
00F3C000
00F1C000
00E1E000
01E1E000
01E0E000
01C0F000
03C0F000
03807000
07807800
07807800
07003C00
0F003C00
0FFFFC00
0FFFFE00
1FFFFE00
1E000E00
3C000F00
3C000F00
3C000780
78000780
78000380
700003C0
F00003C0
F00001E0
ENDCHAR
STARTCHAR 00C1
ENCODING 193
SWIDTH 675 0
DWIDTH 30 0
BBX 27 42 2 0
BITMAP
0000F000
0001E000
0001C000
0003C000
00078000
00070000
000F0000
000E0000
00000000
00000000
00000000
001E0000
001F0000
003F0000
003F0000
003F8000
007F8000
00738000
00F3C000
00F1C000
00E1E000
01E1E000
01E0E000
01C0F000
03C0F000
03807000
07807800
07807800
07003C00
0F003C00
0FFFFC00
0FFFFE00
1FFFFE00
1E000E00
3C000F00
3C000F00
3C000780
78000780
78000380
700003C0
F00003C0
F00001E0
ENDCHAR
STARTCHAR 00C2
ENCODING 194
SWIDTH 675 0
DWIDTH 30 0
BBX 27 41 2 0
BITMAP
001E0000
003F0000
003F8000
00738000
00F1C000
01E1E000
03C0F000
00000000
00000000
00000000
001E0000
001F0000
003F0000
003F0000
003F8000
007F8000
00738000
00F3C000
00F1C000
00E1E000
01E1E000
01E0E000
01C0F000
03C0F000
03807000
07807800
07807800
07003C00
0F003C00
0FFFFC00
0FFFFE00
1FFFFE00
1E000E00
3C000F00
3C000F00
3C000780
78000780
78000380
700003C0
F00003C0
F00001E0
ENDCHAR
STARTCHAR 00C3
ENCODING 195
SWIDTH 675 0
DWIDTH 30 0
BBX 27 40 2 0
BITMAP
00F86000
01FC6000
01DFE000
0187C000
01818000
00000000
00000000
00000000
00000000
001E0000
001F0000
003F0000
003F0000
003F8000
007F8000
00738000
00F3C000
00F1C000
00E1E000
01E1E000
01E0E000
01C0F000
03C0F000
03807000
07807800
07807800
07003C00
0F003C00
0FFFFC00
0FFFFE00
1FFFFE00
1E000E00
3C000F00
3C000F00
3C000780
78000780
78000380
700003C0
F00003C0
F00001E0
ENDCHAR
STARTCHAR 00C4
ENCODING 196
SWIDTH 675 0
DWIDTH 30 0
BBX 27 40 2 0
BITMAP
01E0E000
03E1F000
03E1F000
01E1F000
00004000
00000000
00000000
00000000
00000000
001E0000
001F0000
003F0000
003F0000
003F8000
007F8000
00738000
00F3C000
00F1C000
00E1E000
01E1E000
01E0E000
01C0F000
03C0F000
03807000
07807800
07807800
07003C00
0F003C00
0FFFFC00
0FFFFE00
1FFFFE00
1E000E00
3C000F00
3C000F00
3C000780
78000780
78000380
700003C0
F00003C0
F00001E0
ENDCHAR
STARTCHAR 00C5
ENCODING 197
SWIDTH 675 0
DWIDTH 30 0
BBX 27 43 2 0
BITMAP
000C0000
003F0000
00338000
00618000
00618000
00618000
003F0000
001E0000
00000000
00000000
00000000
00000000
001E0000
001F0000
003F0000
003F0000
003F8000
007F8000
00738000
00F3C000
00F1C000
00E1E000
01E1E000
01E0E000
01C0F000
03C0F000
03807000
07807800
07807800
07003C00
0F003C00
0FFFFC00
0FFFFE00
1FFFFE00
1E000E00
3C000F00
3C000F00
3C000780
78000780
78000380
700003C0
F00003C0
F00001E0
ENDCHAR
STARTCHAR 00C6
ENCODING 198
SWIDTH 945 0
DWIDTH 42 0
BBX 39 31 1 0
BITMAP
0000FFFFFE
0000FFFFFE
0001FFFFFE
0001EE0000
0003EE0000
0003CE0000
00078E0000
000F8E0000
000F0E0000
001F0E0000
001E0E0000
003E0E0000
003C0E0000
007C0E0000
00780FFFF8
00F80FFFF8
00F00FFFF8
01E00E0000
01E00E0000
03FFFE0000
07FFFE0000
07FFFE0000
0F800E0000
0F000E0000
1F000E0000
1E000E0000
3E000E0000
3C000E0000
7C000FFFFE
78000FFFFE
F0000FFFFE
ENDCHAR
STARTCHAR 00C7
ENCODING 199
SWIDTH 697 0
DWIDTH 31 0
BBX 28 43 2 -11
BITMAP
000F8000
00FFF800
01FFFC00
07FFFE00
0FC03F00
0F800F80
1F0007C0
3E0003C0
3C0001E0
7C0001E0
780000F0
78000000
78000000
78000000
F8000000
F0000000
F0000000
F8000000
78000000
78000000
78000000
78000000
780001E0
3C0001E0
3C0001E0
1E0003C0
1F0007C0
0F801F80
07F07F00
03FFFE00
01FFFC00
007FE000
00070000
00060000
00078000
000FE000
0000F000
00003000
00003000
00003000
0004F000
0007E000
0007C000
ENDCHAR
STARTCHAR 00C8
ENCODING 200
SWIDTH 562 0
DWIDTH 25 0
BBX 19 42 3 0
BITMAP
1E0000
0F0000
070000
078000
03C000
01C000
01E000
00E000
000000
000000
000000
FFFFE0
FFFFE0
FFFFE0
F00000
F00000
F00000
F00000
F00000
F00000
F00000
F00000
F00000
F00000
F00000
FFFFC0
FFFFC0
FFFFC0
F00000
F00000
F00000
F00000
F00000
F00000
F00000
F00000
F00000
F00000
F00000
FFFFE0
FFFFE0
FFFFE0
ENDCHAR
STARTCHAR 00C9
ENCODING 201
SWIDTH 562 0
DWIDTH 25 0
BBX 19 42 3 0
BITMAP
000F00
000F00
001E00
001C00
003C00
003800
007000
007000
000000
000000
000000
FFFFE0
FFFFE0
FFFFE0
F00000
F00000
F00000
F00000
F00000
F00000
F00000
F00000
F00000
F00000
F00000
FFFFC0
FFFFC0
FFFFC0
F00000
F00000
F00000
F00000
F00000
F00000
F00000
F00000
F00000
F00000
F00000
FFFFE0
FFFFE0
FFFFE0
ENDCHAR
STARTCHAR 00CA
ENCODING 202
SWIDTH 562 0
DWIDTH 25 0
BBX 19 41 3 0
BITMAP
00F000
01F800
03F800
03BC00
071E00
0F0F00
1E0780
000000
000000
000000
FFFFE0
FFFFE0
FFFFE0
F00000
F00000
F00000
F00000
F00000
F00000
F00000
F00000
F00000
F00000
F00000
FFFFC0
FFFFC0
FFFFC0
F00000
F00000
F00000
F00000
F00000
F00000
F00000
F00000
F00000
F00000
F00000
FFFFE0
FFFFE0
FFFFE0
ENDCHAR
STARTCHAR 00CB
ENCODING 203
SWIDTH 562 0
DWIDTH 25 0
BBX 19 40 3 0
BITMAP
0F0F00
1F0F80
1F0F80
0F0F00
040200
000000
000000
000000
000000
FFFFE0
FFFFE0
FFFFE0
F00000
F00000
F00000
F00000
F00000
F00000
F00000
F00000
F00000
F00000
F00000
FFFFC0
FFFFC0
FFFFC0
F00000
F00000
F00000
F00000
F00000
F00000
F00000
F00000
F00000
F00000
F00000
FFFFE0
FFFFE0
FFFFE0
ENDCHAR
STARTCHAR 00CC
ENCODING 204
SWIDTH 225 0
DWIDTH 10 0
BBX 8 42 -1 0
BITMAP
F0
70
78
38
1C
1E
0E
07
00
00
00
0F
0F
0F
0F
0F
0F
0F
0F
0F
0F
0F
0F
0F
0F
0F
0F
0F
0F
0F
0F
0F
0F
0F
0F
0F
0F
0F
0F
0F
0F
0F
ENDCHAR
STARTCHAR 00CD
ENCODING 205
SWIDTH 225 0
DWIDTH 10 0
BBX 9 42 3 0
BITMAP
0780
0F00
0F00
1E00
1C00
3C00
3800
7000
0000
0000
0000
F000
F000
F000
F000
F000
F000
F000
F000
F000
F000
F000
F000
F000
F000
F000
F000
F000
F000
F000
F000
F000
F000
F000
F000
F000
F000
F000
F000
F000
F000
F000
ENDCHAR
STARTCHAR 00CE
ENCODING 206
SWIDTH 225 0
DWIDTH 10 0
BBX 15 41 -2 0
BITMAP
0380
07C0
0FE0
1EF0
3C78
783C
F01E
0000
0000
0000
0780
0780
0780
0780
0780
0780
0780
0780
0780
0780
0780
0780
0780
0780
0780
0780
0780
0780
0780
0780
0780
0780
0780
0780
0780
0780
0780
0780
0780
0780
0780
ENDCHAR
STARTCHAR 00CF
ENCODING 207
SWIDTH 225 0
DWIDTH 10 0
BBX 13 40 -1 0
BITMAP
F078
F8F8
F8F8
F078
0000
0000
0000
0000
0000
0F00
0F00
0F00
0F00
0F00
0F00
0F00
0F00
0F00
0F00
0F00
0F00
0F00
0F00
0F00
0F00
0F00
0F00
0F00
0F00
0F00
0F00
0F00
0F00
0F00
0F00
0F00
0F00
0F00
0F00
0F00
ENDCHAR
STARTCHAR 00D0
ENCODING 208
SWIDTH 697 0
DWIDTH 31 0
BBX 28 31 2 0
BITMAP
1FFFC000
1FFFF000
1FFFFC00
1C03FE00
1C003F00
1C000F80
1C0007C0
1C0003C0
1C0003E0
1C0001E0
1C0001E0
1C0001E0
1C0000F0
1C0000F0
FFF000F0
FFF000F0
1C0000F0
1C0000F0
1C0000F0
1C0001E0
1C0001E0
1C0001E0
1C0003E0
1C0003C0
1C0007C0
1C000F80
1C003F00
1C0FFE00
1FFFFC00
1FFFF000
1FFF8000
ENDCHAR
STARTCHAR 00D1
ENCODING 209
SWIDTH 697 0
DWIDTH 31 0
BBX 25 40 3 0
BITMAP
00F06000
01FC6000
01FFE000
038FC000
03830000
00000000
00000000
00000000
00000000
F8000780
FC000780
FC000780
FE000780
FF000780
FF000780
FF800780
F7C00780
F3C00780
F3E00780
F1F00780
F0F00780
F0F80780
F07C0780
F03C0780
F03E0780
F01F0780
F00F0780
F00F8780
F007C780
F003C780
F003E780
F001F780
F000F780
F0007F80
F0007F80
F0003F80
F0001F80
F0001F80
F0000F80
F0000780
ENDCHAR
STARTCHAR 00D2
ENCODING 210
SWIDTH 720 0
DWIDTH 32 0
BBX 28 42 2 0
BITMAP
00F00000
00F00000
00780000
00380000
003C0000
001E0000
000E0000
000F0000
00000000
00000000
001F8000
00FFF000
03FFFC00
07FFFE00
0FE03F00
1F800F80
1F0007C0
3E0003C0
3C0003E0
7C0001E0
780001F0
780000F0
780000F0
F80000F0
F00000F0
F00000F0
F00000F0
F00000F0
F00000F0
F80000F0
780000F0
780000F0
780001E0
7C0001E0
3C0003E0
3E0007C0
1F000FC0
0FC01F80
07F8FF00
03FFFE00
01FFFC00
007FE000
ENDCHAR
STARTCHAR 00D3
ENCODING 211
SWIDTH 720 0
DWIDTH 32 0
BBX 28 42 2 0
BITMAP
00007800
0000F000
0000F000
0001E000
0001C000
0003C000
00038000
00070000
00000000
00000000
001F8000
00FFF000
03FFFC00
07FFFE00
0FE03F00
1F800F80
1F0007C0
3E0003C0
3C0003E0
7C0001E0
780001F0
780000F0
780000F0
F80000F0
F00000F0
F00000F0
F00000F0
F00000F0
F00000F0
F80000F0
780000F0
780000F0
780001E0
7C0001E0
3C0003E0
3E0007C0
1F000FC0
0FC01F80
07F8FF00
03FFFE00
01FFFC00
007FE000
ENDCHAR
STARTCHAR 00D4
ENCODING 212
SWIDTH 720 0
DWIDTH 32 0
BBX 28 41 2 0
BITMAP
00070000
000F8000
001FC000
003DE000
0078F000
00F07800
01E03800
00000000
00000000
001F8000
00FFF000
03FFFC00
07FFFE00
0FE03F00
1F800F80
1F0007C0
3E0003C0
3C0003E0
7C0001E0
780001F0
780000F0
780000F0
F80000F0
F00000F0
F00000F0
F00000F0
F00000F0
F00000F0
F80000F0
780000F0
780000F0
780001E0
7C0001E0
3C0003E0
3E0007C0
1F000FC0
0FC01F80
07F8FF00
03FFFE00
01FFFC00
007FE000
ENDCHAR
STARTCHAR 00D5
ENCODING 213
SWIDTH 720 0
DWIDTH 32 0
BBX 28 40 2 0
BITMAP
003C3800
007E3800
00FFF000
00C3F000
00C0C000
00000000
00000000
00000000
001F8000
00FFF000
03FFFC00
07FFFE00
0FE03F00
1F800F80
1F0007C0
3E0003C0
3C0003E0
7C0001E0
780001F0
780000F0
780000F0
F80000F0
F00000F0
F00000F0
F00000F0
F00000F0
F00000F0
F80000F0
780000F0
780000F0
780001E0
7C0001E0
3C0003E0
3E0007C0
1F000FC0
0FC01F80
07F8FF00
03FFFE00
01FFFC00
007FE000
ENDCHAR
STARTCHAR 00D6
ENCODING 214
SWIDTH 720 0
DWIDTH 32 0
BBX 28 40 2 0
BITMAP
00F07800
00F8F800
00F8F800
00F07800
00002000
00000000
00000000
00000000
001F8000
00FFF000
03FFFC00
07FFFE00
0FE03F00
1F800F80
1F0007C0
3E0003C0
3C0003E0
7C0001E0
780001F0
780000F0
780000F0
F80000F0
F00000F0
F00000F0
F00000F0
F00000F0
F00000F0
F80000F0
780000F0
780000F0
780001E0
7C0001E0
3C0003E0
3E0007C0
1F000FC0
0FC01F80
07F8FF00
03FFFE00
01FFFC00
007FE000
ENDCHAR
STARTCHAR 00D7
ENCODING 215
SWIDTH 540 0
DWIDTH 24 0
BBX 14 14 5 6
BITMAP
2008
701C
F83C
7C78
3EF0
1FE0
0FC0
07C0
0FE0
1FF0
3CF8
787C
F03C
6018
ENDCHAR
STARTCHAR 00D8
ENCODING 216
SWIDTH 742 0
DWIDTH 33 0
BBX 28 35 2 -2
BITMAP
000000E0
000F81E0
00FFFBC0
01FFFF80
07FFFF80
0FE03F80
0F800F80
1F001FC0
3E003FE0
3C0039E0
7C0079E0
7800F0F0
7800E0F0
7801E0F0
7801C0F0
F803C0F0
F80780F0
F00700F0
F80F00F0
781E00F0
781C00F0
783C00F0
787800F0
7C7001F0
3CF001E0
3FE003E0
1FC003C0
1FC007C0
0FC01F80
07F8FF00
0FFFFE00
0FFFFC00
1E7FE000
3C000000
38000000
ENDCHAR
STARTCHAR 00D9
ENCODING 217
SWIDTH 675 0
DWIDTH 30 0
BBX 24 42 3 0
BITMAP
03C000
03C000
01E000
00E000
00F000
007000
003800
003C00
000000
000000
000000
F00007
F00007
F00007
F00007
F00007
F00007
F00007
F00007
F00007
F00007
F00007
F00007
F00007
F00007
F00007
F00007
F00007
F00007
F00007
F00007
F0000F
F0000F
F8000F
78001F
78001E
3C003E
3E007C
1FC1F8
0FFFF8
07FFE0
01FF80
ENDCHAR
STARTCHAR 00DA
ENCODING 218
SWIDTH 675 0
DWIDTH 30 0
BBX 24 42 3 0
BITMAP
0001E0
0003C0
000380
000780
000700
000E00
001E00
001C00
000000
000000
000000
F00007
F00007
F00007
F00007
F00007
F00007
F00007
F00007
F00007
F00007
F00007
F00007
F00007
F00007
F00007
F00007
F00007
F00007
F00007
F00007
F0000F
F0000F
F8000F
78001F
78001E
3C003E
3E007C
1FC1F8
0FFFF8
07FFE0
01FF80
ENDCHAR
STARTCHAR 00DB
ENCODING 219
SWIDTH 675 0
DWIDTH 30 0
BBX 24 41 3 0
BITMAP
001C00
003E00
007F00
00F780
01E3C0
03C1C0
0781E0
000000
000000
000000
F00007
F00007
F00007
F00007
F00007
F00007
F00007
F00007
F00007
F00007
F00007
F00007
F00007
F00007
F00007
F00007
F00007
F00007
F00007
F00007
F0000F
F0000F
F8000F
78001F
78001E
3C003E
3E007C
1FC1F8
0FFFF8
07FFE0
01FF80
ENDCHAR
STARTCHAR 00DC
ENCODING 220
SWIDTH 675 0
DWIDTH 30 0
BBX 24 40 3 0
BITMAP
03C1E0
07C3E0
07C3E0
03C1E0
008080
000000
000000
000000
000000
F00007
F00007
F00007
F00007
F00007
F00007
F00007
F00007
F00007
F00007
F00007
F00007
F00007
F00007
F00007
F00007
F00007
F00007
F00007
F00007
F0000F
F0000F
F8000F
78001F
78001E
3C003E
3E007C
1FC1F8
0FFFF8
07FFE0
01FF80
ENDCHAR
STARTCHAR 00DD
ENCODING 221
SWIDTH 607 0
DWIDTH 27 0
BBX 23 42 2 0
BITMAP
0003C0
000380
000780
000F00
000E00
001E00
001C00
003800
000000
000000
000000
F0001E
F0001E
78003C
78003C
3C0078
3C0078
1E00F0
1E00F0
0F01E0
0F01E0
0783C0
0783C0
03C780
03C780
01EF00
01FF00
00FE00
00FE00
007C00
003C00
003C00
003C00
003C00
003C00
003C00
003C00
003C00
003C00
003C00
003C00
003C00
ENDCHAR
STARTCHAR 00DE
ENCODING 222
SWIDTH 585 0
DWIDTH 26 0
BBX 22 31 3 0
BITMAP
F00000
F00000
F00000
F00000
F00000
FFF800
FFFF80
FFFFC0
FFFFE0
F003F0
F000F8
F00078
F00078
F00038
F0003C
F0003C
F0003C
F00038
F00078
F00078
F000F8
F003F0
FFFFE0
FFFFC0
FFFF80
FFF000
F00000
F00000
F00000
F00000
F00000
ENDCHAR
STARTCHAR 00DF
ENCODING 223
SWIDTH 562 0
DWIDTH 25 0
BBX 20 32 3 0
BITMAP
01F800
0FFE00
1FFF80
3F9FC0
3C03C0
7801E0
7801E0
7001E0
F001E0
F001E0
F001E0
F001E0
F003C0
F00F80
F1FF00
F1FC00
F1FF00
F007C0
F001C0
F001E0
F000E0
F000F0
F000F0
F000F0
F000F0
F000F0
F001E0
F003E0
F007C0
F1FFC0
F1FF00
F1FE00
ENDCHAR
STARTCHAR 00E0
ENCODING 224
SWIDTH 607 0
DWIDTH 27 0
BBX 22 35 2 0
BITMAP
078000
078000
03C000
01C000
01E000
00E000
007000
007800
000000
000000
000000
01F800
07FE3C
0FFF3C
1F87BC
3E01FC
7C00FC
78007C
78007C
F0003C
F0003C
F0003C
F0003C
F0003C
F0003C
F0003C
F0003C
78007C
78007C
7C00FC
3E01FC
3F03BC
1FFF3C
0FFE3C
03FC3C
ENDCHAR
STARTCHAR 00E1
ENCODING 225
SWIDTH 607 0
DWIDTH 27 0
BBX 22 35 2 0
BITMAP
0003E0
0003C0
000780
000780
000F00
000E00
001E00
001C00
000000
000000
000000
01F800
07FE3C
0FFF3C
1F87BC
3E01FC
7C00FC
78007C
78007C
F0003C
F0003C
F0003C
F0003C
F0003C
F0003C
F0003C
F0003C
78007C
78007C
7C00FC
3E01FC
3F03BC
1FFF3C
0FFE3C
03FC3C
ENDCHAR
STARTCHAR 00E2
ENCODING 226
SWIDTH 607 0
DWIDTH 27 0
BBX 22 33 2 0
BITMAP
003C00
007C00
00FE00
01EF00
03C780
0783C0
0F01E0
000000
000000
01F800
07FE3C
0FFF3C
1F87BC
3E01FC
7C00FC
78007C
78007C
F0003C
F0003C
F0003C
F0003C
F0003C
F0003C
F0003C
F0003C
78007C
78007C
7C00FC
3E01FC
3F03BC
1FFF3C
0FFE3C
03FC3C
ENDCHAR
STARTCHAR 00E3
ENCODING 227
SWIDTH 607 0
DWIDTH 27 0
BBX 22 32 2 0
BITMAP
03F0C0
03F9C0
073F80
070F80
000000
000000
000000
000000
01F800
07FE3C
0FFF3C
1F87BC
3E01FC
7C00FC
78007C
78007C
F0003C
F0003C
F0003C
F0003C
F0003C
F0003C
F0003C
F0003C
78007C
78007C
7C00FC
3E01FC
3F03BC
1FFF3C
0FFE3C
03FC3C
ENDCHAR
STARTCHAR 00E4
ENCODING 228
SWIDTH 607 0
DWIDTH 27 0
BBX 22 33 2 0
BITMAP
030180
0783C0
07C3E0
07C3C0
0783C0
000000
000000
000000
000000
01F800
07FE3C
0FFF3C
1F87BC
3E01FC
7C00FC
78007C
78007C
F0003C
F0003C
F0003C
F0003C
F0003C
F0003C
F0003C
F0003C
78007C
78007C
7C00FC
3E01FC
3F03BC
1FFF3C
0FFE3C
03FC3C
ENDCHAR
STARTCHAR 00E5
ENCODING 229
SWIDTH 607 0
DWIDTH 27 0
BBX 22 35 2 0
BITMAP
003800
007E00
00C600
00C200
00C200
00C600
007C00
003800
000000
000000
000000
01F800
07FE3C
0FFF3C
1F87BC
3E01FC
7C00FC
78007C
78007C
F0003C
F0003C
F0003C
F0003C
F0003C
F0003C
F0003C
F0003C
78007C
78007C
7C00FC
3E01FC
3F03BC
1FFF3C
0FFE3C
03FC3C
ENDCHAR
STARTCHAR 00E6
ENCODING 230
SWIDTH 922 0
DWIDTH 41 0
BBX 38 24 2 0
BITMAP
01F800FE00
07FE03FF80
1FFF8FFFC0
3F0F8F87E0
3C03DE01F0
7801FC00F0
7800F80078
0000F80078
0000F00078
0000F00038
0000F00038
07FFFFFFFC
1FFFFFFFFC
7F00F00000
7800F00000
7000F00000
F000F80000
F000F80078
F001FC00F8
7803BE00F0
7C079F03E0
3FFF0FFFE0
1FFE07FF80
0FF801FF00
ENDCHAR
STARTCHAR 00E7
ENCODING 231
SWIDTH 562 0
DWIDTH 25 0
BBX 22 35 2 -11
BITMAP
00FE00
07FF80
0FFFC0
1F87E0
3E01F0
3C00F8
780078
780078
780038
F00000
F00000
F00000
F00000
F00000
F00000
78003C
780038
780078
3C0078
3E00F0
1F03F0
0FFFE0
07FFC0
01FF00
003000
003000
003800
007F00
000780
000180
000180
000180
006780
007F00
007E00
ENDCHAR
STARTCHAR 00E8
ENCODING 232
SWIDTH 562 0
DWIDTH 25 0
BBX 22 35 2 0
BITMAP
0F0000
078000
038000
03C000
01E000
00E000
00F000
007000
000000
000000
000000
00FE00
07FF80
0FFFC0
1F03E0
3E00F0
3C00F0
780078
780078
700038
F00038
F0003C
FFFFFC
FFFFFC
F00000
F00000
700000
780000
780078
3C0078
3E00F0
1F03E0
0FFFE0
07FF80
01FF00
ENDCHAR
STARTCHAR 00E9
ENCODING 233
SWIDTH 562 0
DWIDTH 25 0
BBX 22 35 2 0
BITMAP
0003C0
0003C0
000780
000F00
000F00
001E00
001C00
003C00
000000
000000
000000
00FE00
07FF80
0FFFC0
1F03E0
3E00F0
3C00F0
780078
780078
700038
F00038
F0003C
FFFFFC
FFFFFC
F00000
F00000
700000
780000
780078
3C0078
3E00F0
1F03E0
0FFFE0
07FF80
01FF00
ENDCHAR
STARTCHAR 00EA
ENCODING 234
SWIDTH 562 0
DWIDTH 25 0
BBX 22 33 2 0
BITMAP
007800
00FC00
01FE00
01CF00
038780
0783C0
0F01E0
000000
000000
00FE00
07FF80
0FFFC0
1F03E0
3E00F0
3C00F0
780078
780078
700038
F00038
F0003C
FFFFFC
FFFFFC
F00000
F00000
700000
780000
780078
3C0078
3E00F0
1F03E0
0FFFE0
07FF80
01FF00
ENDCHAR
STARTCHAR 00EB
ENCODING 235
SWIDTH 562 0
DWIDTH 25 0
BBX 22 33 2 0
BITMAP
030180
0787C0
0F87C0
0787C0
078380
000000
000000
000000
000000
00FE00
07FF80
0FFFC0
1F03E0
3E00F0
3C00F0
780078
780078
700038
F00038
F0003C
FFFFFC
FFFFFC
F00000
F00000
700000
780000
780078
3C0078
3E00F0
1F03E0
0FFFE0
07FF80
01FF00
ENDCHAR
STARTCHAR 00EC
ENCODING 236
SWIDTH 247 0
DWIDTH 11 0
BBX 8 35 -1 0
BITMAP
F0
F0
78
38
3C
1C
0E
0E
00
00
00
00
07
07
07
07
07
07
07
07
07
07
07
07
07
07
07
07
07
07
07
07
07
07
07
ENDCHAR
STARTCHAR 00ED
ENCODING 237
SWIDTH 247 0
DWIDTH 11 0
BBX 9 35 4 0
BITMAP
0F80
0F00
1E00
1E00
3C00
3800
7800
7000
0000
0000
0000
0000
E000
E000
E000
E000
E000
E000
E000
E000
E000
E000
E000
E000
E000
E000
E000
E000
E000
E000
E000
E000
E000
E000
E000
ENDCHAR
STARTCHAR 00EE
ENCODING 238
SWIDTH 247 0
DWIDTH 11 0
BBX 15 33 -2 0
BITMAP
03C0
07C0
0FE0
1EF0
3C78
783C
F01E
0000
0000
0000
0380
0380
0380
0380
0380
0380
0380
0380
0380
0380
0380
0380
0380
0380
0380
0380
0380
0380
0380
0380
0380
0380
0380
ENDCHAR
STARTCHAR 00EF
ENCODING 239
SWIDTH 247 0
DWIDTH 11 0
BBX 13 33 -1 0
BITMAP
6030
F078
F8F8
F878
F078
0000
0000
0000
0000
0000
0700
0700
0700
0700
0700
0700
0700
0700
0700
0700
0700
0700
0700
0700
0700
0700
0700
0700
0700
0700
0700
0700
0700
ENDCHAR
STARTCHAR 00F0
ENCODING 240
SWIDTH 607 0
DWIDTH 27 0
BBX 22 35 2 0
BITMAP
00F000
00FC38
00FFF8
001FE0
0007C0
001FE0
003DF0
0030F0
000078
000078
000078
03F838
07FE3C
1FFF3C
3F87BC
3E01FC
7C00FC
78007C
F8007C
F0007C
F0003C
F0003C
F0003C
F0003C
F0003C
F0003C
F00078
F00078
780078
7C00F0
3C01F0
1F07E0
1FFFC0
07FF80
03FE00
ENDCHAR
STARTCHAR 00F1
ENCODING 241
SWIDTH 607 0
DWIDTH 27 0
BBX 21 32 3 0
BITMAP
07E180
07F380
0E7F00
0E1F00
000000
000000
000000
000000
007F00
F1FF80
F3FFE0
F7CFE0
F601F0
FC00F0
F800F8
F80078
F00078
F00078
F00078
F00078
F00078
F00078
F00078
F00078
F00078
F00078
F00078
F00078
F00078
F00078
F00078
F00078
ENDCHAR
STARTCHAR 00F2
ENCODING 242
SWIDTH 585 0
DWIDTH 26 0
BBX 22 35 2 0
BITMAP
0F0000
078000
038000
03C000
01E000
00E000
00F000
007000
000000
000000
000000
00FE00
07FF80
0FFFC0
1F87E0
3E01F0
3C00F8
7C0078
780078
78003C
F0003C
F0003C
F0003C
F0003C
F0003C
F0003C
78003C
78003C
780078
3C00F8
3E01F0
1F83E0
0FFFE0
07FF80
01FF00
ENDCHAR
STARTCHAR 00F3
ENCODING 243
SWIDTH 585 0
DWIDTH 26 0
BBX 22 35 2 0
BITMAP
0003C0
0003C0
000780
000F00
000F00
001E00
001C00
003C00
000000
000000
000000
00FE00
07FF80
0FFFC0
1F87E0
3E01F0
3C00F8
7C0078
780078
78003C
F0003C
F0003C
F0003C
F0003C
F0003C
F0003C
78003C
78003C
780078
3C00F8
3E01F0
1F83E0
0FFFE0
07FF80
01FF00
ENDCHAR
STARTCHAR 00F4
ENCODING 244
SWIDTH 585 0
DWIDTH 26 0
BBX 22 33 2 0
BITMAP
007800
00FC00
01FE00
01CF00
038780
0783C0
0F01E0
000000
000000
00FE00
07FF80
0FFFC0
1F87E0
3E01F0
3C00F8
7C0078
780078
78003C
F0003C
F0003C
F0003C
F0003C
F0003C
F0003C
78003C
78003C
780078
3C00F8
3E01F0
1F83E0
0FFFE0
07FF80
01FF00
ENDCHAR
STARTCHAR 00F5
ENCODING 245
SWIDTH 585 0
DWIDTH 26 0
BBX 22 32 2 0
BITMAP
03E1C0
07F980
073F80
061F00
000000
000000
000000
000000
00FE00
07FF80
0FFFC0
1F87E0
3E01F0
3C00F8
7C0078
780078
78003C
F0003C
F0003C
F0003C
F0003C
F0003C
F0003C
78003C
78003C
780078
3C00F8
3E01F0
1F83E0
0FFFE0
07FF80
01FF00
ENDCHAR
STARTCHAR 00F6
ENCODING 246
SWIDTH 585 0
DWIDTH 26 0
BBX 22 33 2 0
BITMAP
030180
0787C0
0F87C0
0787C0
078380
000000
000000
000000
000000
00FE00
07FF80
0FFFC0
1F87E0
3E01F0
3C00F8
7C0078
780078
78003C
F0003C
F0003C
F0003C
F0003C
F0003C
F0003C
78003C
78003C
780078
3C00F8
3E01F0
1F83E0
0FFFE0
07FF80
01FF00
ENDCHAR
STARTCHAR 00F7
ENCODING 247
SWIDTH 585 0
DWIDTH 26 0
BBX 18 21 3 4
BITMAP
004000
01E000
01F000
01F000
01E000
00C000
000000
000000
000000
000000
FFFFC0
FFFFC0
FFFFC0
000000
000000
000000
00C000
01E000
01F000
01F000
01E000
ENDCHAR
STARTCHAR 00F8
ENCODING 248
SWIDTH 585 0
DWIDTH 26 0
BBX 22 28 2 -2
BITMAP
000070
000070
00FEE0
07FFC0
0FFFC0
1F87E0
3E03F0
3C07F8
780778
780E78
780E3C
F01C3C
F01C3C
F0383C
F0703C
F0703C
F0E03C
78E03C
79C03C
79C078
3F80F8
3F81F0
1F83E0
0FFFE0
0FFF80
1DFE00
1C0000
380000
ENDCHAR
STARTCHAR 00F9
ENCODING 249
SWIDTH 585 0
DWIDTH 26 0
BBX 21 35 3 0
BITMAP
1E0000
0E0000
0F0000
078000
038000
03C000
01C000
00E000
000000
000000
000000
000000
F00078
F00078
F00078
F00078
F00078
F00078
F00078
F00078
F00078
F00078
F00078
F00078
F00078
F00078
F00078
F000F8
7800F8
7800F8
7C01F8
3F0778
1FFE78
1FFC78
07F878
ENDCHAR
STARTCHAR 00FA
ENCODING 250
SWIDTH 585 0
DWIDTH 26 0
BBX 21 35 3 0
BITMAP
000780
000F00
000F00
001E00
001C00
003800
007800
007000
000000
000000
000000
000000
F00078
F00078
F00078
F00078
F00078
F00078
F00078
F00078
F00078
F00078
F00078
F00078
F00078
F00078
F00078
F000F8
7800F8
7800F8
7C01F8
3F0778
1FFE78
1FFC78
07F878
ENDCHAR
STARTCHAR 00FB
ENCODING 251
SWIDTH 585 0
DWIDTH 26 0
BBX 21 33 3 0
BITMAP
00F000
01F800
03FC00
079E00
0F0E00
1E0F00
1C0780
000000
000000
000000
F00078
F00078
F00078
F00078
F00078
F00078
F00078
F00078
F00078
F00078
F00078
F00078
F00078
F00078
F00078
F000F8
7800F8
7800F8
7C01F8
3F0778
1FFE78
1FFC78
07F878
ENDCHAR
STARTCHAR 00FC
ENCODING 252
SWIDTH 585 0
DWIDTH 26 0
BBX 21 33 3 0
BITMAP
0E0600
1F0F00
1F0F80
1F0F80
0E0F00
000000
000000
000000
000000
000000
F00078
F00078
F00078
F00078
F00078
F00078
F00078
F00078
F00078
F00078
F00078
F00078
F00078
F00078
F00078
F000F8
7800F8
7800F8
7C01F8
3F0778
1FFE78
1FFC78
07F878
ENDCHAR
STARTCHAR 00FD
ENCODING 253
SWIDTH 517 0
DWIDTH 23 0
BBX 21 44 2 -9
BITMAP
000780
000F00
000F00
001E00
001C00
003C00
003800
007000
000000
000000
000000
000000
F00078
F000F0
F000F0
7801E0
7801E0
3801E0
3C03C0
3C03C0
1E0380
1E0780
0E0700
0F0F00
0F0F00
070E00
079E00
079C00
039C00
03FC00
01F800
01F800
01F000
00F000
00F000
01E000
01E000
03C000
03C000
078000
0F8000
FF0000
FE0000
FC0000
ENDCHAR
STARTCHAR 00FE
ENCODING 254
SWIDTH 607 0
DWIDTH 27 0
BBX 22 43 3 -10
BITMAP
F00000
F00000
F00000
F00000
F00000
F00000
F00000
F00000
F00000
F07F00
F1FFC0
F3FFE0
F7C7F0
F601F0
FC00F8
FC0078
F8007C
F8003C
F0003C
F0003C
F0003C
F0003C
F0003C
F0003C
F8003C
F8003C
F80078
FC0078
F600F8
F783F0
F3FFE0
F1FFC0
F0FF00
F00000
F00000
F00000
F00000
F00000
F00000
F00000
F00000
F00000
F00000
ENDCHAR
STARTCHAR 00FF
ENCODING 255
SWIDTH 517 0
DWIDTH 23 0
BBX 21 42 2 -9
BITMAP
060600
1F0F80
1F0F80
1F0F80
0E0700
000000
000000
000000
000000
000000
F00078
F000F0
F000F0
7801E0
7801E0
3801E0
3C03C0
3C03C0
1E0380
1E0780
0E0700
0F0F00
0F0F00
070E00
079E00
079C00
039C00
03FC00
01F800
01F800
01F000
00F000
00F000
01E000
01E000
03C000
03C000
078000
0F8000
FF0000
FE0000
FC0000
ENDCHAR
STARTCHAR 0100
ENCODING 256
SWIDTH 675 0
DWIDTH 30 0
BBX 27 38 2 0
BITMAP
03FFF000
03FFF000
03FFF000
00000000
00000000
00000000
00000000
001E0000
001F0000
003F0000
003F0000
003F8000
007F8000
00738000
00F3C000
00F1C000
00E1E000
01E1E000
01E0E000
01C0F000
03C0F000
03807000
07807800
07807800
07003C00
0F003C00
0FFFFC00
0FFFFE00
1FFFFE00
1E000E00
3C000F00
3C000F00
3C000780
78000780
78000380
700003C0
F00003C0
F00001E0
ENDCHAR
STARTCHAR 0101
ENCODING 257
SWIDTH 607 0
DWIDTH 27 0
BBX 22 30 2 0
BITMAP
07FFC0
07FFC0
000000
000000
000000
000000
01F800
07FE3C
0FFF3C
1F87BC
3E01FC
7C00FC
78007C
78007C
F0003C
F0003C
F0003C
F0003C
F0003C
F0003C
F0003C
F0003C
78007C
78007C
7C00FC
3E01FC
3F03BC
1FFF3C
0FFE3C
03FC3C
ENDCHAR
STARTCHAR 0102
ENCODING 258
SWIDTH 675 0
DWIDTH 30 0
BBX 27 39 2 0
BITMAP
03C07000
01E1E000
00FFC000
007F8000
00000000
00000000
00000000
00000000
001E0000
001F0000
003F0000
003F0000
003F8000
007F8000
00738000
00F3C000
00F1C000
00E1E000
01E1E000
01E0E000
01C0F000
03C0F000
03807000
07807800
07807800
07003C00
0F003C00
0FFFFC00
0FFFFE00
1FFFFE00
1E000E00
3C000F00
3C000F00
3C000780
78000780
78000380
700003C0
F00003C0
F00001E0
ENDCHAR
STARTCHAR 0103
ENCODING 259
SWIDTH 607 0
DWIDTH 27 0
BBX 22 32 2 0
BITMAP
0E00E0
0701C0
03C7C0
01FF00
00FE00
000000
000000
000000
01F800
07FE3C
0FFF3C
1F87BC
3E01FC
7C00FC
78007C
78007C
F0003C
F0003C
F0003C
F0003C
F0003C
F0003C
F0003C
F0003C
78007C
78007C
7C00FC
3E01FC
3F03BC
1FFF3C
0FFE3C
03FC3C
ENDCHAR
STARTCHAR 0104
ENCODING 260
SWIDTH 675 0
DWIDTH 30 0
BBX 28 38 2 -7
BITMAP
001E0000
001F0000
003F0000
003F0000
003F8000
007F8000
00738000
00F3C000
00F1C000
00E1E000
01E1E000
01E0E000
01C0F000
03C0F000
03807000
07807800
07807800
07003C00
0F003C00
0FFFFC00
0FFFFE00
1FFFFE00
1E000E00
3C000F00
3C000F00
3C000780
78000780
78000380
700003C0
F00003C0
F00001E0
00000380
00000700
00000700
00000700
00000700
000007F0
000003F0
ENDCHAR
STARTCHAR 0105
ENCODING 261
SWIDTH 607 0
DWIDTH 27 0
BBX 24 31 2 -7
BITMAP
01F800
07FE3C
0FFF3C
1F87BC
3E01FC
7C00FC
78007C
78007C
F0003C
F0003C
F0003C
F0003C
F0003C
F0003C
F0003C
F0003C
78007C
78007C
7C00FC
3E01FC
3F03BC
1FFF3C
0FFE3C
03FC3C
000038
000070
000070
000070
000070
00003F
00001F
ENDCHAR
STARTCHAR 0106
ENCODING 262
SWIDTH 697 0
DWIDTH 31 0
BBX 28 42 2 0
BITMAP
0000F800
0000F000
0001E000
0001C000
0003C000
00038000
00070000
00070000
00000000
00000000
000F8000
00FFF800
01FFFC00
07FFFE00
0FC03F00
0F800F80
1F0007C0
3E0003C0
3C0001E0
7C0001E0
780000F0
78000000
78000000
78000000
F8000000
F0000000
F0000000
F8000000
78000000
78000000
78000000
78000000
780001E0
3C0001E0
3C0001E0
1E0003C0
1F0007C0
0F801F80
07F07F00
03FFFE00
01FFF800
007FE000
ENDCHAR
STARTCHAR 0107
ENCODING 263
SWIDTH 562 0
DWIDTH 25 0
BBX 22 35 2 0
BITMAP
0003C0
0003C0
000780
000700
000F00
001E00
001C00
003C00
000000
000000
000000
00FE00
07FF80
0FFFC0
1F87E0
3E01F0
3C00F8
780078
780078
780038
F00000
F00000
F00000
F00000
F00000
F00000
78003C
780038
780078
3C0078
3E00F0
1F03F0
0FFFE0
07FF80
01FF00
ENDCHAR
STARTCHAR 010A
ENCODING 266
SWIDTH 697 0
DWIDTH 31 0
BBX 28 40 2 0
BITMAP
000F0000
001F0000
001F0000
000F0000
00000000
00000000
00000000
00000000
000F8000
00FFF800
01FFFC00
07FFFE00
0FC03F00
0F800F80
1F0007C0
3E0003C0
3C0001E0
7C0001E0
780000F0
78000000
78000000
78000000
F8000000
F0000000
F0000000
F8000000
78000000
78000000
78000000
78000000
780001E0
3C0001E0
3C0001E0
1E0003C0
1F0007C0
0F801F80
07F07F00
03FFFE00
01FFF800
007FE000
ENDCHAR
STARTCHAR 010B
ENCODING 267
SWIDTH 562 0
DWIDTH 25 0
BBX 22 33 2 0
BITMAP
003000
007800
007C00
007C00
007800
000000
000000
000000
000000
00FE00
07FF80
0FFFC0
1F87E0
3E01F0
3C00F8
780078
780078
780038
F00000
F00000
F00000
F00000
F00000
F00000
78003C
780038
780078
3C0078
3E00F0
1F03F0
0FFFE0
07FF80
01FF00
ENDCHAR
STARTCHAR 010C
ENCODING 268
SWIDTH 697 0
DWIDTH 31 0
BBX 28 41 2 0
BITMAP
03C03800
01E07800
00F0F000
0079E000
003FC000
001F8000
000F0000
00000000
00000000
000F8000
00FFF800
01FFFC00
07FFFE00
0FC03F00
0F800F80
1F0007C0
3E0003C0
3C0001E0
7C0001E0
780000F0
78000000
78000000
78000000
F8000000
F0000000
F0000000
F8000000
78000000
78000000
78000000
78000000
780001E0
3C0001E0
3C0001E0
1E0003C0
1F0007C0
0F801F80
07F07F00
03FFFE00
01FFF800
007FE000
ENDCHAR
STARTCHAR 010D
ENCODING 269
SWIDTH 562 0
DWIDTH 25 0
BBX 22 33 2 0
BITMAP
0F01E0
0783C0
03C780
01EF00
00FE00
007C00
003800
000000
000000
00FE00
07FF80
0FFFC0
1F87E0
3E01F0
3C00F8
780078
780078
780038
F00000
F00000
F00000
F00000
F00000
F00000
78003C
780038
780078
3C0078
3E00F0
1F03F0
0FFFE0
07FF80
01FF00
ENDCHAR
STARTCHAR 010E
ENCODING 270
SWIDTH 675 0
DWIDTH 30 0
BBX 26 41 3 0
BITMAP
0F01E000
0783C000
03C38000
01E70000
00FF0000
007E0000
003C0000
00000000
00000000
00000000
FFFF0000
FFFFE000
FFFFF000
F007F800
F000FC00
F0003E00
F0001F00
F0001F00
F0000F00
F0000780
F0000780
F0000780
F0000780
F0000780
F00003C0
F00003C0
F00007C0
F0000780
F0000780
F0000780
F0000780
F0000F80
F0000F00
F0001F00
F0001E00
F0007E00
F000FC00
FFFFF800
FFFFF000
FFFFC000
FFFF0000
ENDCHAR
STARTCHAR 010F
ENCODING 271
SWIDTH 720 0
DWIDTH 32 0
BBX 30 35 2 0
BITMAP
00000078
000000FC
00003CFC
00003CFC
00003C7C
00003C0C
00003C0C
00003C0C
00003C18
00003C38
00003C70
01F83C40
07FE3C00
0FFF3C00
1F87BC00
3E01FC00
7C00FC00
78007C00
78007C00
F8003C00
F0003C00
F0003C00
F0003C00
F0003C00
F0003C00
F0003C00
F0003C00
78007C00
78007C00
7C00FC00
3E00FC00
3F03BC00
1FFF3C00
0FFE3C00
03FC3C00
ENDCHAR
STARTCHAR 0110
ENCODING 272
SWIDTH 697 0
DWIDTH 31 0
BBX 28 31 2 0
BITMAP
1FFFC000
1FFFF000
1FFFFC00
1C03FE00
1C003F00
1C000F80
1C0007C0
1C0003C0
1C0003E0
1C0001E0
1C0001E0
1C0001E0
1C0000F0
1C0000F0
FFF000F0
FFF000F0
1C0000F0
1C0000F0
1C0000F0
1C0001E0
1C0001E0
1C0001E0
1C0003E0
1C0003C0
1C0007C0
1C000F80
1C003F00
1C0FFE00
1FFFFC00
1FFFF000
1FFF8000
ENDCHAR
STARTCHAR 0111
ENCODING 273
SWIDTH 607 0
DWIDTH 27 0
BBX 25 33 2 0
BITMAP
00003C00
00003C00
00003C00
000FFF80
000FFF80
000FFF80
00003C00
00003C00
00003C00
01F83C00
07FE3C00
0FFF3C00
1F87BC00
3E01FC00
7C00FC00
78007C00
78007C00
F8003C00
F0003C00
F0003C00
F0003C00
F0003C00
F0003C00
F0003C00
F0003C00
78007C00
78007C00
7C00FC00
3E00FC00
3F03BC00
1FFF3C00
0FFE3C00
03FC3C00
ENDCHAR
STARTCHAR 0112
ENCODING 274
SWIDTH 562 0
DWIDTH 25 0
BBX 19 38 3 0
BITMAP
1FFF80
1FFF80
1FFF80
000000
000000
000000
000000
FFFFE0
FFFFE0
FFFFE0
F00000
F00000
F00000
F00000
F00000
F00000
F00000
F00000
F00000
F00000
F00000
FFFFC0
FFFFC0
FFFFC0
F00000
F00000
F00000
F00000
F00000
F00000
F00000
F00000
F00000
F00000
F00000
FFFFE0
FFFFE0
FFFFE0
ENDCHAR
STARTCHAR 0113
ENCODING 275
SWIDTH 562 0
DWIDTH 25 0
BBX 22 30 2 0
BITMAP
07FFC0
07FFC0
000000
000000
000000
000000
00FE00
07FF80
0FFFC0
1F03E0
3E00F0
3C00F0
780078
780078
700038
F00038
F0003C
FFFFFC
FFFFFC
F00000
F00000
700000
780000
780078
3C0078
3E00F0
1F03E0
0FFFE0
07FF80
01FF00
ENDCHAR
STARTCHAR 0116
ENCODING 278
SWIDTH 562 0
DWIDTH 25 0
BBX 19 40 3 0
BITMAP
00F000
01F000
01F000
00F000
000000
000000
000000
000000
000000
FFFFE0
FFFFE0
FFFFE0
F00000
F00000
F00000
F00000
F00000
F00000
F00000
F00000
F00000
F00000
F00000
FFFFC0
FFFFC0
FFFFC0
F00000
F00000
F00000
F00000
F00000
F00000
F00000
F00000
F00000
F00000
F00000
FFFFE0
FFFFE0
FFFFE0
ENDCHAR
STARTCHAR 0117
ENCODING 279
SWIDTH 562 0
DWIDTH 25 0
BBX 22 33 2 0
BITMAP
003000
007800
007C00
007C00
007800
000000
000000
000000
000000
00FE00
07FF80
0FFFC0
1F03E0
3E00F0
3C00F0
780078
780078
700038
F00038
F0003C
FFFFFC
FFFFFC
F00000
F00000
700000
780000
780078
3C0078
3E00F0
1F03E0
0FFFE0
07FF80
01FF00
ENDCHAR
STARTCHAR 0118
ENCODING 280
SWIDTH 562 0
DWIDTH 25 0
BBX 21 38 3 -7
BITMAP
FFFFE0
FFFFE0
FFFFE0
F00000
F00000
F00000
F00000
F00000
F00000
F00000
F00000
F00000
F00000
F00000
FFFFC0
FFFFC0
FFFFC0
F00000
F00000
F00000
F00000
F00000
F00000
F00000
F00000
F00000
F00000
F00000
FFFFE0
FFFFE0
FFFFE0
0001E0
0001C0
000380
000380
0003C0
0001F8
0000F8
ENDCHAR
STARTCHAR 0119
ENCODING 281
SWIDTH 562 0
DWIDTH 25 0
BBX 22 31 2 -7
BITMAP
00FE00
07FF80
0FFFC0
1F03E0
3E00F0
3C00F0
780078
780078
700038
F00038
F0003C
FFFFFC
FFFFFC
F00000
F00000
700000
780000
780078
3C0078
3E00F0
1F03E0
0FFFE0
07FF80
01FF00
007000
00E000
00E000
00E000
00E000
00FE00
007E00
ENDCHAR
STARTCHAR 011A
ENCODING 282
SWIDTH 562 0
DWIDTH 25 0
BBX 19 41 3 0
BITMAP
3C0380
1E0700
0F0F00
079E00
03FC00
01F800
00F000
000000
000000
000000
FFFFE0
FFFFE0
FFFFE0
F00000
F00000
F00000
F00000
F00000
F00000
F00000
F00000
F00000
F00000
F00000
FFFFC0
FFFFC0
FFFFC0
F00000
F00000
F00000
F00000
F00000
F00000
F00000
F00000
F00000
F00000
F00000
FFFFE0
FFFFE0
FFFFE0
ENDCHAR
STARTCHAR 011B
ENCODING 283
SWIDTH 562 0
DWIDTH 25 0
BBX 22 33 2 0
BITMAP
0F01C0
0783C0
03C780
01EF00
00FE00
007C00
007800
000000
000000
00FE00
07FF80
0FFFC0
1F03E0
3E00F0
3C00F0
780078
780078
700038
F00038
F0003C
FFFFFC
FFFFFC
F00000
F00000
700000
780000
780078
3C0078
3E00F0
1F03E0
0FFFE0
07FF80
01FF00
ENDCHAR
STARTCHAR 011E
ENCODING 286
SWIDTH 697 0
DWIDTH 31 0
BBX 27 39 2 0
BITMAP
01E03800
00F0F000
007FE000
003FC000
00000000
00000000
00000000
001F8000
00FFF000
03FFFC00
07FFFE00
0FC03F00
1F000F80
1E000780
3E0003C0
3C0003C0
780001E0
78000000
78000000
78000000
70000000
F0000000
F0000000
F001FFE0
F001FFE0
F001FFE0
700001E0
780001E0
780001E0
780001E0
3C0001E0
3C0003E0
3E0003E0
1F0007E0
0F800EE0
07E03EE0
03FFFCE0
01FFF0E0
007FE0E0
ENDCHAR
STARTCHAR 011F
ENCODING 287
SWIDTH 607 0
DWIDTH 27 0
BBX 22 41 2 -9
BITMAP
0E00E0
0701C0
03C780
01FF00
00FC00
000000
000000
000000
01FC00
07FE3C
0FFF3C
1F87BC
3E01FC
3C00FC
7C007C
78003C
78003C
F0003C
F0003C
F0003C
F0003C
F0003C
F8003C
78003C
78007C
7C007C
3E00FC
3F01FC
1FFFBC
0FFF3C
03FE3C
00603C
00003C
00003C
00003C
000078
0000F8
0001F0
00FFE0
00FFC0
00FF80
ENDCHAR
STARTCHAR 0120
ENCODING 288
SWIDTH 697 0
DWIDTH 31 0
BBX 27 40 2 0
BITMAP
000F0000
000F8000
000F8000
000F0000
00000000
00000000
00000000
00000000
001F8000
00FFF000
03FFFC00
07FFFE00
0FC03F00
1F000F80
1E000780
3E0003C0
3C0003C0
780001E0
78000000
78000000
78000000
70000000
F0000000
F0000000
F001FFE0
F001FFE0
F001FFE0
700001E0
780001E0
780001E0
780001E0
3C0001E0
3C0003E0
3E0003E0
1F0007E0
0F800EE0
07E03EE0
03FFFCE0
01FFF0E0
007FE0E0
ENDCHAR
STARTCHAR 0121
ENCODING 289
SWIDTH 607 0
DWIDTH 27 0
BBX 22 42 2 -9
BITMAP
003800
007C00
007C00
007C00
003800
000000
000000
000000
000000
01FC00
07FE3C
0FFF3C
1F87BC
3E01FC
3C00FC
7C007C
78003C
78003C
F0003C
F0003C
F0003C
F0003C
F0003C
F8003C
78003C
78007C
7C007C
3E00FC
3F01FC
1FFFBC
0FFF3C
03FE3C
00603C
00003C
00003C
00003C
000078
0000F8
0001F0
00FFE0
00FFC0
00FF80
ENDCHAR
STARTCHAR 0126
ENCODING 294
SWIDTH 675 0
DWIDTH 30 0
BBX 29 31 1 0
BITMAP
1E0003C0
1E0003C0
1E0003C0
1E0003C0
1E0003C0
FFFFFFF8
FFFFFFF8
FFFFFFF8
1E0003C0
1E0003C0
1E0003C0
1E0003C0
1E0003C0
1E0003C0
1FFFFFC0
1FFFFFC0
1FFFFFC0
1E0003C0
1E0003C0
1E0003C0
1E0003C0
1E0003C0
1E0003C0
1E0003C0
1E0003C0
1E0003C0
1E0003C0
1E0003C0
1E0003C0
1E0003C0
1E0003C0
ENDCHAR
STARTCHAR 0127
ENCODING 295
SWIDTH 585 0
DWIDTH 26 0
BBX 25 33 0 0
BITMAP
0F000000
0F000000
0F000000
FFFC0000
FFFC0000
FFFC0000
0F000000
0F000000
0F000000
0F07F000
0F1FFC00
0F3FFE00
0F787E00
0FE01F00
0FC00F00
0F800F00
0F000F00
0F000700
0F000780
0F000780
0F000780
0F000780
0F000780
0F000780
0F000780
0F000780
0F000780
0F000780
0F000780
0F000780
0F000780
0F000780
0F000780
ENDCHAR
STARTCHAR 0128
ENCODING 296
SWIDTH 225 0
DWIDTH 10 0
BBX 13 40 -1 0
BITMAP
3C38
7E38
FFF0
C3F0
C0C0
0000
0000
0000
0000
0F00
0F00
0F00
0F00
0F00
0F00
0F00
0F00
0F00
0F00
0F00
0F00
0F00
0F00
0F00
0F00
0F00
0F00
0F00
0F00
0F00
0F00
0F00
0F00
0F00
0F00
0F00
0F00
0F00
0F00
0F00
ENDCHAR
STARTCHAR 0129
ENCODING 297
SWIDTH 247 0
DWIDTH 11 0
BBX 13 32 -1 0
BITMAP
7E38
7F38
E7F0
E1F0
0000
0000
0000
0000
0000
0700
0700
0700
0700
0700
0700
0700
0700
0700
0700
0700
0700
0700
0700
0700
0700
0700
0700
0700
0700
0700
0700
0700
ENDCHAR
STARTCHAR 012A
ENCODING 298
SWIDTH 225 0
DWIDTH 10 0
BBX 13 38 -1 0
BITMAP
FFF8
FFF8
FFF8
0000
0000
0000
0000
0F00
0F00
0F00
0F00
0F00
0F00
0F00
0F00
0F00
0F00
0F00
0F00
0F00
0F00
0F00
0F00
0F00
0F00
0F00
0F00
0F00
0F00
0F00
0F00
0F00
0F00
0F00
0F00
0F00
0F00
0F00
ENDCHAR
STARTCHAR 012B
ENCODING 299
SWIDTH 247 0
DWIDTH 11 0
BBX 13 30 -1 0
BITMAP
FFF8
FFF8
0000
0000
0000
0000
0000
0700
0700
0700
0700
0700
0700
0700
0700
0700
0700
0700
0700
0700
0700
0700
0700
0700
0700
0700
0700
0700
0700
0700
ENDCHAR
STARTCHAR 012E
ENCODING 302
SWIDTH 225 0
DWIDTH 10 0
BBX 7 38 2 -7
BITMAP
78
78
78
78
78
78
78
78
78
78
78
78
78
78
78
78
78
78
78
78
78
78
78
78
78
78
78
78
78
78
78
78
60
E0
E0
F0
7E
3E
ENDCHAR
STARTCHAR 012F
ENCODING 303
SWIDTH 247 0
DWIDTH 11 0
BBX 7 40 2 -7
BITMAP
38
7C
7C
7C
38
00
00
00
00
00
38
38
38
38
38
38
38
38
38
38
38
38
38
38
38
38
38
38
38
38
38
38
38
78
70
E0
E0
F0
7E
3E
ENDCHAR
STARTCHAR 0130
ENCODING 304
SWIDTH 225 0
DWIDTH 10 0
BBX 5 40 3 0
BITMAP
F0
F8
F8
F0
20
00
00
00
00
F0
F0
F0
F0
F0
F0
F0
F0
F0
F0
F0
F0
F0
F0
F0
F0
F0
F0
F0
F0
F0
F0
F0
F0
F0
F0
F0
F0
F0
F0
F0
ENDCHAR
STARTCHAR 0131
ENCODING 305
SWIDTH 247 0
DWIDTH 11 0
BBX 3 23 4 0
BITMAP
E0
E0
E0
E0
E0
E0
E0
E0
E0
E0
E0
E0
E0
E0
E0
E0
E0
E0
E0
E0
E0
E0
E0
ENDCHAR
STARTCHAR 0139
ENCODING 313
SWIDTH 517 0
DWIDTH 23 0
BBX 19 42 3 0
BITMAP
078000
0F0000
0E0000
1E0000
1C0000
380000
780000
700000
000000
000000
000000
F00000
F00000
F00000
F00000
F00000
F00000
F00000
F00000
F00000
F00000
F00000
F00000
F00000
F00000
F00000
F00000
F00000
F00000
F00000
F00000
F00000
F00000
F00000
F00000
F00000
F00000
F00000
F00000
FFFFE0
FFFFE0
FFFFE0
ENDCHAR
STARTCHAR 013A
ENCODING 314
SWIDTH 292 0
DWIDTH 13 0
BBX 9 44 3 0
BITMAP
0780
0F00
0F00
1E00
1C00
3C00
3800
7000
0000
0000
0000
F000
F000
F000
F000
F000
F000
F000
F000
F000
F000
F000
F000
F000
F000
F000
F000
F000
F000
F000
F000
F000
F000
F000
F000
F000
F000
F000
F000
7000
7800
7F80
7F80
1F80
ENDCHAR
STARTCHAR 013D
ENCODING 317
SWIDTH 517 0
DWIDTH 23 0
BBX 24 41 -2 0
BITMAP
F01E00
703C00
387800
3CF000
1FE000
0FC000
078000
000000
000000
000000
078000
078000
078000
078000
078000
078000
078000
078000
078000
078000
078000
078000
078000
078000
078000
078000
078000
078000
078000
078000
078000
078000
078000
078000
078000
078000
078000
078000
07FFFF
07FFFF
07FFFF
ENDCHAR
STARTCHAR 013E
ENCODING 318
SWIDTH 337 0
DWIDTH 15 0
BBX 12 35 3 0
BITMAP
00E0
01F0
F3F0
F3F0
F1F0
F030
F030
F030
F070
F060
F1C0
F100
F000
F000
F000
F000
F000
F000
F000
F000
F000
F000
F000
F000
F000
F000
F000
F000
F000
F000
7000
7800
7F80
7F80
1F80
ENDCHAR
STARTCHAR 0143
ENCODING 323
SWIDTH 697 0
DWIDTH 31 0
BBX 25 42 3 0
BITMAP
0001E000
0001E000
0003C000
00038000
00078000
00070000
000E0000
000E0000
00000000
00000000
00000000
F8000780
FC000780
FC000780
FE000780
FF000780
FF000780
FF800780
F7C00780
F3C00780
F3E00780
F1F00780
F0F00780
F0F80780
F07C0780
F03C0780
F03E0780
F01F0780
F00F0780
F00F8780
F007C780
F003C780
F003E780
F001F780
F000F780
F0007F80
F0007F80
F0003F80
F0001F80
F0001F80
F0000F80
F0000780
ENDCHAR
STARTCHAR 0144
ENCODING 324
SWIDTH 607 0
DWIDTH 27 0
BBX 21 35 3 0
BITMAP
0007C0
000780
000F00
000F00
001E00
001C00
003C00
003800
000000
000000
000000
007F00
F1FF80
F3FFE0
F7CFE0
F601F0
FC00F0
F800F8
F80078
F00078
F00078
F00078
F00078
F00078
F00078
F00078
F00078
F00078
F00078
F00078
F00078
F00078
F00078
F00078
F00078
ENDCHAR
STARTCHAR 0147
ENCODING 327
SWIDTH 697 0
DWIDTH 31 0
BBX 25 41 3 0
BITMAP
0780F000
03C0E000
01E1E000
00F3C000
007F8000
003F0000
001E0000
00000000
00000000
00000000
F8000780
FC000780
FC000780
FE000780
FF000780
FF000780
FF800780
F7C00780
F3C00780
F3E00780
F1F00780
F0F00780
F0F80780
F07C0780
F03C0780
F03E0780
F01F0780
F00F0780
F00F8780
F007C780
F003C780
F003E780
F001F780
F000F780
F0007F80
F0007F80
F0003F80
F0001F80
F0001F80
F0000F80
F0000780
ENDCHAR
STARTCHAR 0148
ENCODING 328
SWIDTH 607 0
DWIDTH 27 0
BBX 21 33 3 0
BITMAP
1E03C0
0F0780
078F00
03DE00
01FC00
00F800
007000
000000
000000
007F00
F1FF80
F3FFE0
F7CFE0
F601F0
FC00F0
F800F8
F80078
F00078
F00078
F00078
F00078
F00078
F00078
F00078
F00078
F00078
F00078
F00078
F00078
F00078
F00078
F00078
F00078
ENDCHAR
STARTCHAR 014C
ENCODING 332
SWIDTH 720 0
DWIDTH 32 0
BBX 28 38 2 0
BITMAP
00FFF800
00FFF800
00FFF800
00000000
00000000
00000000
001F8000
00FFF000
03FFFC00
07FFFE00
0FE03F00
1F800F80
1F0007C0
3E0003C0
3C0003E0
7C0001E0
780001F0
780000F0
780000F0
F80000F0
F00000F0
F00000F0
F00000F0
F00000F0
F00000F0
F80000F0
780000F0
780000F0
780001E0
7C0001E0
3C0003E0
3E0007C0
1F000FC0
0FC01F80
07F8FF00
03FFFE00
01FFFC00
007FE000
ENDCHAR
STARTCHAR 014D
ENCODING 333
SWIDTH 585 0
DWIDTH 26 0
BBX 22 30 2 0
BITMAP
07FFC0
07FFC0
000000
000000
000000
000000
00FE00
07FF80
0FFFC0
1F87E0
3E01F0
3C00F8
7C0078
780078
78003C
F0003C
F0003C
F0003C
F0003C
F0003C
F0003C
78003C
78003C
780078
3C00F8
3E01F0
1F83E0
0FFFE0
07FF80
01FF00
ENDCHAR
STARTCHAR 0152
ENCODING 338
SWIDTH 945 0
DWIDTH 42 0
BBX 38 31 2 0
BITMAP
003FFFFFFC
01FFFFFFFC
03FFFFFFFC
0FF81E0000
1F801E0000
1F001E0000
3E001E0000
3C001E0000
78001E0000
78001E0000
F8001E0000
F0001E0000
F0001E0000
F0001E0000
F0001FFFF0
F0001FFFF0
F0001FFFF0
F0001E0000
F0001E0000
F0001E0000
F8001E0000
78001E0000
7C001E0000
3C001E0000
3E001E0000
1F001E0000
1FC01E0000
0FFFFE0000
03FFFFFFFC
01FFFFFFFC
003FFFFFFC
ENDCHAR
STARTCHAR 0153
ENCODING 339
SWIDTH 967 0
DWIDTH 43 0
BBX 40 24 2 0
BITMAP
00FC003F80
07FF00FFE0
0FFFC1FFF0
1F87E3E0F8
3E01E7803C
3C00F7001C
78007E001E
78007E000E
78003E000E
F0003C000F
F0003C000F
F0003FFFFF
F0003FFFFF
F0003C0000
F0003C0000
70003E0000
78007E0000
78007E001E
3C00FF001E
3E01F7803C
1F03E3E0FC
0FFFC3FFF8
07FF80FFE0
01FE007FC0
ENDCHAR
STARTCHAR 0154
ENCODING 340
SWIDTH 585 0
DWIDTH 26 0
BBX 22 42 3 0
BITMAP
000F00
000F00
001E00
001C00
003C00
007800
007000
00E000
000000
000000
000000
FFFE00
FFFF80
FFFFE0
F00FF0
F001F0
F00078
F00078
F00038
F0003C
F0003C
F0003C
F00038
F00078
F000F8
F001F0
FFFFE0
FFFFC0
FFFF80
FFFC00
F03C00
F01E00
F00F00
F00F00
F00780
F007C0
F003C0
F001E0
F001F0
F000F0
F00078
F0007C
ENDCHAR
STARTCHAR 0155
ENCODING 341
SWIDTH 337 0
DWIDTH 15 0
BBX 12 35 3 0
BITMAP
00F0
01E0
01E0
03C0
0380
0780
0700
0E00
0000
0000
0000
0000
F1F0
F7F0
F7F0
FF00
FC00
F800
F000
F000
F000
F000
F000
F000
F000
F000
F000
F000
F000
F000
F000
F000
F000
F000
F000
ENDCHAR
STARTCHAR 0158
ENCODING 344
SWIDTH 585 0
DWIDTH 26 0
BBX 22 41 3 0
BITMAP
3C0780
1E0F00
0F1E00
079C00
03FC00
01F800
00F000
000000
000000
000000
FFFE00
FFFF80
FFFFE0
F00FF0
F001F0
F00078
F00078
F00038
F0003C
F0003C
F0003C
F00038
F00078
F000F8
F001F0
FFFFE0
FFFFC0
FFFF80
FFFC00
F03C00
F01E00
F00F00
F00F00
F00780
F007C0
F003C0
F001E0
F001F0
F000F0
F00078
F0007C
ENDCHAR
STARTCHAR 0159
ENCODING 345
SWIDTH 337 0
DWIDTH 15 0
BBX 14 33 1 0
BITMAP
F03C
7878
3870
3CF0
1FE0
0FC0
0780
0000
0000
0000
3C7C
3DFC
3DFC
3FC0
3F00
3E00
3C00
3C00
3C00
3C00
3C00
3C00
3C00
3C00
3C00
3C00
3C00
3C00
3C00
3C00
3C00
3C00
3C00
ENDCHAR
STARTCHAR 015A
ENCODING 346
SWIDTH 585 0
DWIDTH 26 0
BBX 22 42 2 0
BITMAP
0001E0
0003C0
000380
000780
000F00
000E00
001E00
001C00
000000
000000
007C00
03FF80
0FFFC0
1FFFF0
3F01F0
3C00F8
7C0078
78007C
78003C
78003C
780000
7C0000
3E0000
3F0000
1FF800
0FFF80
03FFE0
003FF0
0001F8
00007C
00003C
00003C
F8003C
F8003C
78003C
78003C
7C007C
3E00F8
1F83F8
0FFFF0
07FFE0
01FF80
ENDCHAR
STARTCHAR 015B
ENCODING 347
SWIDTH 495 0
DWIDTH 22 0
BBX 18 35 2 0
BITMAP
000F00
001E00
001E00
003C00
003800
007800
007000
00E000
000000
000000
000000
07F800
1FFE00
3FFF00
7C1F80
780780
700780
7003C0
700000
780000
7C0000
3FC000
1FFC00
07FF00
007F80
0007C0
0003C0
F003C0
F003C0
F803C0
7803C0
7E0F80
3FFF80
1FFE00
07FC00
ENDCHAR
STARTCHAR 015E
ENCODING 350
SWIDTH 585 0
DWIDTH 26 0
BBX 22 43 2 -11
BITMAP
007C00
03FF80
0FFFC0
1FFFF0
3F01F0
3C00F8
7C0078
78007C
78003C
78003C
780000
7C0000
3E0000
3F0000
1FF800
0FFF80
03FFE0
003FF0
0001F8
00007C
00003C
00003C
F8003C
F8003C
78003C
78003C
7C007C
3E00F8
1F83F8
0FFFF0
07FFC0
01FF80
003000
003000
003000
007F00
007F80
000180
000180
000180
004380
007F00
007E00
ENDCHAR
STARTCHAR 015F
ENCODING 351
SWIDTH 495 0
DWIDTH 22 0
BBX 18 35 2 -11
BITMAP
07F800
1FFE00
3FFF00
7C1F80
780780
700780
7003C0
700000
780000
7C0000
3FC000
1FFC00
07FF00
007F80
0007C0
0003C0
F003C0
F003C0
F803C0
7803C0
7E0F80
3FFF80
1FFE00
07FC00
00E000
00C000
00C000
01FC00
01FE00
000600
000600
000600
000E00
00FC00
00F800
ENDCHAR
STARTCHAR 0160
ENCODING 352
SWIDTH 585 0
DWIDTH 26 0
BBX 22 41 2 0
BITMAP
0700F0
0781E0
03C3C0
01E780
00FF00
007E00
003C00
000000
000000
007C00
03FF80
0FFFC0
1FFFF0
3F01F0
3C00F8
7C0078
78007C
78003C
78003C
780000
7C0000
3E0000
3F0000
1FF800
0FFF80
03FFE0
003FF0
0001F8
00007C
00003C
00003C
F8003C
F8003C
78003C
78003C
7C007C
3E00F8
1F83F8
0FFFF0
07FFE0
01FF80
ENDCHAR
STARTCHAR 0161
ENCODING 353
SWIDTH 495 0
DWIDTH 22 0
BBX 18 33 2 0
BITMAP
3C0F00
1E1E00
0F3C00
07B800
03F800
01F000
000000
000000
000000
07F800
1FFE00
3FFF00
7C1F80
780780
700780
7003C0
700000
780000
7C0000
3FC000
1FFC00
07FF00
007F80
0007C0
0003C0
F003C0
F003C0
F803C0
7803C0
7E0F80
3FFF80
1FFE00
07FC00
ENDCHAR
STARTCHAR 0162
ENCODING 354
SWIDTH 585 0
DWIDTH 26 0
BBX 22 42 2 -11
BITMAP
FFFFFC
FFFFFC
FFFFFC
007800
007800
007800
007800
007800
007800
007800
007800
007800
007800
007800
007800
007800
007800
007800
007800
007800
007800
007800
007800
007800
007800
007800
007800
007800
007800
007800
007800
007000
006000
006000
00FE00
00FF00
000300
000300
000300
000700
007E00
007C00
ENDCHAR
STARTCHAR 0163
ENCODING 355
SWIDTH 382 0
DWIDTH 17 0
BBX 15 42 1 -11
BITMAP
0780
0780
0780
0780
0780
0780
0780
0780
FFFC
FFFC
FFFC
0780
0780
0780
0780
0780
0780
0780
0780
0780
0780
0780
0780
0780
0780
0780
0780
0780
07FC
03FC
01FC
00C0
00C0
01E0
01FC
001E
0006
0006
0006
011E
01FC
01F0
ENDCHAR
STARTCHAR 0164
ENCODING 356
SWIDTH 585 0
DWIDTH 26 0
BBX 22 41 2 0
BITMAP
0E01E0
0703C0
078780
03CF00
01FE00
00FC00
007800
000000
000000
000000
FFFFFC
FFFFFC
FFFFFC
007800
007800
007800
007800
007800
007800
007800
007800
007800
007800
007800
007800
007800
007800
007800
007800
007800
007800
007800
007800
007800
007800
007800
007800
007800
007800
007800
007800
ENDCHAR
STARTCHAR 0165
ENCODING 357
SWIDTH 495 0
DWIDTH 22 0
BBX 21 35 1 0
BITMAP
0000E0
0001F0
0001F0
0001F0
0781F8
078038
078030
078030
078030
078060
0780C0
078080
FFFC00
FFFC00
FFFC00
078000
078000
078000
078000
078000
078000
078000
078000
078000
078000
078000
078000
078000
078000
078000
078000
078000
07FC00
03FC00
01FC00
ENDCHAR
STARTCHAR 0166
ENCODING 358
SWIDTH 585 0
DWIDTH 26 0
BBX 22 31 2 0
BITMAP
FFFFFC
FFFFFC
FFFFFC
007800
007800
007800
007800
007800
007800
007800
007800
007800
3FFFF0
3FFFF0
3FFFF0
007800
007800
007800
007800
007800
007800
007800
007800
007800
007800
007800
007800
007800
007800
007800
007800
ENDCHAR
STARTCHAR 0167
ENCODING 359
SWIDTH 382 0
DWIDTH 17 0
BBX 14 31 1 0
BITMAP
0780
0780
0780
0780
0780
0780
0780
0780
FFFC
FFFC
FFFC
0780
0780
0780
0780
0780
0780
FFFC
FFFC
0780
0780
0780
0780
0780
0780
0780
0780
0780
07FC
03FC
01FC
ENDCHAR
STARTCHAR 0168
ENCODING 360
SWIDTH 675 0
DWIDTH 30 0
BBX 24 40 3 0
BITMAP
01F0E0
01F8C0
03BFC0
030FC0
030300
000000
000000
000000
000000
F00007
F00007
F00007
F00007
F00007
F00007
F00007
F00007
F00007
F00007
F00007
F00007
F00007
F00007
F00007
F00007
F00007
F00007
F00007
F00007
F0000F
F0000F
F8000F
78001F
78001E
3C003E
3E007C
1FC1F8
0FFFF8
07FFE0
01FF80
ENDCHAR
STARTCHAR 0169
ENCODING 361
SWIDTH 585 0
DWIDTH 26 0
BBX 21 32 3 0
BITMAP
07C300
0FE700
0CFF00
1C3E00
000000
000000
000000
000000
000000
F00078
F00078
F00078
F00078
F00078
F00078
F00078
F00078
F00078
F00078
F00078
F00078
F00078
F00078
F00078
F000F8
7800F8
7800F8
7C01F8
3F0778
1FFE78
1FFC78
07F878
ENDCHAR
STARTCHAR 016A
ENCODING 362
SWIDTH 675 0
DWIDTH 30 0
BBX 24 38 3 0
BITMAP
03FFE0
03FFE0
03FFE0
000000
000000
000000
000000
F00007
F00007
F00007
F00007
F00007
F00007
F00007
F00007
F00007
F00007
F00007
F00007
F00007
F00007
F00007
F00007
F00007
F00007
F00007
F00007
F0000F
F0000F
F8000F
78001F
78001E
3C003E
3E007C
1FC1F8
0FFFF8
07FFE0
01FF80
ENDCHAR
STARTCHAR 016B
ENCODING 363
SWIDTH 585 0
DWIDTH 26 0
BBX 21 30 3 0
BITMAP
1FFF80
1FFF80
000000
000000
000000
000000
000000
F00078
F00078
F00078
F00078
F00078
F00078
F00078
F00078
F00078
F00078
F00078
F00078
F00078
F00078
F00078
F000F8
7800F8
7800F8
7C01F8
3F0778
1FFE78
1FFC78
07F878
ENDCHAR
STARTCHAR 016E
ENCODING 366
SWIDTH 675 0
DWIDTH 30 0
BBX 24 43 3 0
BITMAP
001800
007E00
006700
00C300
00C300
006300
007E00
003C00
000000
000000
000000
000000
F00007
F00007
F00007
F00007
F00007
F00007
F00007
F00007
F00007
F00007
F00007
F00007
F00007
F00007
F00007
F00007
F00007
F00007
F00007
F00007
F0000F
F0000F
F8000F
78001F
78001E
3C003E
3E007C
1FC1F8
0FFFF8
07FFE0
01FF80
ENDCHAR
STARTCHAR 016F
ENCODING 367
SWIDTH 585 0
DWIDTH 26 0
BBX 21 35 3 0
BITMAP
00F000
01F800
031800
030C00
030C00
039800
01F800
00E000
000000
000000
000000
000000
F00078
F00078
F00078
F00078
F00078
F00078
F00078
F00078
F00078
F00078
F00078
F00078
F00078
F00078
F00078
F000F8
7800F8
7800F8
7C01F8
3F0778
1FFE78
1FFC78
07F878
ENDCHAR
STARTCHAR 0172
ENCODING 370
SWIDTH 675 0
DWIDTH 30 0
BBX 24 39 3 -8
BITMAP
F00007
F00007
F00007
F00007
F00007
F00007
F00007
F00007
F00007
F00007
F00007
F00007
F00007
F00007
F00007
F00007
F00007
F00007
F00007
F00007
F0000F
F0000F
F8000F
78001F
78001E
3C003E
3E007C
1FC1F8
0FFFF8
07FFE0
01FF80
003C00
007800
007000
007000
007000
007F00
003F00
000400
ENDCHAR
STARTCHAR 0173
ENCODING 371
SWIDTH 585 0
DWIDTH 26 0
BBX 22 30 3 -7
BITMAP
F00078
F00078
F00078
F00078
F00078
F00078
F00078
F00078
F00078
F00078
F00078
F00078
F00078
F00078
F00078
F000F8
7800F8
7800F8
7C01F8
3F0778
1FFE78
1FFC78
07F878
0000E0
0001C0
0001C0
0001C0
0001C0
0001FC
00007C
ENDCHAR
STARTCHAR 0174
ENCODING 372
SWIDTH 990 0
DWIDTH 44 0
BBX 42 41 1 0
BITMAP
00001E000000
00003F000000
00003F800000
000073800000
0000F3C00000
0001E1E00000
0003C0F00000
000000000000
000000000000
000000000000
F0001E0003C0
F0001E0003C0
F0003F0003C0
70003F0003C0
78003F000780
78007F800780
78007F800780
38007F800700
3C00F3C00F00
3C00F3C00F00
3C00F3C00F00
1E00E1E00E00
1E01E1E01E00
1E01E1E01E00
0E01C0F01E00
0F03C0F01C00
0F03C0F03C00
0F0380783C00
070780783800
078780787800
078700387800
078F003C7800
038F003C7000
03CE001CF000
03DE001EF000
03DE001EF000
01FE000FE000
01FC000FE000
01FC000FE000
00FC0007E000
00F80007C000
ENDCHAR
STARTCHAR 0175
ENCODING 373
SWIDTH 810 0
DWIDTH 36 0
BBX 33 33 2 0
BITMAP
0003C00000
0007E00000
000FF00000
000E780000
001C3C0000
003C1E0000
00780F0000
0000000000
0000000000
0000000000
E003C00780
F003C00700
F003E00F00
7007E00F00
7007E00F00
7807F00E00
780F701E00
380F701E00
3C0E781C00
3C1E781C00
3C1E383C00
1C1C3C3C00
1E3C3C3800
1E3C1C3800
0E381E7800
0E381E7800
0F780E7000
0F780EF000
07700FF000
07F00FE000
07F007E000
03E007E000
03E007E000
ENDCHAR
STARTCHAR 0176
ENCODING 374
SWIDTH 607 0
DWIDTH 27 0
BBX 23 41 2 0
BITMAP
003800
007C00
00FE00
01EF00
03C780
0783C0
0F01E0
000000
000000
000000
F0001E
F0001E
78003C
78003C
3C0078
3C0078
1E00F0
1E00F0
0F01E0
0F01E0
0783C0
0783C0
03C780
03C780
01EF00
01FF00
00FE00
00FE00
007C00
003C00
003C00
003C00
003C00
003C00
003C00
003C00
003C00
003C00
003C00
003C00
003C00
ENDCHAR
STARTCHAR 0177
ENCODING 375
SWIDTH 517 0
DWIDTH 23 0
BBX 21 42 2 -9
BITMAP
00F000
01F800
03FC00
079E00
0F0F00
0E0700
1C0780
000000
000000
000000
F00078
F000F0
F000F0
7801E0
7801E0
3801E0
3C03C0
3C03C0
1E0380
1E0780
0E0700
0F0F00
0F0F00
070E00
079E00
079C00
039C00
03FC00
01F800
01F800
01F000
00F000
00F000
01E000
01E000
03C000
03C000
078000
0F8000
FF0000
FE0000
FC0000
ENDCHAR
STARTCHAR 0178
ENCODING 376
SWIDTH 607 0
DWIDTH 27 0
BBX 23 40 2 0
BITMAP
0783C0
07C3C0
07C7C0
0783C0
010080
000000
000000
000000
000000
F0001E
F0001E
78003C
78003C
3C0078
3C0078
1E00F0
1E00F0
0F01E0
0F01E0
0783C0
0783C0
03C780
03C780
01EF00
01FF00
00FE00
00FE00
007C00
003C00
003C00
003C00
003C00
003C00
003C00
003C00
003C00
003C00
003C00
003C00
003C00
ENDCHAR
STARTCHAR 0179
ENCODING 377
SWIDTH 607 0
DWIDTH 27 0
BBX 22 42 2 0
BITMAP
0003C0
0003C0
000780
000700
000E00
001E00
001C00
003800
000000
000000
000000
FFFFFC
FFFFFC
FFFFFC
00003C
00007C
0000F8
0001F0
0001E0
0003E0
0007C0
000780
000F00
001F00
003E00
003C00
007C00
00F800
01F000
01E000
03E000
07C000
078000
0F8000
1F0000
3E0000
3C0000
7C0000
FFFFFC
FFFFFC
FFFFFC
FFFFFC
ENDCHAR
STARTCHAR 017A
ENCODING 378
SWIDTH 495 0
DWIDTH 22 0
BBX 18 35 2 0
BITMAP
000F00
000F00
001E00
001C00
003C00
003800
007000
00F000
000000
000000
000000
000000
7FFFC0
7FFFC0
7FFFC0
0007C0
000780
000F00
001E00
003C00
007C00
007800
00F000
01E000
03C000
07C000
078000
0F0000
1E0000
3C0000
7C0000
780000
FFFFC0
FFFFC0
FFFFC0
ENDCHAR
STARTCHAR 017B
ENCODING 379
SWIDTH 607 0
DWIDTH 27 0
BBX 22 40 2 0
BITMAP
003C00
007C00
007C00
003C00
001000
000000
000000
000000
000000
FFFFFC
FFFFFC
FFFFFC
00003C
00007C
0000F8
0001F0
0001E0
0003E0
0007C0
000780
000F00
001F00
003E00
003C00
007C00
00F800
01F000
01E000
03E000
07C000
078000
0F8000
1F0000
3E0000
3C0000
7C0000
FFFFFC
FFFFFC
FFFFFC
FFFFFC
ENDCHAR
STARTCHAR 017C
ENCODING 380
SWIDTH 495 0
DWIDTH 22 0
BBX 18 33 2 0
BITMAP
00C000
01E000
01F000
01F000
01E000
000000
000000
000000
000000
000000
7FFFC0
7FFFC0
7FFFC0
0007C0
000780
000F00
001E00
003C00
007C00
007800
00F000
01E000
03C000
07C000
078000
0F0000
1E0000
3C0000
7C0000
780000
FFFFC0
FFFFC0
FFFFC0
ENDCHAR
STARTCHAR 017D
ENCODING 381
SWIDTH 607 0
DWIDTH 27 0
BBX 22 41 2 0
BITMAP
0F01E0
0783C0
03C780
01EF00
00FE00
007E00
003C00
000000
000000
000000
FFFFFC
FFFFFC
FFFFFC
00003C
00007C
0000F8
0001F0
0001E0
0003E0
0007C0
000780
000F00
001F00
003E00
003C00
007C00
00F800
01F000
01E000
03E000
07C000
078000
0F8000
1F0000
3E0000
3C0000
7C0000
FFFFFC
FFFFFC
FFFFFC
FFFFFC
ENDCHAR
STARTCHAR 017E
ENCODING 382
SWIDTH 495 0
DWIDTH 22 0
BBX 18 33 2 0
BITMAP
3C0780
1E0F00
0F1E00
07BC00
03F800
01F000
00E000
000000
000000
000000
7FFFC0
7FFFC0
7FFFC0
0007C0
000780
000F00
001E00
003C00
007C00
007800
00F000
01E000
03C000
07C000
078000
0F0000
1E0000
3C0000
7C0000
780000
FFFFC0
FFFFC0
FFFFC0
ENDCHAR
STARTCHAR 01A0
ENCODING 416
SWIDTH 720 0
DWIDTH 32 0
BBX 28 35 2 0
BITMAP
000001C0
000001C0
000001C0
001F83C0
00FFFF80
03FFFF00
07FFFE00
0FE03F00
1F800F80
1F0007C0
3E0003C0
3C0003E0
7C0001E0
780001F0
780000F0
780000F0
F80000F0
F00000F0
F00000F0
F00000F0
F00000F0
F00000F0
F80000F0
780000F0
780000F0
780001E0
7C0001E0
3C0003E0
3E0007C0
1F000FC0
0FC01F80
07F8FF00
03FFFE00
01FFFC00
007FE000
ENDCHAR
STARTCHAR 01A1
ENCODING 417
SWIDTH 585 0
DWIDTH 26 0
BBX 22 28 2 0
BITMAP
00001C
00001C
00001C
00001C
00FE3C
07FFF8
0FFFE0
1F87E0
3E01F0
3C00F8
7C0078
780078
78003C
F0003C
F0003C
F0003C
F0003C
F0003C
F0003C
78003C
78003C
780078
3C00F8
3E01F0
1F83E0
0FFFE0
07FF80
01FF00
ENDCHAR
STARTCHAR 01AF
ENCODING 431
SWIDTH 675 0
DWIDTH 30 0
BBX 29 35 3 0
BITMAP
00000038
00000038
00000038
00000078
F00007F0
F00007E0
F0000700
F0000700
F0000700
F0000700
F0000700
F0000700
F0000700
F0000700
F0000700
F0000700
F0000700
F0000700
F0000700
F0000700
F0000700
F0000700
F0000700
F0000700
F0000F00
F0000F00
F8000F00
78001F00
78001E00
3C003E00
3E007C00
1FC1F800
0FFFF800
07FFE000
01FF8000
ENDCHAR
STARTCHAR 01B0
ENCODING 432
SWIDTH 607 0
DWIDTH 27 0
BBX 26 28 3 0
BITMAP
000001C0
000001C0
000003C0
00000380
00000780
F0007F00
F0007C00
F0007800
F0007800
F0007800
F0007800
F0007800
F0007800
F0007800
F0007800
F0007800
F0007800
F0007800
F0007800
F0007800
F000F800
7800F800
7800F800
7C01F800
3F077800
1FFE7800
1FFC7800
07F87800
ENDCHAR
STARTCHAR 02C6
ENCODING 710
SWIDTH 405 0
DWIDTH 18 0
BBX 15 7 2 26
BITMAP
0780
0FC0
1FE0
3CF0
3878
703C
F01E
ENDCHAR
STARTCHAR 02C7
ENCODING 711
SWIDTH 382 0
DWIDTH 17 0
BBX 14 7 2 26
BITMAP
E03C
7078
78F0
3DE0
1FC0
0FC0
0780
ENDCHAR
STARTCHAR 02D8
ENCODING 728
SWIDTH 382 0
DWIDTH 17 0
BBX 15 5 1 27
BITMAP
F00E
781E
3E7C
1FF8
07E0
ENDCHAR
STARTCHAR 02D9
ENCODING 729
SWIDTH 157 0
DWIDTH 7 0
BBX 5 5 1 28
BITMAP
30
78
F8
F8
78
ENDCHAR
STARTCHAR 02DA
ENCODING 730
SWIDTH 225 0
DWIDTH 10 0
BBX 8 8 1 27
BITMAP
3C
7E
63
C3
C3
67
7E
1C
ENDCHAR
STARTCHAR 02DB
ENCODING 731
SWIDTH 202 0
DWIDTH 9 0
BBX 7 8 1 -8
BITMAP
18
38
70
E0
E0
F0
7E
3E
ENDCHAR
STARTCHAR 02DC
ENCODING 732
SWIDTH 382 0
DWIDTH 17 0
BBX 13 4 2 28
BITMAP
7E38
7F38
E7F0
E1F0
ENDCHAR
STARTCHAR 0300
ENCODING 768
SWIDTH 0 0
DWIDTH 0 0
BBX 8 8 -10 28
BITMAP
F0
70
78
3C
1C
1E
0E
07
ENDCHAR
STARTCHAR 0301
ENCODING 769
SWIDTH 0 0
DWIDTH 0 0
BBX 8 8 -8 28
BITMAP
0F
1E
1C
3C
78
70
F0
E0
ENDCHAR
STARTCHAR 0302
ENCODING 770
SWIDTH 0 0
DWIDTH 0 0
BBX 15 7 -16 26
BITMAP
03C0
07E0
0FE0
1E70
3C78
783C
F01E
ENDCHAR
STARTCHAR 0303
ENCODING 771
SWIDTH 0 0
DWIDTH 0 0
BBX 13 4 -14 28
BITMAP
7C38
7F38
E7F0
C3F0
ENDCHAR
STARTCHAR 0304
ENCODING 772
SWIDTH 0 0
DWIDTH 0 0
BBX 13 2 -16 28
BITMAP
FFF8
FFF8
ENDCHAR
STARTCHAR 0306
ENCODING 774
SWIDTH 0 0
DWIDTH 0 0
BBX 15 5 -16 27
BITMAP
E01E
701C
7C78
3FF0
0FC0
ENDCHAR
STARTCHAR 0307
ENCODING 775
SWIDTH 0 0
DWIDTH 0 0
BBX 5 5 -8 28
BITMAP
70
F8
F8
F8
70
ENDCHAR
STARTCHAR 0308
ENCODING 776
SWIDTH 0 0
DWIDTH 0 0
BBX 14 5 -17 28
BITMAP
3038
787C
F87C
F87C
7838
ENDCHAR
STARTCHAR 0309
ENCODING 777
SWIDTH 0 0
DWIDTH 0 0
BBX 10 8 -11 28
BITMAP
1E00
7F80
7F80
E1C0
01C0
0380
0780
0E00
ENDCHAR
STARTCHAR 030A
ENCODING 778
SWIDTH 0 0
DWIDTH 0 0
BBX 8 8 -10 27
BITMAP
3C
7E
C7
C3
C3
E6
7E
38
ENDCHAR
STARTCHAR 030C
ENCODING 780
SWIDTH 0 0
DWIDTH 0 0
BBX 14 7 -16 26
BITMAP
E03C
7078
78F0
3DE0
1FC0
0FC0
0780
ENDCHAR
STARTCHAR 031B
ENCODING 795
SWIDTH 0 0
DWIDTH 0 0
BBX 8 7 -9 24
BITMAP
07
07
07
0F
3E
FC
F0
ENDCHAR
STARTCHAR 0323
ENCODING 803
SWIDTH 0 0
DWIDTH 0 0
BBX 5 5 -6 -10
BITMAP
70
78
F8
78
70
ENDCHAR
STARTCHAR 0327
ENCODING 807
SWIDTH 0 0
DWIDTH 0 0
BBX 9 11 -10 -11
BITMAP
3000
7000
6000
7E00
FF00
0380
0180
0380
0700
7F00
7C00
ENDCHAR
STARTCHAR 0328
ENCODING 808
SWIDTH 0 0
DWIDTH 0 0
BBX 7 8 -8 -8
BITMAP
30
70
E0
E0
C0
E0
FE
7E
ENDCHAR
STARTCHAR 1E80
ENCODING 7808
SWIDTH 990 0
DWIDTH 44 0
BBX 42 42 1 0
BITMAP
0001E0000000
0001E0000000
0000F0000000
000070000000
000078000000
000038000000
00001C000000
00001C000000
000000000000
000000000000
000000000000
F0001E0003C0
F0001E0003C0
F0003F0003C0
70003F0003C0
78003F000780
78007F800780
78007F800780
38007F800700
3C00F3C00F00
3C00F3C00F00
3C00F3C00F00
1E00E1E00E00
1E01E1E01E00
1E01E1E01E00
0E01C0F01E00
0F03C0F01C00
0F03C0F03C00
0F0380783C00
070780783800
078780787800
078700387800
078F003C7800
038F003C7000
03CE001CF000
03DE001EF000
03DE001EF000
01FE000FE000
01FC000FE000
01FC000FE000
00FC0007E000
00F80007C000
ENDCHAR
STARTCHAR 1E81
ENCODING 7809
SWIDTH 810 0
DWIDTH 36 0
BBX 33 35 2 0
BITMAP
0078000000
003C000000
001C000000
001E000000
000E000000
0007000000
0007800000
0003800000
0000000000
0000000000
0000000000
0000000000
E003C00780
F003C00700
F003E00F00
7007E00F00
7007E00F00
7807F00E00
780F701E00
380F701E00
3C0E781C00
3C1E781C00
3C1E383C00
1C1C3C3C00
1E3C3C3800
1E3C1C3800
0E381E7800
0E381E7800
0F780E7000
0F780EF000
07700FF000
07F00FE000
07F007E000
03E007E000
03E007E000
ENDCHAR
STARTCHAR 1E82
ENCODING 7810
SWIDTH 990 0
DWIDTH 44 0
BBX 42 42 1 0
BITMAP
000000F00000
000001E00000
000001C00000
000003C00000
000007800000
000007000000
00000F000000
00000E000000
000000000000
000000000000
000000000000
F0001E0003C0
F0001E0003C0
F0003F0003C0
70003F0003C0
78003F000780
78007F800780
78007F800780
38007F800700
3C00F3C00F00
3C00F3C00F00
3C00F3C00F00
1E00E1E00E00
1E01E1E01E00
1E01E1E01E00
0E01C0F01E00
0F03C0F01C00
0F03C0F03C00
0F0380783C00
070780783800
078780787800
078700387800
078F003C7800
038F003C7000
03CE001CF000
03DE001EF000
03DE001EF000
01FE000FE000
01FC000FE000
01FC000FE000
00FC0007E000
00F80007C000
ENDCHAR
STARTCHAR 1E83
ENCODING 7811
SWIDTH 810 0
DWIDTH 36 0
BBX 33 35 2 0
BITMAP
00001E0000
00001E0000
00003C0000
0000780000
0000780000
0000F00000
0000E00000
0001E00000
0000000000
0000000000
0000000000
0000000000
E003C00780
F003C00700
F003E00F00
7007E00F00
7007E00F00
7807F00E00
780F701E00
380F701E00
3C0E781C00
3C1E781C00
3C1E383C00
1C1C3C3C00
1E3C3C3800
1E3C1C3800
0E381E7800
0E381E7800
0F780E7000
0F780EF000
07700FF000
07F00FE000
07F007E000
03E007E000
03E007E000
ENDCHAR
STARTCHAR 1E84
ENCODING 7812
SWIDTH 990 0
DWIDTH 44 0
BBX 42 40 1 0
BITMAP
0001E0E00000
0003E1F00000
0003E1F00000
0001E1F00000
000000400000
000000000000
000000000000
000000000000
000000000000
F0001E0003C0
F0001E0003C0
F0003F0003C0
70003F0003C0
78003F000780
78007F800780
78007F800780
38007F800700
3C00F3C00F00
3C00F3C00F00
3C00F3C00F00
1E00E1E00E00
1E01E1E01E00
1E01E1E01E00
0E01C0F01E00
0F03C0F01C00
0F03C0F03C00
0F0380783C00
070780783800
078780787800
078700387800
078F003C7800
038F003C7000
03CE001CF000
03DE001EF000
03DE001EF000
01FE000FE000
01FC000FE000
01FC000FE000
00FC0007E000
00F80007C000
ENDCHAR
STARTCHAR 1E85
ENCODING 7813
SWIDTH 810 0
DWIDTH 36 0
BBX 33 33 2 0
BITMAP
00181C0000
003C3E0000
007C3E0000
003C3E0000
003C1C0000
0000000000
0000000000
0000000000
0000000000
0000000000
E003C00780
F003C00700
F003E00F00
7007E00F00
7007E00F00
7807F00E00
780F701E00
380F701E00
3C0E781C00
3C1E781C00
3C1E383C00
1C1C3C3C00
1E3C3C3800
1E3C1C3800
0E381E7800
0E381E7800
0F780E7000
0F780EF000
07700FF000
07F00FE000
07F007E000
03E007E000
03E007E000
ENDCHAR
STARTCHAR 1EA0
ENCODING 7840
SWIDTH 675 0
DWIDTH 30 0
BBX 27 41 2 -10
BITMAP
001E0000
001F0000
003F0000
003F0000
003F8000
007F8000
00738000
00F3C000
00F1C000
00E1E000
01E1E000
01E0E000
01C0F000
03C0F000
03807000
07807800
07807800
07003C00
0F003C00
0FFFFC00
0FFFFE00
1FFFFE00
1E000E00
3C000F00
3C000F00
3C000780
78000780
78000380
700003C0
F00003C0
F00001E0
00000000
00000000
00000000
00000000
00000000
000E0000
001E0000
001F0000
001E0000
000E0000
ENDCHAR
STARTCHAR 1EA1
ENCODING 7841
SWIDTH 607 0
DWIDTH 27 0
BBX 22 34 2 -10
BITMAP
01F800
07FE3C
0FFF3C
1F87BC
3E01FC
7C00FC
78007C
78007C
F0003C
F0003C
F0003C
F0003C
F0003C
F0003C
F0003C
F0003C
78007C
78007C
7C00FC
3E01FC
3F03BC
1FFF3C
0FFE3C
03FC3C
000000
000000
000000
000000
000000
003800
007C00
007C00
007C00
003800
ENDCHAR
STARTCHAR 1EA2
ENCODING 7842
SWIDTH 675 0
DWIDTH 30 0
BBX 27 42 2 0
BITMAP
003F0000
007F8000
00F1C000
0001C000
0001C000
00038000
00070000
000E0000
00000000
00000000
00000000
001E0000
001F0000
003F0000
003F0000
003F8000
007F8000
00738000
00F3C000
00F1C000
00E1E000
01E1E000
01E0E000
01C0F000
03C0F000
03807000
07807800
07807800
07003C00
0F003C00
0FFFFC00
0FFFFE00
1FFFFE00
1E000E00
3C000F00
3C000F00
3C000780
78000780
78000380
700003C0
F00003C0
F00001E0
ENDCHAR
STARTCHAR 1EA3
ENCODING 7843
SWIDTH 607 0
DWIDTH 27 0
BBX 22 35 2 0
BITMAP
003C00
00FE00
01FF00
01C700
000300
000700
000E00
001C00
000000
000000
000000
01F800
07FE3C
0FFF3C
1F87BC
3E01FC
7C00FC
78007C
78007C
F0003C
F0003C
F0003C
F0003C
F0003C
F0003C
F0003C
F0003C
78007C
78007C
7C00FC
3E01FC
3F03BC
1FFF3C
0FFE3C
03FC3C
ENDCHAR
STARTCHAR 1EA4
ENCODING 7844
SWIDTH 675 0
DWIDTH 30 0
BBX 27 48 2 0
BITMAP
000001E0
000003C0
000003C0
00000780
00000700
00000E00
00001E00
001E1C00
003F0000
003F8000
00738000
00F1C000
01E1E000
03C0F000
00000000
00000000
00000000
001E0000
001F0000
003F0000
003F0000
003F8000
007F8000
00738000
00F3C000
00F1C000
00E1E000
01E1E000
01E0E000
01C0F000
03C0F000
03807000
07807800
07807800
07003C00
0F003C00
0FFFFC00
0FFFFE00
1FFFFE00
1E000E00
3C000F00
3C000F00
3C000780
78000780
78000380
700003C0
F00003C0
F00001E0
ENDCHAR
STARTCHAR 1EA5
ENCODING 7845
SWIDTH 607 0
DWIDTH 27 0
BBX 25 40 2 0
BITMAP
00000780
00000780
00000F00
00001E00
00001C00
00003C00
00003800
003C7000
007C0000
00FE0000
01EF0000
03C78000
0783C000
0F01E000
00000000
00000000
01F80000
07FE3C00
0FFF3C00
1F87BC00
3E01FC00
7C00FC00
78007C00
78007C00
F0003C00
F0003C00
F0003C00
F0003C00
F0003C00
F0003C00
F0003C00
F0003C00
78007C00
78007C00
7C00FC00
3E01FC00
3F03BC00
1FFF3C00
0FFE3C00
03FC3C00
ENDCHAR
STARTCHAR 1EA6
ENCODING 7846
SWIDTH 675 0
DWIDTH 30 0
BBX 27 48 2 0
BITMAP
00078000
0003C000
0001C000
0001E000
0000E000
00007000
00007800
001E3800
003F0000
003F8000
00738000
00F1C000
01E1E000
03C0F000
00000000
00000000
00000000
001E0000
001F0000
003F0000
003F0000
003F8000
007F8000
00738000
00F3C000
00F1C000
00E1E000
01E1E000
01E0E000
01C0F000
03C0F000
03807000
07807800
07807800
07003C00
0F003C00
0FFFFC00
0FFFFE00
1FFFFE00
1E000E00
3C000F00
3C000F00
3C000780
78000780
78000380
700003C0
F00003C0
F00001E0
ENDCHAR
STARTCHAR 1EA7
ENCODING 7847
SWIDTH 607 0
DWIDTH 27 0
BBX 22 40 2 0
BITMAP
000F00
000780
000780
0003C0
0001C0
0001E0
0000E0
003C70
007C00
00FE00
01EF00
03C780
0783C0
0F01E0
000000
000000
01F800
07FE3C
0FFF3C
1F87BC
3E01FC
7C00FC
78007C
78007C
F0003C
F0003C
F0003C
F0003C
F0003C
F0003C
F0003C
F0003C
78007C
78007C
7C00FC
3E01FC
3F03BC
1FFF3C
0FFE3C
03FC3C
ENDCHAR
STARTCHAR 1EA8
ENCODING 7848
SWIDTH 675 0
DWIDTH 30 0
BBX 27 48 2 0
BITMAP
00007E00
0000FF00
0001E700
0001C380
00000380
00000700
00000E00
001E1C00
003F0000
003F8000
00738000
00F1C000
01E1E000
03C0F000
00000000
00000000
00000000
001E0000
001F0000
003F0000
003F0000
003F8000
007F8000
00738000
00F3C000
00F1C000
00E1E000
01E1E000
01E0E000
01C0F000
03C0F000
03807000
07807800
07807800
07003C00
0F003C00
0FFFFC00
0FFFFE00
1FFFFE00
1E000E00
3C000F00
3C000F00
3C000780
78000780
78000380
700003C0
F00003C0
F00001E0
ENDCHAR
STARTCHAR 1EA9
ENCODING 7849
SWIDTH 607 0
DWIDTH 27 0
BBX 23 40 2 0
BITMAP
0001FC
0003FE
00038E
00000E
00000E
00001E
000038
003C70
007C00
00FE00
01EF00
03C780
0783C0
0F01E0
000000
000000
01F800
07FE3C
0FFF3C
1F87BC
3E01FC
7C00FC
78007C
78007C
F0003C
F0003C
F0003C
F0003C
F0003C
F0003C
F0003C
F0003C
78007C
78007C
7C00FC
3E01FC
3F03BC
1FFF3C
0FFE3C
03FC3C
ENDCHAR
STARTCHAR 1EAA
ENCODING 7850
SWIDTH 675 0
DWIDTH 30 0
BBX 27 47 2 0
BITMAP
00F86000
00FC6000
01FFE000
0187E000
01838000
00000000
001E0000
003F0000
003F8000
00738000
00F1C000
01E1E000
03C0F000
00000000
00000000
00000000
001E0000
001F0000
003F0000
003F0000
003F8000
007F8000
00738000
00F3C000
00F1C000
00E1E000
01E1E000
01E0E000
01C0F000
03C0F000
03807000
07807800
07807800
07003C00
0F003C00
0FFFFC00
0FFFFE00
1FFFFE00
1E000E00
3C000F00
3C000F00
3C000780
78000780
78000380
700003C0
F00003C0
F00001E0
ENDCHAR
STARTCHAR 1EAB
ENCODING 7851
SWIDTH 607 0
DWIDTH 27 0
BBX 22 39 2 0
BITMAP
01F0C0
03F9C0
033F80
070F80
000000
000000
003C00
007C00
00FE00
01EF00
03C780
0783C0
0F01E0
000000
000000
01F800
07FE3C
0FFF3C
1F87BC
3E01FC
7C00FC
78007C
78007C
F0003C
F0003C
F0003C
F0003C
F0003C
F0003C
F0003C
F0003C
78007C
78007C
7C00FC
3E01FC
3F03BC
1FFF3C
0FFE3C
03FC3C
ENDCHAR
STARTCHAR 1EAC
ENCODING 7852
SWIDTH 675 0
DWIDTH 30 0
BBX 27 51 2 -10
BITMAP
001E0000
003F0000
003F8000
00738000
00F1C000
01E1E000
03C0F000
00000000
00000000
00000000
001E0000
001F0000
003F0000
003F0000
003F8000
007F8000
00738000
00F3C000
00F1C000
00E1E000
01E1E000
01E0E000
01C0F000
03C0F000
03807000
07807800
07807800
07003C00
0F003C00
0FFFFC00
0FFFFE00
1FFFFE00
1E000E00
3C000F00
3C000F00
3C000780
78000780
78000380
700003C0
F00003C0
F00001E0
00000000
00000000
00000000
00000000
00000000
000E0000
001E0000
001F0000
001E0000
000E0000
ENDCHAR
STARTCHAR 1EAD
ENCODING 7853
SWIDTH 607 0
DWIDTH 27 0
BBX 22 43 2 -10
BITMAP
003C00
007C00
00FE00
01EF00
03C780
0783C0
0F01E0
000000
000000
01F800
07FE3C
0FFF3C
1F87BC
3E01FC
7C00FC
78007C
78007C
F0003C
F0003C
F0003C
F0003C
F0003C
F0003C
F0003C
F0003C
78007C
78007C
7C00FC
3E01FC
3F03BC
1FFF3C
0FFE3C
03FC3C
000000
000000
000000
000000
000000
003800
007C00
007C00
007C00
003800
ENDCHAR
STARTCHAR 1EAE
ENCODING 7854
SWIDTH 675 0
DWIDTH 30 0
BBX 27 49 2 0
BITMAP
0000F000
0001E000
0001E000
0003C000
00038000
00078000
00070000
000E0000
00000000
00000000
03C07000
01E1E000
00FFC000
007F8000
00000000
00000000
00000000
00000000
001E0000
001F0000
003F0000
003F0000
003F8000
007F8000
00738000
00F3C000
00F1C000
00E1E000
01E1E000
01E0E000
01C0F000
03C0F000
03807000
07807800
07807800
07003C00
0F003C00
0FFFFC00
0FFFFE00
1FFFFE00
1E000E00
3C000F00
3C000F00
3C000780
78000780
78000380
700003C0
F00003C0
F00001E0
ENDCHAR
STARTCHAR 1EAF
ENCODING 7855
SWIDTH 607 0
DWIDTH 27 0
BBX 22 41 2 0
BITMAP
0003C0
0003C0
000780
000700
000F00
000E00
001C00
001C00
000000
0F00E0
0701C0
03E7C0
01FF80
007E00
000000
000000
000000
01F800
07FE3C
0FFF3C
1F87BC
3E01FC
7C00FC
78007C
78007C
F0003C
F0003C
F0003C
F0003C
F0003C
F0003C
F0003C
F0003C
78007C
78007C
7C00FC
3E01FC
3F03BC
1FFF3C
0FFE3C
03FC3C
ENDCHAR
STARTCHAR 1EB0
ENCODING 7856
SWIDTH 675 0
DWIDTH 30 0
BBX 27 49 2 0
BITMAP
03C00000
01E00000
00E00000
00F00000
00780000
00380000
003C0000
001C0000
00000000
00000000
03C07000
01E1E000
00FFE000
007F8000
00000000
00000000
00000000
00000000
001E0000
001F0000
003F0000
003F0000
003F8000
007F8000
00738000
00F3C000
00F1C000
00E1E000
01E1E000
01E0E000
01C0F000
03C0F000
03807000
07807800
07807800
07003C00
0F003C00
0FFFFC00
0FFFFE00
1FFFFE00
1E000E00
3C000F00
3C000F00
3C000780
78000780
78000380
700003C0
F00003C0
F00001E0
ENDCHAR
STARTCHAR 1EB1
ENCODING 7857
SWIDTH 607 0
DWIDTH 27 0
BBX 22 41 2 0
BITMAP
078000
03C000
03C000
01E000
00E000
00F000
007000
003800
000000
0F00E0
0781E0
03E7C0
01FF80
007E00
000000
000000
000000
01F800
07FE3C
0FFF3C
1F87BC
3E01FC
7C00FC
78007C
78007C
F0003C
F0003C
F0003C
F0003C
F0003C
F0003C
F0003C
F0003C
78007C
78007C
7C00FC
3E01FC
3F03BC
1FFF3C
0FFE3C
03FC3C
ENDCHAR
STARTCHAR 1EB2
ENCODING 7858
SWIDTH 675 0
DWIDTH 30 0
BBX 27 49 2 0
BITMAP
001E0000
007F8000
007F8000
00E1C000
0001C000
00018000
00078000
000E0000
00000000
00000000
03C07000
01E1E000
00FFC000
007F8000
00000000
00000000
00000000
00000000
001E0000
001F0000
003F0000
003F0000
003F8000
007F8000
00738000
00F3C000
00F1C000
00E1E000
01E1E000
01E0E000
01C0F000
03C0F000
03807000
07807800
07807800
07003C00
0F003C00
0FFFFC00
0FFFFE00
1FFFFE00
1E000E00
3C000F00
3C000F00
3C000780
78000780
78000380
700003C0
F00003C0
F00001E0
ENDCHAR
STARTCHAR 1EB3
ENCODING 7859
SWIDTH 607 0
DWIDTH 27 0
BBX 22 41 2 0
BITMAP
007C00
00FF00
01E700
01C300
000700
000700
000E00
003C00
000000
0F00E0
0701C0
03E7C0
01FF80
007E00
000000
000000
000000
01F800
07FE3C
0FFF3C
1F87BC
3E01FC
7C00FC
78007C
78007C
F0003C
F0003C
F0003C
F0003C
F0003C
F0003C
F0003C
F0003C
78007C
78007C
7C00FC
3E01FC
3F03BC
1FFF3C
0FFE3C
03FC3C
ENDCHAR
STARTCHAR 1EB4
ENCODING 7860
SWIDTH 675 0
DWIDTH 30 0
BBX 27 46 2 0
BITMAP
00F86000
01FE6000
01CFE000
0187C000
00000000
00000000
00000000
03807000
01E1E000
00FFC000
007F8000
00000000
00000000
00000000
00000000
001E0000
001F0000
003F0000
003F0000
003F8000
007F8000
00738000
00F3C000
00F1C000
00E1E000
01E1E000
01E0E000
01C0F000
03C0F000
03807000
07807800
07807800
07003C00
0F003C00
0FFFFC00
0FFFFE00
1FFFFE00
1E000E00
3C000F00
3C000F00
3C000780
78000780
78000380
700003C0
F00003C0
F00001E0
ENDCHAR
STARTCHAR 1EB5
ENCODING 7861
SWIDTH 607 0
DWIDTH 27 0
BBX 22 39 2 0
BITMAP
00C0C0
03F1C0
03FFC0
071F80
070F00
000000
000000
0E00E0
0701C0
03C7C0
01FF00
00FE00
000000
000000
000000
01F800
07FE3C
0FFF3C
1F87BC
3E01FC
7C00FC
78007C
78007C
F0003C
F0003C
F0003C
F0003C
F0003C
F0003C
F0003C
F0003C
78007C
78007C
7C00FC
3E01FC
3F03BC
1FFF3C
0FFE3C
03FC3C
ENDCHAR
STARTCHAR 1EB6
ENCODING 7862
SWIDTH 675 0
DWIDTH 30 0
BBX 27 49 2 -10
BITMAP
03C07000
01E1E000
00FFC000
007F8000
00000000
00000000
00000000
00000000
001E0000
001F0000
003F0000
003F0000
003F8000
007F8000
00738000
00F3C000
00F1C000
00E1E000
01E1E000
01E0E000
01C0F000
03C0F000
03807000
07807800
07807800
07003C00
0F003C00
0FFFFC00
0FFFFE00
1FFFFE00
1E000E00
3C000F00
3C000F00
3C000780
78000780
78000380
700003C0
F00003C0
F00001E0
00000000
00000000
00000000
00000000
00000000
000E0000
001E0000
001F0000
001E0000
000E0000
ENDCHAR
STARTCHAR 1EB7
ENCODING 7863
SWIDTH 607 0
DWIDTH 27 0
BBX 22 42 2 -10
BITMAP
0E00E0
0701C0
03C7C0
01FF00
00FE00
000000
000000
000000
01F800
07FE3C
0FFF3C
1F87BC
3E01FC
7C00FC
78007C
78007C
F0003C
F0003C
F0003C
F0003C
F0003C
F0003C
F0003C
F0003C
78007C
78007C
7C00FC
3E01FC
3F03BC
1FFF3C
0FFE3C
03FC3C
000000
000000
000000
000000
000000
003800
007C00
007C00
007C00
003800
ENDCHAR
STARTCHAR 1EB8
ENCODING 7864
SWIDTH 562 0
DWIDTH 25 0
BBX 19 41 3 -10
BITMAP
FFFFE0
FFFFE0
FFFFE0
F00000
F00000
F00000
F00000
F00000
F00000
F00000
F00000
F00000
F00000
F00000
FFFFC0
FFFFC0
FFFFC0
F00000
F00000
F00000
F00000
F00000
F00000
F00000
F00000
F00000
F00000
F00000
FFFFE0
FFFFE0
FFFFE0
000000
000000
000000
000000
000000
00F000
00F000
01F000
00F000
006000
ENDCHAR
STARTCHAR 1EB9
ENCODING 7865
SWIDTH 562 0
DWIDTH 25 0
BBX 22 34 2 -10
BITMAP
00FE00
07FF80
0FFFC0
1F03E0
3E00F0
3C00F0
780078
780078
700038
F00038
F0003C
FFFFFC
FFFFFC
F00000
F00000
700000
780000
780078
3C0078
3E00F0
1F03E0
0FFFE0
07FF80
01FF00
000000
000000
000000
000000
000000
003800
007C00
007C00
007C00
003800
ENDCHAR
STARTCHAR 1EBA
ENCODING 7866
SWIDTH 562 0
DWIDTH 25 0
BBX 19 42 3 0
BITMAP
01F800
03FC00
070E00
000E00
001C00
001C00
007800
00F000
000000
000000
000000
FFFFE0
FFFFE0
FFFFE0
F00000
F00000
F00000
F00000
F00000
F00000
F00000
F00000
F00000
F00000
F00000
FFFFC0
FFFFC0
FFFFC0
F00000
F00000
F00000
F00000
F00000
F00000
F00000
F00000
F00000
F00000
F00000
FFFFE0
FFFFE0
FFFFE0
ENDCHAR
STARTCHAR 1EBB
ENCODING 7867
SWIDTH 562 0
DWIDTH 25 0
BBX 22 35 2 0
BITMAP
007800
00FE00
01FF00
01C700
000700
000700
000E00
003C00
000000
000000
000000
00FE00
07FF80
0FFFC0
1F03E0
3E00F0
3C00F0
780078
780078
700038
F00038
F0003C
FFFFFC
FFFFFC
F00000
F00000
700000
780000
780078
3C0078
3E00F0
1F03E0
0FFFE0
07FF80
01FF00
ENDCHAR
STARTCHAR 1EBC
ENCODING 7868
SWIDTH 562 0
DWIDTH 25 0
BBX 19 40 3 0
BITMAP
078300
0FE300
0FFF00
0C7E00
0C1C00
000000
000000
000000
000000
FFFFE0
FFFFE0
FFFFE0
F00000
F00000
F00000
F00000
F00000
F00000
F00000
F00000
F00000
F00000
F00000
FFFFC0
FFFFC0
FFFFC0
F00000
F00000
F00000
F00000
F00000
F00000
F00000
F00000
F00000
F00000
F00000
FFFFE0
FFFFE0
FFFFE0
ENDCHAR
STARTCHAR 1EBD
ENCODING 7869
SWIDTH 562 0
DWIDTH 25 0
BBX 22 32 2 0
BITMAP
03E1C0
07F980
073F80
061F00
000000
000000
000000
000000
00FE00
07FF80
0FFFC0
1F03E0
3E00F0
3C00F0
780078
780078
700038
F00038
F0003C
FFFFFC
FFFFFC
F00000
F00000
700000
780000
780078
3C0078
3E00F0
1F03E0
0FFFE0
07FF80
01FF00
ENDCHAR
STARTCHAR 1EBE
ENCODING 7870
SWIDTH 562 0
DWIDTH 25 0
BBX 24 48 3 0
BITMAP
00000F
00001E
00003C
00003C
000078
000070
0000F0
00F0E0
01F800
03F800
03BC00
071E00
0F0F00
1E0780
000000
000000
000000
FFFFE0
FFFFE0
FFFFE0
F00000
F00000
F00000
F00000
F00000
F00000
F00000
F00000
F00000
F00000
F00000
FFFFC0
FFFFC0
FFFFC0
F00000
F00000
F00000
F00000
F00000
F00000
F00000
F00000
F00000
F00000
F00000
FFFFE0
FFFFE0
FFFFE0
ENDCHAR
STARTCHAR 1EBF
ENCODING 7871
SWIDTH 562 0
DWIDTH 25 0
BBX 25 40 2 0
BITMAP
00000780
00000F00
00000E00
00001E00
00001C00
00003800
00007800
00787000
00FC0000
01FE0000
01CF0000
03878000
0783C000
0F01E000
00000000
00000000
00FE0000
07FF8000
0FFFC000
1F03E000
3E00F000
3C00F000
78007800
78007800
70003800
F0003800
F0003C00
FFFFFC00
FFFFFC00
F0000000
F0000000
70000000
78000000
78007800
3C007800
3E00F000
1F03E000
0FFFE000
07FF8000
01FF0000
ENDCHAR
STARTCHAR 1EC0
ENCODING 7872
SWIDTH 562 0
DWIDTH 25 0
BBX 19 48 3 0
BITMAP
003C00
001E00
001E00
000F00
000700
000780
000380
00F1C0
01F000
03F800
07BC00
071E00
0E0F00
1E0780
000000
000000
000000
FFFFE0
FFFFE0
FFFFE0
F00000
F00000
F00000
F00000
F00000
F00000
F00000
F00000
F00000
F00000
F00000
FFFFC0
FFFFC0
FFFFC0
F00000
F00000
F00000
F00000
F00000
F00000
F00000
F00000
F00000
F00000
F00000
FFFFE0
FFFFE0
FFFFE0
ENDCHAR
STARTCHAR 1EC1
ENCODING 7873
SWIDTH 562 0
DWIDTH 25 0
BBX 22 40 2 0
BITMAP
000F00
000F00
000780
000380
0003C0
0001C0
0000E0
0078E0
00FC00
01FE00
01CF00
038780
0783C0
0F01E0
000000
000000
00FE00
07FF80
0FFFC0
1F03E0
3E00F0
3C00F0
780078
780078
700038
F00038
F0003C
FFFFFC
FFFFFC
F00000
F00000
700000
780000
780078
3C0078
3E00F0
1F03E0
0FFFE0
07FF80
01FF00
ENDCHAR
STARTCHAR 1EC2
ENCODING 7874
SWIDTH 562 0
DWIDTH 25 0
BBX 21 48 3 0
BITMAP
0003E0
0007F8
000F78
000E18
000018
000038
000070
00F0E0
01F800
03F800
03BC00
071E00
0F0F00
1E0780
000000
000000
000000
FFFFE0
FFFFE0
FFFFE0
F00000
F00000
F00000
F00000
F00000
F00000
F00000
F00000
F00000
F00000
F00000
FFFFC0
FFFFC0
FFFFC0
F00000
F00000
F00000
F00000
F00000
F00000
F00000
F00000
F00000
F00000
F00000
FFFFE0
FFFFE0
FFFFE0
ENDCHAR
STARTCHAR 1EC3
ENCODING 7875
SWIDTH 562 0
DWIDTH 25 0
BBX 23 40 2 0
BITMAP
0001F8
0003FC
00038E
00000E
00000E
00001C
000038
007870
00FC00
01FE00
01CF00
038780
0783C0
0F01E0
000000
000000
00FE00
07FF80
0FFFC0
1F03E0
3E00F0
3C00F0
780078
780078
700038
F00038
F0003C
FFFFFC
FFFFFC
F00000
F00000
700000
780000
780078
3C0078
3E00F0
1F03E0
0FFFE0
07FF80
01FF00
ENDCHAR
STARTCHAR 1EC4
ENCODING 7876
SWIDTH 562 0
DWIDTH 25 0
BBX 19 47 3 0
BITMAP
078300
0FE300
0FFF00
0C7E00
0C1C00
000000
00F000
01F000
03F800
03BC00
071E00
0F0F00
1E0780
000000
000000
000000
FFFFE0
FFFFE0
FFFFE0
F00000
F00000
F00000
F00000
F00000
F00000
F00000
F00000
F00000
F00000
F00000
FFFFC0
FFFFC0
FFFFC0
F00000
F00000
F00000
F00000
F00000
F00000
F00000
F00000
F00000
F00000
F00000
FFFFE0
FFFFE0
FFFFE0
ENDCHAR
STARTCHAR 1EC5
ENCODING 7877
SWIDTH 562 0
DWIDTH 25 0
BBX 22 39 2 0
BITMAP
03E1C0
03F980
073F80
061F00
000000
000000
007800
00FC00
01FE00
01CF00
038780
0783C0
0F01E0
000000
000000
00FE00
07FF80
0FFFC0
1F03E0
3E00F0
3C00F0
780078
780078
700038
F00038
F0003C
FFFFFC
FFFFFC
F00000
F00000
700000
780000
780078
3C0078
3E00F0
1F03E0
0FFFE0
07FF80
01FF00
ENDCHAR
STARTCHAR 1EC6
ENCODING 7878
SWIDTH 562 0
DWIDTH 25 0
BBX 19 51 3 -10
BITMAP
00F000
01F800
03F800
03BC00
071E00
0F0F00
1E0780
000000
000000
000000
FFFFE0
FFFFE0
FFFFE0
F00000
F00000
F00000
F00000
F00000
F00000
F00000
F00000
F00000
F00000
F00000
FFFFC0
FFFFC0
FFFFC0
F00000
F00000
F00000
F00000
F00000
F00000
F00000
F00000
F00000
F00000
F00000
FFFFE0
FFFFE0
FFFFE0
000000
000000
000000
000000
000000
00F000
00F000
01F000
00F000
006000
ENDCHAR
STARTCHAR 1EC7
ENCODING 7879
SWIDTH 562 0
DWIDTH 25 0
BBX 22 43 2 -10
BITMAP
007800
00FC00
01FE00
01CF00
038780
0783C0
0F01E0
000000
000000
00FE00
07FF80
0FFFC0
1F03E0
3E00F0
3C00F0
780078
780078
700038
F00038
F0003C
FFFFFC
FFFFFC
F00000
F00000
700000
780000
780078
3C0078
3E00F0
1F03E0
0FFFE0
07FF80
01FF00
000000
000000
000000
000000
000000
003800
007C00
007C00
007C00
003800
ENDCHAR
STARTCHAR 1EC8
ENCODING 7880
SWIDTH 225 0
DWIDTH 10 0
BBX 9 42 1 0
BITMAP
7F00
FF80
E380
0380
0380
0700
0E00
1C00
0000
0000
0000
3C00
3C00
3C00
3C00
3C00
3C00
3C00
3C00
3C00
3C00
3C00
3C00
3C00
3C00
3C00
3C00
3C00
3C00
3C00
3C00
3C00
3C00
3C00
3C00
3C00
3C00
3C00
3C00
3C00
3C00
3C00
ENDCHAR
STARTCHAR 1EC9
ENCODING 7881
SWIDTH 247 0
DWIDTH 11 0
BBX 9 35 1 0
BITMAP
1E00
7F00
FF80
E380
0380
0380
0700
0E00
1000
0000
0000
0000
1C00
1C00
1C00
1C00
1C00
1C00
1C00
1C00
1C00
1C00
1C00
1C00
1C00
1C00
1C00
1C00
1C00
1C00
1C00
1C00
1C00
1C00
1C00
ENDCHAR
STARTCHAR 1ECA
ENCODING 7882
SWIDTH 225 0
DWIDTH 10 0
BBX 5 41 3 -10
BITMAP
F0
F0
F0
F0
F0
F0
F0
F0
F0
F0
F0
F0
F0
F0
F0
F0
F0
F0
F0
F0
F0
F0
F0
F0
F0
F0
F0
F0
F0
F0
F0
00
00
00
00
00
70
F8
F8
F8
70
ENDCHAR
STARTCHAR 1ECB
ENCODING 7883
SWIDTH 247 0
DWIDTH 11 0
BBX 5 43 3 -10
BITMAP
70
F8
F8
F8
70
00
00
00
00
00
70
70
70
70
70
70
70
70
70
70
70
70
70
70
70
70
70
70
70
70
70
70
70
00
00
00
00
00
70
F8
F8
F8
70
ENDCHAR
STARTCHAR 1ECC
ENCODING 7884
SWIDTH 720 0
DWIDTH 32 0
BBX 28 42 2 -10
BITMAP
001F8000
00FFF000
03FFFC00
07FFFE00
0FE03F00
1F800F80
1F0007C0
3E0003C0
3C0003E0
7C0001E0
780001F0
780000F0
780000F0
F80000F0
F00000F0
F00000F0
F00000F0
F00000F0
F00000F0
F80000F0
780000F0
780000F0
780001E0
7C0001E0
3C0003E0
3E0007C0
1F000FC0
0FC01F80
07F8FF00
03FFFE00
01FFFC00
007FE000
00000000
00000000
00000000
00000000
00000000
00070000
000F8000
000F8000
000F8000
00070000
ENDCHAR
STARTCHAR 1ECD
ENCODING 7885
SWIDTH 585 0
DWIDTH 26 0
BBX 22 34 2 -10
BITMAP
00FE00
07FF80
0FFFC0
1F87E0
3E01F0
3C00F8
7C0078
780078
78003C
F0003C
F0003C
F0003C
F0003C
F0003C
F0003C
78003C
78003C
780078
3C00F8
3E01F0
1F83E0
0FFFE0
07FF80
01FF00
000000
000000
000000
000000
000000
003800
007C00
007C00
007C00
003800
ENDCHAR
STARTCHAR 1ECE
ENCODING 7886
SWIDTH 720 0
DWIDTH 32 0
BBX 28 42 2 0
BITMAP
001FC000
003FE000
0038E000
0000E000
0000E000
0001C000
00038000
00070000
00000000
00000000
001F8000
00FFF000
03FFFC00
07FFFE00
0FE03F00
1F800F80
1F0007C0
3E0003C0
3C0003E0
7C0001E0
780001F0
780000F0
780000F0
F80000F0
F00000F0
F00000F0
F00000F0
F00000F0
F00000F0
F80000F0
780000F0
780000F0
780001E0
7C0001E0
3C0003E0
3E0007C0
1F000FC0
0FC01F80
07F8FF00
03FFFE00
01FFFC00
007FE000
ENDCHAR
STARTCHAR 1ECF
ENCODING 7887
SWIDTH 585 0
DWIDTH 26 0
BBX 22 35 2 0
BITMAP
007800
00FE00
01FF00
01C700
000700
000700
000E00
003C00
000000
000000
000000
00FE00
07FF80
0FFFC0
1F87E0
3E01F0
3C00F8
7C0078
780078
78003C
F0003C
F0003C
F0003C
F0003C
F0003C
F0003C
78003C
78003C
780078
3C00F8
3E01F0
1F83E0
0FFFE0
07FF80
01FF00
ENDCHAR
STARTCHAR 1ED0
ENCODING 7888
SWIDTH 720 0
DWIDTH 32 0
BBX 28 48 2 0
BITMAP
000000F0
000001E0
000001E0
000003C0
00000380
00000780
00000700
00070E00
000F8000
001FC000
003DE000
0078F000
00F07800
01E03800
00000000
00000000
001F8000
00FFF000
03FFFC00
07FFFE00
0FE03F00
1F800F80
1F0007C0
3E0003C0
3C0003E0
7C0001E0
780001F0
780000F0
780000F0
F80000F0
F00000F0
F00000F0
F00000F0
F00000F0
F00000F0
F80000F0
780000F0
780000F0
780001E0
7C0001E0
3C0003E0
3E0007C0
1F000FC0
0FC01F80
07F8FF00
03FFFE00
01FFFC00
007FE000
ENDCHAR
STARTCHAR 1ED1
ENCODING 7889
SWIDTH 585 0
DWIDTH 26 0
BBX 25 40 2 0
BITMAP
00000780
00000F00
00000E00
00001E00
00001C00
00003800
00007800
00787000
00FC0000
01FE0000
01CF0000
03878000
0783C000
0F01E000
00000000
00000000
00FE0000
07FF8000
0FFFC000
1F87E000
3E01F000
3C00F800
7C007800
78007800
78003C00
F0003C00
F0003C00
F0003C00
F0003C00
F0003C00
F0003C00
78003C00
78003C00
78007800
3C00F800
3E01F000
1F83E000
0FFFE000
07FF8000
01FF0000
ENDCHAR
STARTCHAR 1ED2
ENCODING 7890
SWIDTH 720 0
DWIDTH 32 0
BBX 28 48 2 0
BITMAP
0003E000
0001E000
0000F000
0000F000
00007800
00003800
00003C00
00071C00
000F8000
001FC000
003DE000
0078F000
00F07800
01E03800
00000000
00000000
001F8000
00FFF000
03FFFC00
07FFFE00
0FE03F00
1F800F80
1F0007C0
3E0003C0
3C0003E0
7C0001E0
780001F0
780000F0
780000F0
F80000F0
F00000F0
F00000F0
F00000F0
F00000F0
F00000F0
F80000F0
780000F0
780000F0
780001E0
7C0001E0
3C0003E0
3E0007C0
1F000FC0
0FC01F80
07F8FF00
03FFFE00
01FFFC00
007FE000
ENDCHAR
STARTCHAR 1ED3
ENCODING 7891
SWIDTH 585 0
DWIDTH 26 0
BBX 22 40 2 0
BITMAP
000F00
000F00
000780
000380
0003C0
0001C0
0000E0
0078E0
00FC00
01FE00
01CF00
038780
0783C0
0F01E0
000000
000000
00FE00
07FF80
0FFFC0
1F87E0
3E01F0
3C00F8
7C0078
780078
78003C
F0003C
F0003C
F0003C
F0003C
F0003C
F0003C
78003C
78003C
780078
3C00F8
3E01F0
1F83E0
0FFFE0
07FF80
01FF00
ENDCHAR
STARTCHAR 1ED4
ENCODING 7892
SWIDTH 720 0
DWIDTH 32 0
BBX 28 48 2 0
BITMAP
00001F00
00007F80
00007BC0
0000E1C0
000001C0
00000380
00000780
00070E00
000F8000
001FC000
003DE000
0078F000
00F07800
01E03800
00000000
00000000
001F8000
00FFF000
03FFFC00
07FFFE00
0FE03F00
1F800F80
1F0007C0
3E0003C0
3C0003E0
7C0001E0
780001F0
780000F0
780000F0
F80000F0
F00000F0
F00000F0
F00000F0
F00000F0
F00000F0
F80000F0
780000F0
780000F0
780001E0
7C0001E0
3C0003E0
3E0007C0
1F000FC0
0FC01F80
07F8FF00
03FFFE00
01FFFC00
007FE000
ENDCHAR
STARTCHAR 1ED5
ENCODING 7893
SWIDTH 585 0
DWIDTH 26 0
BBX 23 40 2 0
BITMAP
0001F8
0003FC
00038E
00000E
00000E
00001C
000038
007870
00FC00
01FE00
01CF00
038780
0783C0
0F01E0
000000
000000
00FE00
07FF80
0FFFC0
1F87E0
3E01F0
3C00F8
7C0078
780078
78003C
F0003C
F0003C
F0003C
F0003C
F0003C
F0003C
78003C
78003C
780078
3C00F8
3E01F0
1F83E0
0FFFE0
07FF80
01FF00
ENDCHAR
STARTCHAR 1ED6
ENCODING 7894
SWIDTH 720 0
DWIDTH 32 0
BBX 28 47 2 0
BITMAP
003C3800
007E3800
00FFF000
00E3F000
00C0C000
00000000
00070000
000F8000
001FC000
003DE000
0078F000
00F07800
01E03800
00000000
00000000
001F8000
00FFF000
03FFFC00
07FFFE00
0FE03F00
1F800F80
1F0007C0
3E0003C0
3C0003E0
7C0001E0
780001F0
780000F0
780000F0
F80000F0
F00000F0
F00000F0
F00000F0
F00000F0
F00000F0
F80000F0
780000F0
780000F0
780001E0
7C0001E0
3C0003E0
3E0007C0
1F000FC0
0FC01F80
07F8FF00
03FFFE00
01FFFC00
007FE000
ENDCHAR
STARTCHAR 1ED7
ENCODING 7895
SWIDTH 585 0
DWIDTH 26 0
BBX 22 39 2 0
BITMAP
03E1C0
03F980
073F80
061F00
000000
000000
007800
00FC00
01FE00
01CF00
038780
0783C0
0F01E0
000000
000000
00FE00
07FF80
0FFFC0
1F87E0
3E01F0
3C00F8
7C0078
780078
78003C
F0003C
F0003C
F0003C
F0003C
F0003C
F0003C
78003C
78003C
780078
3C00F8
3E01F0
1F83E0
0FFFE0
07FF80
01FF00
ENDCHAR
STARTCHAR 1ED8
ENCODING 7896
SWIDTH 720 0
DWIDTH 32 0
BBX 28 51 2 -10
BITMAP
00070000
000F8000
001FC000
003DE000
0078F000
00F07800
01E03800
00000000
00000000
001F8000
00FFF000
03FFFC00
07FFFE00
0FE03F00
1F800F80
1F0007C0
3E0003C0
3C0003E0
7C0001E0
780001F0
780000F0
780000F0
F80000F0
F00000F0
F00000F0
F00000F0
F00000F0
F00000F0
F80000F0
780000F0
780000F0
780001E0
7C0001E0
3C0003E0
3E0007C0
1F000FC0
0FC01F80
07F8FF00
03FFFE00
01FFFC00
007FE000
00000000
00000000
00000000
00000000
00000000
00070000
000F8000
000F8000
000F8000
00070000
ENDCHAR
STARTCHAR 1ED9
ENCODING 7897
SWIDTH 585 0
DWIDTH 26 0
BBX 22 43 2 -10
BITMAP
007800
00FC00
01FE00
01CF00
038780
0783C0
0F01E0
000000
000000
00FE00
07FF80
0FFFC0
1F87E0
3E01F0
3C00F8
7C0078
780078
78003C
F0003C
F0003C
F0003C
F0003C
F0003C
F0003C
78003C
78003C
780078
3C00F8
3E01F0
1F83E0
0FFFE0
07FF80
01FF00
000000
000000
000000
000000
000000
003800
007C00
007C00
007C00
003800
ENDCHAR
STARTCHAR 1EDA
ENCODING 7898
SWIDTH 720 0
DWIDTH 32 0
BBX 28 42 2 0
BITMAP
00007800
0000F000
0000F000
0001E000
0001C000
0003C000
00038000
000701C0
000001C0
000001C0
001F83C0
00FFFF80
03FFFF00
07FFFE00
0FE03F00
1F800F80
1F0007C0
3E0003C0
3C0003E0
7C0001E0
780001F0
780000F0
780000F0
F80000F0
F00000F0
F00000F0
F00000F0
F00000F0
F00000F0
F80000F0
780000F0
780000F0
780001E0
7C0001E0
3C0003E0
3E0007C0
1F000FC0
0FC01F80
07F8FF00
03FFFE00
01FFFC00
007FE000
ENDCHAR
STARTCHAR 1EDB
ENCODING 7899
SWIDTH 585 0
DWIDTH 26 0
BBX 22 35 2 0
BITMAP
0003C0
0003C0
000780
000F00
000F00
001E00
001C00
003C1C
00001C
00001C
00001C
00FE3C
07FFF8
0FFFE0
1F87E0
3E01F0
3C00F8
7C0078
780078
78003C
F0003C
F0003C
F0003C
F0003C
F0003C
F0003C
78003C
78003C
780078
3C00F8
3E01F0
1F83E0
0FFFE0
07FF80
01FF00
ENDCHAR
STARTCHAR 1EDC
ENCODING 7900
SWIDTH 720 0
DWIDTH 32 0
BBX 28 42 2 0
BITMAP
00F00000
00F00000
00780000
00380000
003C0000
001E0000
000E0000
000F01C0
000001C0
000001C0
001F83C0
00FFFF80
03FFFF00
07FFFE00
0FE03F00
1F800F80
1F0007C0
3E0003C0
3C0003E0
7C0001E0
780001F0
780000F0
780000F0
F80000F0
F00000F0
F00000F0
F00000F0
F00000F0
F00000F0
F80000F0
780000F0
780000F0
780001E0
7C0001E0
3C0003E0
3E0007C0
1F000FC0
0FC01F80
07F8FF00
03FFFE00
01FFFC00
007FE000
ENDCHAR
STARTCHAR 1EDD
ENCODING 7901
SWIDTH 585 0
DWIDTH 26 0
BBX 22 35 2 0
BITMAP
0F0000
078000
038000
03C000
01E000
00E000
00F000
00701C
00001C
00001C
00001C
00FE3C
07FFF8
0FFFE0
1F87E0
3E01F0
3C00F8
7C0078
780078
78003C
F0003C
F0003C
F0003C
F0003C
F0003C
F0003C
78003C
78003C
780078
3C00F8
3E01F0
1F83E0
0FFFE0
07FF80
01FF00
ENDCHAR
STARTCHAR 1EDE
ENCODING 7902
SWIDTH 720 0
DWIDTH 32 0
BBX 28 42 2 0
BITMAP
001FC000
003FE000
0038E000
0000E000
0000E000
0001C000
00038000
000701C0
000001C0
000001C0
001F83C0
00FFFF80
03FFFF00
07FFFE00
0FE03F00
1F800F80
1F0007C0
3E0003C0
3C0003E0
7C0001E0
780001F0
780000F0
780000F0
F80000F0
F00000F0
F00000F0
F00000F0
F00000F0
F00000F0
F80000F0
780000F0
780000F0
780001E0
7C0001E0
3C0003E0
3E0007C0
1F000FC0
0FC01F80
07F8FF00
03FFFE00
01FFFC00
007FE000
ENDCHAR
STARTCHAR 1EDF
ENCODING 7903
SWIDTH 585 0
DWIDTH 26 0
BBX 22 35 2 0
BITMAP
007800
00FE00
01FF00
01C700
000700
000700
000E00
003C1C
00001C
00001C
00001C
00FE3C
07FFF8
0FFFE0
1F87E0
3E01F0
3C00F8
7C0078
780078
78003C
F0003C
F0003C
F0003C
F0003C
F0003C
F0003C
78003C
78003C
780078
3C00F8
3E01F0
1F83E0
0FFFE0
07FF80
01FF00
ENDCHAR
STARTCHAR 1EE0
ENCODING 7904
SWIDTH 720 0
DWIDTH 32 0
BBX 28 40 2 0
BITMAP
003C3800
007E3800
00FFF000
00C3F000
00C0C000
000001C0
000001C0
000001C0
001F83C0
00FFFF80
03FFFF00
07FFFE00
0FE03F00
1F800F80
1F0007C0
3E0003C0
3C0003E0
7C0001E0
780001F0
780000F0
780000F0
F80000F0
F00000F0
F00000F0
F00000F0
F00000F0
F00000F0
F80000F0
780000F0
780000F0
780001E0
7C0001E0
3C0003E0
3E0007C0
1F000FC0
0FC01F80
07F8FF00
03FFFE00
01FFFC00
007FE000
ENDCHAR
STARTCHAR 1EE1
ENCODING 7905
SWIDTH 585 0
DWIDTH 26 0
BBX 22 32 2 0
BITMAP
03E1C0
07F980
073F80
061F00
00001C
00001C
00001C
00001C
00FE3C
07FFF8
0FFFE0
1F87E0
3E01F0
3C00F8
7C0078
780078
78003C
F0003C
F0003C
F0003C
F0003C
F0003C
F0003C
78003C
78003C
780078
3C00F8
3E01F0
1F83E0
0FFFE0
07FF80
01FF00
ENDCHAR
STARTCHAR 1EE2
ENCODING 7906
SWIDTH 720 0
DWIDTH 32 0
BBX 28 45 2 -10
BITMAP
000001C0
000001C0
000001C0
001F83C0
00FFFF80
03FFFF00
07FFFE00
0FE03F00
1F800F80
1F0007C0
3E0003C0
3C0003E0
7C0001E0
780001F0
780000F0
780000F0
F80000F0
F00000F0
F00000F0
F00000F0
F00000F0
F00000F0
F80000F0
780000F0
780000F0
780001E0
7C0001E0
3C0003E0
3E0007C0
1F000FC0
0FC01F80
07F8FF00
03FFFE00
01FFFC00
007FE000
00000000
00000000
00000000
00000000
00000000
00070000
000F8000
000F8000
000F8000
00070000
ENDCHAR
STARTCHAR 1EE3
ENCODING 7907
SWIDTH 585 0
DWIDTH 26 0
BBX 22 38 2 -10
BITMAP
00001C
00001C
00001C
00001C
00FE3C
07FFF8
0FFFE0
1F87E0
3E01F0
3C00F8
7C0078
780078
78003C
F0003C
F0003C
F0003C
F0003C
F0003C
F0003C
78003C
78003C
780078
3C00F8
3E01F0
1F83E0
0FFFE0
07FF80
01FF00
000000
000000
000000
000000
000000
003800
007C00
007C00
007C00
003800
ENDCHAR
STARTCHAR 1EE4
ENCODING 7908
SWIDTH 675 0
DWIDTH 30 0
BBX 24 41 3 -10
BITMAP
F00007
F00007
F00007
F00007
F00007
F00007
F00007
F00007
F00007
F00007
F00007
F00007
F00007
F00007
F00007
F00007
F00007
F00007
F00007
F00007
F0000F
F0000F
F8000F
78001F
78001E
3C003E
3E007C
1FC1F8
0FFFF8
07FFE0
01FF80
000000
000000
000000
000000
000000
001C00
003E00
003E00
003E00
001C00
ENDCHAR
STARTCHAR 1EE5
ENCODING 7909
SWIDTH 585 0
DWIDTH 26 0
BBX 21 33 3 -10
BITMAP
F00078
F00078
F00078
F00078
F00078
F00078
F00078
F00078
F00078
F00078
F00078
F00078
F00078
F00078
F00078
F000F8
7800F8
7800F8
7C01F8
3F0778
1FFE78
1FFC78
07F878
000000
000000
000000
000000
000000
00F000
00F000
01F000
00F000
006000
ENDCHAR
STARTCHAR 1EE6
ENCODING 7910
SWIDTH 675 0
DWIDTH 30 0
BBX 24 42 3 0
BITMAP
007F00
00FF00
00E380
000380
000380
000700
000E00
001C00
000000
000000
000000
F00007
F00007
F00007
F00007
F00007
F00007
F00007
F00007
F00007
F00007
F00007
F00007
F00007
F00007
F00007
F00007
F00007
F00007
F00007
F00007
F0000F
F0000F
F8000F
78001F
78001E
3C003E
3E007C
1FC1F8
0FFFF8
07FFE0
01FF80
ENDCHAR
STARTCHAR 1EE7
ENCODING 7911
SWIDTH 585 0
DWIDTH 26 0
BBX 21 35 3 0
BITMAP
00F000
03FC00
03FC00
070E00
000E00
001C00
003C00
007000
000000
000000
000000
000000
F00078
F00078
F00078
F00078
F00078
F00078
F00078
F00078
F00078
F00078
F00078
F00078
F00078
F00078
F00078
F000F8
7800F8
7800F8
7C01F8
3F0778
1FFE78
1FFC78
07F878
ENDCHAR
STARTCHAR 1EE8
ENCODING 7912
SWIDTH 675 0
DWIDTH 30 0
BBX 29 42 3 0
BITMAP
0001E000
0003C000
00038000
00078000
00070000
000E0000
001E0000
001C0038
00000038
00000038
00000078
F00007F0
F00007E0
F0000700
F0000700
F0000700
F0000700
F0000700
F0000700
F0000700
F0000700
F0000700
F0000700
F0000700
F0000700
F0000700
F0000700
F0000700
F0000700
F0000700
F0000700
F0000F00
F0000F00
F8000F00
78001F00
78001E00
3C003E00
3E007C00
1FC1F800
0FFFF800
07FFE000
01FF8000
ENDCHAR
STARTCHAR 1EE9
ENCODING 7913
SWIDTH 607 0
DWIDTH 27 0
BBX 26 35 3 0
BITMAP
00078000
000F0000
000F0000
001E0000
001C0000
00380000
00780000
007001C0
000001C0
000003C0
00000380
00000780
F0007F00
F0007C00
F0007800
F0007800
F0007800
F0007800
F0007800
F0007800
F0007800
F0007800
F0007800
F0007800
F0007800
F0007800
F0007800
F000F800
7800F800
7800F800
7C01F800
3F077800
1FFE7800
1FFC7800
07F87800
ENDCHAR
STARTCHAR 1EEA
ENCODING 7914
SWIDTH 675 0
DWIDTH 30 0
BBX 29 42 3 0
BITMAP
03C00000
03C00000
01E00000
00E00000
00F00000
00700000
00380000
003C0038
00000038
00000038
00000078
F00007F0
F00007E0
F0000700
F0000700
F0000700
F0000700
F0000700
F0000700
F0000700
F0000700
F0000700
F0000700
F0000700
F0000700
F0000700
F0000700
F0000700
F0000700
F0000700
F0000700
F0000F00
F0000F00
F8000F00
78001F00
78001E00
3C003E00
3E007C00
1FC1F800
0FFFF800
07FFE000
01FF8000
ENDCHAR
STARTCHAR 1EEB
ENCODING 7915
SWIDTH 607 0
DWIDTH 27 0
BBX 26 35 3 0
BITMAP
1E000000
0E000000
0F000000
07800000
03800000
03C00000
01C00000
00E001C0
000001C0
000003C0
00000380
00000780
F0007F00
F0007C00
F0007800
F0007800
F0007800
F0007800
F0007800
F0007800
F0007800
F0007800
F0007800
F0007800
F0007800
F0007800
F0007800
F000F800
7800F800
7800F800
7C01F800
3F077800
1FFE7800
1FFC7800
07F87800
ENDCHAR
STARTCHAR 1EEC
ENCODING 7916
SWIDTH 675 0
DWIDTH 30 0
BBX 29 42 3 0
BITMAP
007F0000
00FF0000
00E38000
00038000
00038000
00070000
000E0000
001C0038
00000038
00000038
00000078
F00007F0
F00007E0
F0000700
F0000700
F0000700
F0000700
F0000700
F0000700
F0000700
F0000700
F0000700
F0000700
F0000700
F0000700
F0000700
F0000700
F0000700
F0000700
F0000700
F0000700
F0000F00
F0000F00
F8000F00
78001F00
78001E00
3C003E00
3E007C00
1FC1F800
0FFFF800
07FFE000
01FF8000
ENDCHAR
STARTCHAR 1EED
ENCODING 7917
SWIDTH 607 0
DWIDTH 27 0
BBX 26 35 3 0
BITMAP
00F00000
03FC0000
03FC0000
070E0000
000E0000
001C0000
003C0000
007001C0
000001C0
000003C0
00000380
00000780
F0007F00
F0007C00
F0007800
F0007800
F0007800
F0007800
F0007800
F0007800
F0007800
F0007800
F0007800
F0007800
F0007800
F0007800
F0007800
F000F800
7800F800
7800F800
7C01F800
3F077800
1FFE7800
1FFC7800
07F87800
ENDCHAR
STARTCHAR 1EEE
ENCODING 7918
SWIDTH 675 0
DWIDTH 30 0
BBX 29 40 3 0
BITMAP
01F0E000
01F8C000
03BFC000
030FC000
03030000
00000038
00000038
00000038
00000078
F00007F0
F00007E0
F0000700
F0000700
F0000700
F0000700
F0000700
F0000700
F0000700
F0000700
F0000700
F0000700
F0000700
F0000700
F0000700
F0000700
F0000700
F0000700
F0000700
F0000700
F0000F00
F0000F00
F8000F00
78001F00
78001E00
3C003E00
3E007C00
1FC1F800
0FFFF800
07FFE000
01FF8000
ENDCHAR
STARTCHAR 1EEF
ENCODING 7919
SWIDTH 585 0
DWIDTH 26 0
BBX 26 32 3 0
BITMAP
07E38000
07F38000
0E7F0000
0E1F0000
000001C0
000001C0
000003C0
00000380
00000780
F0007F00
F0007C00
F0007800
F0007800
F0007800
F0007800
F0007800
F0007800
F0007800
F0007800
F0007800
F0007800
F0007800
F0007800
F0007800
F000F800
7800F800
7800F800
7C01F800
3F077800
1FFE7800
1FFC7800
07F87800
ENDCHAR
STARTCHAR 1EF0
ENCODING 7920
SWIDTH 675 0
DWIDTH 30 0
BBX 29 45 3 -10
BITMAP
00000038
00000038
00000038
00000078
F00007F0
F00007E0
F0000700
F0000700
F0000700
F0000700
F0000700
F0000700
F0000700
F0000700
F0000700
F0000700
F0000700
F0000700
F0000700
F0000700
F0000700
F0000700
F0000700
F0000700
F0000F00
F0000F00
F8000F00
78001F00
78001E00
3C003E00
3E007C00
1FC1F800
0FFFF800
07FFE000
01FF8000
00000000
00000000
00000000
00000000
00000000
001C0000
003E0000
003E0000
003E0000
001C0000
ENDCHAR
STARTCHAR 1EF1
ENCODING 7921
SWIDTH 607 0
DWIDTH 27 0
BBX 26 38 3 -10
BITMAP
000001C0
000001C0
000003C0
00000380
00000780
F0007F00
F0007C00
F0007800
F0007800
F0007800
F0007800
F0007800
F0007800
F0007800
F0007800
F0007800
F0007800
F0007800
F0007800
F0007800
F000F800
7800F800
7800F800
7C01F800
3F077800
1FFE7800
1FFC7800
07F87800
00000000
00000000
00000000
00000000
00000000
00F00000
00F00000
01F00000
00F00000
00600000
ENDCHAR
STARTCHAR 1EF2
ENCODING 7922
SWIDTH 607 0
DWIDTH 27 0
BBX 23 42 2 0
BITMAP
078000
03C000
03C000
01E000
00E000
00F000
007000
003800
000000
000000
000000
F0001E
F0001E
78003C
78003C
3C0078
3C0078
1E00F0
1E00F0
0F01E0
0F01E0
0783C0
0783C0
03C780
03C780
01EF00
01FF00
00FE00
00FE00
007C00
003C00
003C00
003C00
003C00
003C00
003C00
003C00
003C00
003C00
003C00
003C00
003C00
ENDCHAR
STARTCHAR 1EF3
ENCODING 7923
SWIDTH 517 0
DWIDTH 23 0
BBX 21 44 2 -9
BITMAP
1E0000
0F0000
0F0000
078000
038000
03C000
01C000
00E000
000000
000000
000000
000000
F00078
F000F0
F000F0
7801E0
7801E0
3801E0
3C03C0
3C03C0
1E0380
1E0780
0E0700
0F0F00
0F0F00
070E00
079E00
079C00
039C00
03FC00
01F800
01F800
01F000
00F000
00F000
01E000
01E000
03C000
03C000
078000
0F8000
FF0000
FE0000
FC0000
ENDCHAR
STARTCHAR 1EF4
ENCODING 7924
SWIDTH 607 0
DWIDTH 27 0
BBX 23 41 2 -10
BITMAP
F0001E
F0001E
78003C
78003C
3C0078
3C0078
1E00F0
1E00F0
0F01E0
0F01E0
0783C0
0783C0
03C780
03C780
01EF00
01FF00
00FE00
00FE00
007C00
003C00
003C00
003C00
003C00
003C00
003C00
003C00
003C00
003C00
003C00
003C00
003C00
000000
000000
000000
000000
000000
003800
007C00
007C00
007C00
003800
ENDCHAR
STARTCHAR 1EF5
ENCODING 7925
SWIDTH 517 0
DWIDTH 23 0
BBX 21 33 2 -10
BITMAP
F00078
F000F0
F000F0
7801E0
7801E0
3801E0
3C03C0
3C03C0
1E0380
1E0780
0E0700
0F0F00
0F0F00
070E00
079E00
079C00
039C00
03FC00
01F800
01F800
01F000
00F000
00F000
01E000
01E000
03C000
03C000
078000
0F81C0
FF03E0
FE03E0
FC03E0
0001C0
ENDCHAR
STARTCHAR 1EF6
ENCODING 7926
SWIDTH 607 0
DWIDTH 27 0
BBX 23 42 2 0
BITMAP
00FE00
01FF00
01C700
000300
000700
000F00
001C00
003800
000000
000000
000000
F0001E
F0001E
78003C
78003C
3C0078
3C0078
1E00F0
1E00F0
0F01E0
0F01E0
0783C0
0783C0
03C780
03C780
01EF00
01FF00
00FE00
00FE00
007C00
003C00
003C00
003C00
003C00
003C00
003C00
003C00
003C00
003C00
003C00
003C00
003C00
ENDCHAR
STARTCHAR 1EF7
ENCODING 7927
SWIDTH 517 0
DWIDTH 23 0
BBX 21 44 2 -9
BITMAP
00F000
03FC00
03FC00
070E00
000E00
001C00
003C00
007000
000000
000000
000000
000000
F00078
F000F0
F000F0
7801E0
7801E0
3801E0
3C03C0
3C03C0
1E0380
1E0780
0E0700
0F0F00
0F0F00
070E00
079E00
079C00
039C00
03FC00
01F800
01F800
01F000
00F000
00F000
01E000
01E000
03C000
03C000
078000
0F8000
FF0000
FE0000
FC0000
ENDCHAR
STARTCHAR 1EF8
ENCODING 7928
SWIDTH 607 0
DWIDTH 27 0
BBX 23 40 2 0
BITMAP
01E0C0
03F9C0
07FF80
071F80
070600
000000
000000
000000
000000
F0001E
F0001E
78003C
78003C
3C0078
3C0078
1E00F0
1E00F0
0F01E0
0F01E0
0783C0
0783C0
03C780
03C780
01EF00
01FF00
00FE00
00FE00
007C00
003C00
003C00
003C00
003C00
003C00
003C00
003C00
003C00
003C00
003C00
003C00
003C00
ENDCHAR
STARTCHAR 1EF9
ENCODING 7929
SWIDTH 517 0
DWIDTH 23 0
BBX 21 41 2 -9
BITMAP
07C300
0FE700
0CFF00
0C3E00
000000
000000
000000
000000
000000
F00078
F000F0
F000F0
7801E0
7801E0
3801E0
3C03C0
3C03C0
1E0380
1E0780
0E0700
0F0F00
0F0F00
070E00
079E00
079C00
039C00
03FC00
01F800
01F800
01F000
00F000
00F000
01E000
01E000
03C000
03C000
078000
0F8000
FF0000
FE0000
FC0000
ENDCHAR
STARTCHAR 2013
ENCODING 8211
SWIDTH 630 0
DWIDTH 28 0
BBX 19 3 5 12
BITMAP
FFFFE0
FFFFE0
FFFFE0
ENDCHAR
STARTCHAR 2014
ENCODING 8212
SWIDTH 765 0
DWIDTH 34 0
BBX 24 3 5 12
BITMAP
FFFFFF
FFFFFF
FFFFFF
ENDCHAR
STARTCHAR 2018
ENCODING 8216
SWIDTH 270 0
DWIDTH 12 0
BBX 5 11 4 23
BITMAP
30
60
C0
C0
C0
C0
F8
F8
F8
F8
30
ENDCHAR
STARTCHAR 2019
ENCODING 8217
SWIDTH 247 0
DWIDTH 11 0
BBX 6 11 4 20
BITMAP
70
F8
FC
FC
7C
1C
0C
18
18
30
60
ENDCHAR
STARTCHAR 201A
ENCODING 8218
SWIDTH 292 0
DWIDTH 13 0
BBX 6 11 3 -6
BITMAP
7C
FC
FC
7C
1C
0C
0C
0C
18
70
60
ENDCHAR
STARTCHAR 201C
ENCODING 8220
SWIDTH 495 0
DWIDTH 22 0
BBX 15 12 4 22
BITMAP
0004
300C
6018
C030
C030
C030
C030
F83E
F83E
FC3E
F83E
3000
ENDCHAR
STARTCHAR 201D
ENCODING 8221
SWIDTH 517 0
DWIDTH 23 0
BBX 15 11 4 21
BITMAP
F83C
F83E
F87E
F83E
380E
1806
1806
1806
300C
6038
4030
ENDCHAR
STARTCHAR 201E
ENCODING 8222
SWIDTH 517 0
DWIDTH 23 0
BBX 16 11 3 -7
BITMAP
7C1E
FC3F
FC3F
7C1F
1C07
0C03
0C03
0C02
1806
701C
6018
ENDCHAR
STARTCHAR 2020
ENCODING 8224
SWIDTH 562 0
DWIDTH 25 0
BBX 18 41 4 -10
BITMAP
01E000
01E000
01E000
01E000
01E000
01E000
01E000
01E000
FFFFC0
FFFFC0
FFFFC0
01E000
01E000
01E000
01E000
01E000
01E000
01E000
01E000
01E000
01E000
01E000
01E000
01E000
01E000
01E000
01E000
01E000
01E000
01E000
01E000
01E000
01E000
01E000
01E000
01E000
01E000
01E000
01E000
01E000
01E000
ENDCHAR
STARTCHAR 2021
ENCODING 8225
SWIDTH 562 0
DWIDTH 25 0
BBX 18 41 4 -10
BITMAP
01E000
01E000
01E000
01E000
01E000
01E000
01E000
01E000
FFFFC0
FFFFC0
FFFFC0
01E000
01E000
01E000
01E000
01E000
01E000
01E000
01E000
01E000
01E000
01E000
01E000
01E000
01E000
01E000
01E000
01E000
01E000
01E000
FFFFC0
FFFFC0
FFFFC0
FFFFC0
01E000
01E000
01E000
01E000
01E000
01E000
01E000
ENDCHAR
STARTCHAR 2022
ENCODING 8226
SWIDTH 382 0
DWIDTH 17 0
BBX 9 9 3 12
BITMAP
3E00
7F00
FF80
FF80
FF80
FF80
7F00
7F00
1C00
ENDCHAR
STARTCHAR 2026
ENCODING 8230
SWIDTH 787 0
DWIDTH 35 0
BBX 28 5 3 0
BITMAP
300700E0
780F81F0
FC0F81F0
780F81F0
780F00E0
ENDCHAR
STARTCHAR 2030
ENCODING 8240
SWIDTH 1170 0
DWIDTH 52 0
BBX 50 32 1 0
BITMAP
02000000000000
1FC001E0000000
3FE001C0000000
707003C0000000
70700380000000
E0700780000000
E0300700000000
E0700F00000000
70700E00000000
70701E00000000
78E01C00000000
3FE03C00000000
1FC03800000000
00007800000000
00007000000000
0000F000000000
0000E000000000
0001E000000000
0001C000000000
0003C000000000
0003807F007F00
000700FF80FF80
000701C381E1C0
000E01C1C1C1C0
000E01C1C1C1C0
001C0381C1C0C0
003C0381C1C0C0
00380181C1C0C0
007801C1C1C1C0
007001C381E1C0
00F000FF80FF80
00E0007F007F00
ENDCHAR
STARTCHAR 2039
ENCODING 8249
SWIDTH 360 0
DWIDTH 16 0
BBX 12 18 2 5
BITMAP
00F0
01E0
03C0
0780
0F00
1E00
3C00
7800
F000
F000
7800
3C00
1E00
0F00
0780
03C0
01E0
00F0
ENDCHAR
STARTCHAR 203A
ENCODING 8250
SWIDTH 360 0
DWIDTH 16 0
BBX 12 18 2 5
BITMAP
F800
3C00
3C00
1E00
0F00
0780
03C0
01E0
00F0
00F0
01E0
03C0
0780
0F00
1E00
3C00
7800
F000
ENDCHAR
STARTCHAR 2044
ENCODING 8260
SWIDTH 472 0
DWIDTH 21 0
BBX 21 31 0 0
BITMAP
000078
000070
0000F0
0000E0
0001E0
0003C0
000380
000780
000700
000F00
001E00
001C00
003C00
003800
007800
00F000
00E000
01E000
01C000
03C000
078000
078000
0F0000
0E0000
1E0000
1C0000
3C0000
780000
700000
F00000
E00000
ENDCHAR
STARTCHAR 2070
ENCODING 8304
SWIDTH 315 0
DWIDTH 14 0
BBX 13 17 1 17
BITMAP
0700
1FC0
3DE0
7070
7070
6070
E030
E038
E038
E038
E038
E030
6070
7070
38E0
3FE0
1FC0
ENDCHAR
STARTCHAR 2074
ENCODING 8308
SWIDTH 315 0
DWIDTH 14 0
BBX 13 17 1 17
BITMAP
01C0
03C0
03C0
06C0
0EC0
0CC0
18C0
38C0
30C0
60C0
E0C0
FFF8
FFF8
00C0
00C0
00C0
00C0
ENDCHAR
STARTCHAR 2075
ENCODING 8309
SWIDTH 292 0
DWIDTH 13 0
BBX 12 17 1 17
BITMAP
7FE0
7FE0
7FE0
6000
6000
6000
6FC0
FFE0
F0E0
0070
0070
0070
E070
E0E0
79E0
3FC0
1F00
ENDCHAR
STARTCHAR 2076
ENCODING 8310
SWIDTH 292 0
DWIDTH 13 0
BBX 12 17 1 17
BITMAP
0700
0600
0E00
1C00
1800
3800
3780
7FC0
70E0
E060
E070
E070
E070
6060
70E0
3FC0
1F80
ENDCHAR
STARTCHAR 2077
ENCODING 8311
SWIDTH 292 0
DWIDTH 13 0
BBX 11 17 1 17
BITMAP
FFE0
FFE0
FFE0
00E0
00C0
01C0
0180
0380
0300
0700
0700
0600
0E00
0C00
1C00
1800
3800
ENDCHAR
STARTCHAR 2078
ENCODING 8312
SWIDTH 315 0
DWIDTH 14 0
BBX 12 17 1 17
BITMAP
0F80
3FC0
78E0
7070
6070
6070
7060
3DE0
1F80
78E0
6070
E030
E030
E070
7070
7FE0
3FC0
ENDCHAR
STARTCHAR 2079
ENCODING 8313
SWIDTH 292 0
DWIDTH 13 0
BBX 12 17 1 17
BITMAP
0F00
3FC0
79E0
6060
E070
E070
E070
E070
70E0
3FE0
1FE0
00C0
0180
0380
0300
0700
0E00
ENDCHAR
STARTCHAR 2080
ENCODING 8320
SWIDTH 315 0
DWIDTH 14 0
BBX 13 17 1 -11
BITMAP
0F80
3FC0
38E0
7070
7070
E030
E030
E038
E038
E038
E038
E030
6070
7070
38E0
3FC0
0F80
ENDCHAR
STARTCHAR 2081
ENCODING 8321
SWIDTH 247 0
DWIDTH 11 0
BBX 9 16 1 -11
BITMAP
1C00
3C00
FC00
EC00
CC00
0C00
0C00
0C00
0C00
0C00
0C00
0C00
0C00
0C00
FF80
FF80
ENDCHAR
STARTCHAR 2082
ENCODING 8322
SWIDTH 292 0
DWIDTH 13 0
BBX 11 17 1 -11
BITMAP
0E00
3FC0
7BC0
60E0
E060
E060
00E0
00E0
01C0
0380
0700
0E00
1C00
3800
7000
FFE0
FFE0
ENDCHAR
STARTCHAR 2083
ENCODING 8323
SWIDTH 315 0
DWIDTH 14 0
BBX 12 17 1 -11
BITMAP
1F80
3FC0
70E0
6060
0070
0070
00E0
07C0
0780
01E0
0060
0070
0070
E070
70E0
3FE0
1F80
ENDCHAR
STARTCHAR 2084
ENCODING 8324
SWIDTH 315 0
DWIDTH 14 0
BBX 13 16 1 -11
BITMAP
03C0
03C0
06C0
0EC0
0CC0
18C0
38C0
30C0
60C0
60C0
FFF8
FFF8
00C0
00C0
00C0
00C0
ENDCHAR
STARTCHAR 2085
ENCODING 8325
SWIDTH 292 0
DWIDTH 13 0
BBX 12 17 1 -11
BITMAP
7FE0
7FE0
7FE0
6000
6000
6000
6F80
FFC0
F0E0
E070
0070
0070
0070
E060
70E0
3FC0
1F80
ENDCHAR
STARTCHAR 2086
ENCODING 8326
SWIDTH 292 0
DWIDTH 13 0
BBX 12 17 1 -11
BITMAP
0700
0600
0E00
0C00
1800
3800
3300
6FC0
79E0
E060
E070
E070
E070
E060
70E0
3FC0
1F80
ENDCHAR
STARTCHAR 2087
ENCODING 8327
SWIDTH 292 0
DWIDTH 13 0
BBX 11 16 1 -11
BITMAP
FFE0
FFE0
00E0
00C0
01C0
0180
0180
0380
0300
0700
0600
0E00
0C00
1C00
1C00
3800
ENDCHAR
STARTCHAR 2088
ENCODING 8328
SWIDTH 315 0
DWIDTH 14 0
BBX 12 17 1 -11
BITMAP
0F80
3FC0
70E0
6070
6070
6070
7060
3FC0
1FC0
70E0
6070
E030
E030
E070
70F0
7FE0
1FC0
ENDCHAR
STARTCHAR 2089
ENCODING 8329
SWIDTH 292 0
DWIDTH 13 0
BBX 12 17 1 -11
BITMAP
0600
3FC0
79E0
6060
E070
E070
E070
E070
70E0
3FE0
1FE0
00C0
01C0
0380
0300
0700
0E00
ENDCHAR
STARTCHAR 20AB
ENCODING 8363
SWIDTH 585 0
DWIDTH 26 0
BBX 24 36 2 0
BITMAP
000078
000078
000078
001FFF
001FFF
000078
000078
000078
07F878
1FFE78
3FFF78
7E07F8
7C01F8
F800F8
F000F8
F00078
F00078
E00078
E00078
F00078
F00078
F00078
F800F8
7801F8
7C03F8
3F8FF8
1FFF78
0FFC78
03F078
000000
000000
000000
000000
3FFFF8
3FFFF8
3FFFF8
ENDCHAR
STARTCHAR 20AC
ENCODING 8364
SWIDTH 697 0
DWIDTH 31 0
BBX 28 31 1 0
BITMAP
0007F000
003FFC00
007FFF00
00FFFF80
01F00FC0
03E003C0
03C001E0
078001E0
078000F0
0F0000F0
0F000070
FFFF8000
FFFF8000
FFFF8000
0E000000
1E000000
1E000000
0F000000
FFFF8000
FFFF8000
0F000000
0F0000F0
078000F0
078000E0
07C001E0
03E003E0
01F007C0
01FC3F80
00FFFF00
003FFE00
000FF800
ENDCHAR
STARTCHAR 2122
ENCODING 8482
SWIDTH 382 0
DWIDTH 17 0
BBX 15 7 1 24
BITMAP
FDCE
31CE
31FE
31FE
31B6
31B6
3186
ENDCHAR
STARTCHAR 215B
ENCODING 8539
SWIDTH 877 0
DWIDTH 39 0
BBX 36 31 2 0
BITMAP
3C00007800
7C0000F000
FC0000E000
FC0001E000
DC0001C000
9C0003C000
1C00078000
1C00070000
1C000F0000
1C000E0000
1C001E0000
1C003C0000
1C00380000
FF80780000
FF80700000
0000F00F80
0001E03FC0
0001C03DE0
0003C07060
0003807070
0007807070
000F0038E0
000E001FC0
001E003FC0
001C007060
003C007070
0038006070
0070007070
00F00070F0
00E0003FE0
01E0001FC0
ENDCHAR
STARTCHAR 215C
ENCODING 8540
SWIDTH 855 0
DWIDTH 38 0
BBX 34 31 2 0
BITMAP
3F8000F000
7FC000E000
71C001E000
E0E003C000
00E0038000
00E0078000
03C0070000
0F800F0000
0FC01E0000
00C01C0000
00E03C0000
E0E0380000
E0E0780000
FFC0F00000
7FC0E00000
1F01E03E00
0001C07F80
0003C0F780
000781C1C0
000701C1C0
000F01C1C0
000E00E380
001E007F00
001C007F80
003C00C1C0
007801C1C0
007001C0C0
00F001C1C0
00E001E1C0
01E000FF80
03C0007F00
ENDCHAR
STARTCHAR 215D
ENCODING 8541
SWIDTH 877 0
DWIDTH 39 0
BBX 36 31 2 0
BITMAP
FFC0007000
FFC000F000
E00000E000
E00001E000
E00003C000
DF00038000
FFC0078000
E1C0070000
00E00F0000
00E01E0000
00E01C0000
E0E03C0000
F1C0380000
7FC0780000
3F80F00000
0000E00F80
0001E03FC0
0001C03DE0
0003C07060
0007807070
0007007060
000F0038E0
000E003FC0
001E003FC0
003C007060
0038007070
0078006070
0070007070
00F00070F0
01E0003FE0
01C0001FC0
ENDCHAR
STARTCHAR 215E
ENCODING 8542
SWIDTH 900 0
DWIDTH 40 0
BBX 36 31 2 0
BITMAP
FFC0007000
FFC000F000
FFC001E000
01C001C000
018003C000
0380038000
0380078000
0700070000
07000E0000
0E001E0000
0E001C0000
1C003C0000
1C00380000
3800700000
3800F00000
0000E00F80
0001E01FE0
0001C03DE0
0003C03070
0007807070
0007003070
000F0038E0
000E001FE0
001E001FE0
003C003870
0038007030
0078007030
0070007070
00F0007870
01E0003FE0
01C0001FC0
ENDCHAR
STARTCHAR 2212
ENCODING 8722
SWIDTH 585 0
DWIDTH 26 0
BBX 17 4 5 12
BITMAP
FFFF80
FFFF80
FFFF80
FFFF80
ENDCHAR
STARTCHAR 2215
ENCODING 8725
SWIDTH 495 0
DWIDTH 22 0
BBX 18 31 3 0
BITMAP
0003C0
0003C0
000780
000780
000F00
000F00
000E00
001E00
001C00
003C00
003800
007800
007000
00F000
00E000
01E000
01C000
03C000
038000
078000
070000
0F0000
0E0000
1E0000
1C0000
3C0000
380000
780000
700000
F00000
E00000
ENDCHAR
STARTCHAR 2248
ENCODING 8776
SWIDTH 540 0
DWIDTH 24 0
BBX 17 14 4 7
BITMAP
1F0380
7FC700
7FFF00
E0FE00
E01800
000000
000000
000000
000000
0E0380
3F8380
7FFF00
F1FE00
E07C00
ENDCHAR
STARTCHAR 2260
ENCODING 8800
SWIDTH 720 0
DWIDTH 32 0
BBX 21 26 6 1
BITMAP
0000E0
0001E0
0003C0
000380
000780
000700
000F00
FFFFF8
FFFFF8
FFFFF8
003800
007800
007000
00F000
01E000
01C000
FFFFF8
FFFFF8
FFFFF8
FFFFF8
0F0000
1E0000
1C0000
3C0000
380000
780000
ENDCHAR
STARTCHAR 2264
ENCODING 8804
SWIDTH 585 0
DWIDTH 26 0
BBX 19 27 4 0
BITMAP
000040
0001C0
0003C0
000FC0
003F80
00FE00
03F800
0FE000
3F8000
3E0000
3C0000
3F0000
0FC000
07F000
01FC00
007F00
001FC0
0007C0
0001C0
000040
000000
000000
000000
000000
FFFFE0
FFFFE0
FFFFE0
ENDCHAR
STARTCHAR 2265
ENCODING 8805
SWIDTH 607 0
DWIDTH 27 0
BBX 19 27 4 0
BITMAP
200000
300000
3C0000
3F0000
1FC000
07F000
01FC00
007F00
001F80
0007C0
0003C0
000FC0
003F00
00FC00
03F000
0FE000
3F8000
3E0000
380000
200000
000000
000000
000000
000000
FFFFE0
FFFFE0
FFFFE0
ENDCHAR
ENDFONT
